;TYPE=PLATED
;Layer: PTH_Through_Via
;EasyEDA Pro v2.2.47.7, 2026-04-30 16:02:48
;Gerber Generator version 0.3
M48
METRIC,LZ,0000.00000
;Hole size 1 = 0.30500 METRIC
T01C0.30500
%
G05
G90
T01
X24.138Y3.8352
X23.376Y3.8352
X12.8079Y14.14209
X13.34672Y13.60327
X12.10995Y11.79205
X12.2858Y11.03004
X14.40949Y11.90195
X14.75844Y12.63063
X27.432Y12.319
X21.336Y11.303
X24.257Y13.335
X24.257Y16.129
X20.955Y12.065
X5.207Y16.51
X9.779Y15.621
X14.478Y17.018
X18.288Y12.94308
X17.526Y11.557
X24.384Y17.399
X23.114Y14.79702
X39.243Y16.383
X42.799Y12.065
X45.466Y12.192
X62.23Y9.398
X58.039Y12.827
X28.956Y8.255
X6.477Y2.921
X18.415Y6.604
M30