G04 Layer: BottomSilkscreenLayer*
G04 EasyEDA Pro v2.2.47.7, 2026-04-30 16:02:43*
G04 Gerber Generator version 0.3*
G04 Scale: 100 percent, Rotated: No, Reflected: No*
G04 Dimensions in millimeters*
G04 Leading zeros omitted, absolute positions, 4 integers and 5 decimals*
G04 Generated by one-click*
G04 Object Configs: Pad,Via,Track,Text,Image,Dimension,BoardOutline,BoardCutout,CopperFilled,SolidRegion,FPCStiffener,Line,PlaneZone,ComponentProperty,ComponentSilkscreen,TearDrop*
G04 Layer Configs: 1,2,3,4,5,6,7,8,9,10,11,13,14,56*
G04 Copper Areas: 0*
%FSLAX45Y45*%
%MOMM*%
%ADD10C,0.2032*%
%ADD11C,0.8367*%
G75*


G04 Image Start*
G36*
G01X4498348Y952967D02*
G01X4369486Y952967D01*
G01X4368676Y956065D01*
G01X4338505Y956065D01*
G01X4337695Y959163D01*
G01X4313720Y959163D01*
G01X4312910Y962261D01*
G01X4292034Y962261D01*
G01X4291223Y965359D01*
G01X4273445Y965359D01*
G01X4272635Y968458D01*
G01X4257954Y968458D01*
G01X4257144Y971556D01*
G01X4239366Y971556D01*
G01X4238555Y974654D01*
G01X4226344Y974654D01*
G01X4226344Y977752D01*
G01X4211483Y977752D01*
G01X4210672Y980850D01*
G01X4195992Y980850D01*
G01X4195182Y983948D01*
G01X4183599Y983948D01*
G01X4182789Y987046D01*
G01X4171207Y987046D01*
G01X4170397Y990144D01*
G01X4158815Y990144D01*
G01X4158004Y993243D01*
G01X4146422Y993243D01*
G01X4145612Y996341D01*
G01X4136498Y996341D01*
G01X4136498Y999439D01*
G01X4124735Y999439D01*
G01X4123925Y1002537D01*
G01X4114811Y1002537D01*
G01X4114811Y1005635D01*
G01X4103048Y1005635D01*
G01X4102238Y1008733D01*
G01X4093754Y1008733D01*
G01X4092944Y1011831D01*
G01X4083830Y1011831D01*
G01X4083830Y1014929D01*
G01X4072067Y1014929D01*
G01X4071257Y1018027D01*
G01X4062773Y1018027D01*
G01X4061963Y1021126D01*
G01X4053479Y1021126D01*
G01X4052668Y1024224D01*
G01X4051300Y1024224D01*
G01X4051300Y1033518D01*
G01X4052668Y1033518D01*
G01X4053479Y1036616D01*
G01X4058865Y1036616D01*
G01X4059675Y1039714D01*
G01X4068340Y1039714D01*
G01X4068340Y1042812D01*
G01X4074536Y1042812D01*
G01X4074536Y1045910D01*
G01X4080551Y1045910D01*
G01X4081362Y1049009D01*
G01X4086748Y1049009D01*
G01X4087558Y1052107D01*
G01X4096223Y1052107D01*
G01X4096223Y1055205D01*
G01X4102419Y1055205D01*
G01X4102419Y1058303D01*
G01X4108434Y1058303D01*
G01X4109245Y1061401D01*
G01X4114631Y1061401D01*
G01X4115441Y1064499D01*
G01X4120827Y1064499D01*
G01X4121637Y1067597D01*
G01X4130302Y1067597D01*
G01X4130302Y1070695D01*
G01X4136498Y1070695D01*
G01X4136498Y1073794D01*
G01X4142514Y1073794D01*
G01X4143324Y1076892D01*
G01X4148710Y1076892D01*
G01X4149520Y1079990D01*
G01X4152618Y1079990D01*
G01X4151808Y1083088D01*
G01X4148891Y1083088D01*
G01X4148891Y1086186D01*
G01X4145793Y1086186D01*
G01X4145793Y1089284D01*
G01X4142694Y1089284D01*
G01X4142694Y1092382D01*
G01X4137128Y1092382D01*
G01X4136318Y1095480D01*
G01X4133400Y1095480D01*
G01X4133400Y1098578D01*
G01X4130302Y1098578D01*
G01X4130302Y1101677D01*
G01X4127204Y1101677D01*
G01X4127204Y1104775D01*
G01X4121637Y1104775D01*
G01X4121061Y1106976D01*
G01X4238736Y1106976D01*
G01X4238736Y1089657D01*
G01X4241834Y1087722D01*
G01X4241834Y1083269D01*
G01X4244932Y1082458D01*
G01X4244932Y1080170D01*
G01X4248030Y1079360D01*
G01X4248030Y1077072D01*
G01X4251129Y1076262D01*
G01X4251129Y1073974D01*
G01X4254227Y1073164D01*
G01X4254227Y1065129D01*
G01X4251272Y1064356D01*
G01X4250499Y1061401D01*
G01X4248211Y1061401D01*
G01X4247401Y1058303D01*
G01X4244932Y1058303D01*
G01X4244932Y1030793D01*
G01X4248030Y1028858D01*
G01X4248030Y1024224D01*
G01X4251129Y1024224D01*
G01X4251129Y1021298D01*
G01X4256550Y1020281D01*
G01X4256550Y1018027D01*
G01X4259793Y1018027D01*
G01X4260604Y1014929D01*
G01X4268555Y1014908D01*
G01X4268555Y1014908D01*
G01X4272041Y1013974D01*
G01X4272041Y1011831D01*
G01X4300326Y1011831D01*
G01X4302261Y1014929D01*
G01X4309148Y1014929D01*
G01X4313091Y1018872D01*
G01X4313091Y1034293D01*
G01X4310948Y1034293D01*
G01X4310014Y1037778D01*
G01X4309993Y1058122D01*
G01X4306895Y1058932D01*
G01X4306895Y1080764D01*
G01X4304752Y1080764D01*
G01X4303818Y1084250D01*
G01X4303797Y1105549D01*
G01X4301654Y1105549D01*
G01X4300823Y1108647D01*
G01X4328581Y1108647D01*
G01X4328581Y1107098D01*
G01X4330724Y1107098D01*
G01X4331658Y1103613D01*
G01X4331680Y1089465D01*
G01X4334778Y1088655D01*
G01X4334778Y1077264D01*
G01X4337876Y1075329D01*
G01X4337876Y1064680D01*
G01X4340974Y1063870D01*
G01X4340974Y1055577D01*
G01X4344072Y1053643D01*
G01X4344072Y1046091D01*
G01X4347170Y1045281D01*
G01X4347170Y1039714D01*
G01X4349542Y1039714D01*
G01X4350554Y1037003D01*
G01X4353366Y1034979D01*
G01X4353366Y1030420D01*
G01X4356464Y1030420D01*
G01X4356464Y1027322D01*
G01X4359563Y1027322D01*
G01X4359563Y1024224D01*
G01X4362661Y1024224D01*
G01X4362661Y1021298D01*
G01X4368082Y1020281D01*
G01X4368082Y1018225D01*
G01X4374279Y1017235D01*
G01X4374279Y1014929D01*
G01X4374279Y1014929D01*
G01X4380877Y1014929D01*
G01X4382812Y1018027D01*
G01X4390544Y1018027D01*
G01X4390544Y1020400D01*
G01X4393255Y1021411D01*
G01X4395279Y1024224D01*
G01X4399838Y1024224D01*
G01X4437016Y1024224D01*
G01X4439484Y1024224D01*
G01X4440294Y1021126D01*
G01X4458522Y1021126D01*
G01X4459332Y1024224D01*
G01X4474967Y1024224D01*
G01X4474967Y1026367D01*
G01X4478453Y1027301D01*
G01X4489503Y1027322D01*
G01X4490313Y1030420D01*
G01X4498605Y1030420D01*
G01X4500540Y1033518D01*
G01X4508272Y1033518D01*
G01X4508272Y1036616D01*
G01X4511370Y1036616D01*
G01X4511555Y1039327D01*
G01X4511207Y1048590D01*
G01X4508272Y1050646D01*
G01X4508272Y1057930D01*
G01X4505174Y1059865D01*
G01X4505174Y1067225D01*
G01X4502076Y1069159D01*
G01X4502076Y1077666D01*
G01X4499933Y1077666D01*
G01X4498999Y1081152D01*
G01X4498978Y1089103D01*
G01X4495880Y1089914D01*
G01X4495880Y1098206D01*
G01X4492782Y1100141D01*
G01X4492782Y1110790D01*
G01X4489683Y1111600D01*
G01X4489683Y1119893D01*
G01X4486585Y1121827D01*
G01X4486585Y1129187D01*
G01X4483487Y1131122D01*
G01X4483487Y1138481D01*
G01X4480389Y1140416D01*
G01X4480389Y1145825D01*
G01X4478136Y1145825D01*
G01X4477119Y1151246D01*
G01X4474193Y1151246D01*
G01X4474193Y1154251D01*
G01X4468384Y1154849D01*
G01X4466321Y1154345D01*
G01X4464899Y1154345D01*
G01X4464899Y1129740D01*
G01X4467997Y1128930D01*
G01X4467997Y1114250D01*
G01X4471095Y1113440D01*
G01X4471095Y1104955D01*
G01X4474193Y1104145D01*
G01X4474193Y1095661D01*
G01X4477291Y1094851D01*
G01X4477291Y1088510D01*
G01X4479434Y1088510D01*
G01X4480368Y1085024D01*
G01X4480389Y1080362D01*
G01X4483487Y1078428D01*
G01X4483487Y1070876D01*
G01X4486585Y1070066D01*
G01X4486585Y1063725D01*
G01X4488728Y1063725D01*
G01X4489662Y1060239D01*
G01X4489683Y1045910D01*
G01X4486958Y1045910D01*
G01X4485023Y1042812D01*
G01X4477472Y1042812D01*
G01X4476662Y1039714D01*
G01X4467222Y1039714D01*
G01X4467222Y1037571D01*
G01X4463737Y1036637D01*
G01X4449589Y1036616D01*
G01X4448778Y1033518D01*
G01X4443584Y1033518D01*
G01X4441650Y1030420D01*
G01X4439339Y1030420D01*
G01X4439339Y1028096D01*
G01X4437016Y1028096D01*
G01X4437016Y1024224D01*
G01X4437016Y1024224D01*
G01X4399838Y1024224D01*
G01X4399838Y1027322D01*
G01X4402936Y1027322D01*
G01X4402936Y1030420D01*
G01X4405862Y1030420D01*
G01X4406879Y1035842D01*
G01X4408934Y1035842D01*
G01X4409925Y1042038D01*
G01X4412231Y1042038D01*
G01X4412252Y1050945D01*
G01X4413186Y1054430D01*
G01X4415329Y1054430D01*
G01X4415329Y1059077D01*
G01X4413186Y1059077D01*
G01X4412252Y1062563D01*
G01X4412231Y1083862D01*
G01X4410088Y1083862D01*
G01X4409154Y1087348D01*
G01X4409132Y1105549D01*
G01X4406990Y1105549D01*
G01X4406056Y1109035D01*
G01X4406034Y1121040D01*
G01X4403891Y1121040D01*
G01X4402957Y1124525D01*
G01X4402936Y1129187D01*
G01X4399838Y1131122D01*
G01X4399838Y1135662D01*
G01X4394029Y1136260D01*
G01X4391966Y1135756D01*
G01X4390544Y1135756D01*
G01X4390544Y1133287D01*
G01X4387446Y1132477D01*
G01X4387446Y1114250D01*
G01X4390544Y1113440D01*
G01X4390544Y1098759D01*
G01X4393642Y1097949D01*
G01X4393642Y1082313D01*
G01X4395785Y1082313D01*
G01X4396719Y1078828D01*
G01X4396740Y1061774D01*
G01X4399838Y1059839D01*
G01X4399817Y1047072D01*
G01X4398883Y1043587D01*
G01X4396740Y1043587D01*
G01X4396740Y1039714D01*
G01X4393642Y1039714D01*
G01X4393642Y1036616D01*
G01X4390724Y1036616D01*
G01X4389914Y1033518D01*
G01X4375683Y1033518D01*
G01X4374873Y1036616D01*
G01X4371955Y1036616D01*
G01X4371955Y1039534D01*
G01X4368857Y1040344D01*
G01X4368857Y1045910D01*
G01X4365759Y1045910D01*
G01X4365759Y1051926D01*
G01X4362661Y1052736D01*
G01X4362661Y1057930D01*
G01X4359563Y1059865D01*
G01X4359563Y1067417D01*
G01X4356464Y1068227D01*
G01X4356464Y1077666D01*
G01X4354322Y1077666D01*
G01X4353388Y1081152D01*
G01X4353366Y1088912D01*
G01X4350268Y1090846D01*
G01X4350268Y1107692D01*
G01X4347170Y1108502D01*
G01X4347170Y1116795D01*
G01X4344072Y1118729D01*
G01X4344072Y1121040D01*
G01X4341748Y1121040D01*
G01X4341748Y1123183D01*
G01X4337722Y1123953D01*
G01X4334778Y1123183D01*
G01X4334778Y1120895D01*
G01X4331680Y1120085D01*
G01X4331658Y1112133D01*
G01X4330724Y1108647D01*
G01X4328581Y1108647D01*
G01X4300823Y1108647D01*
G01X4300720Y1109035D01*
G01X4300698Y1113897D01*
G01X4295277Y1114914D01*
G01X4295277Y1117167D01*
G01X4277476Y1117167D01*
G01X4275541Y1120265D01*
G01X4266992Y1120265D01*
G01X4265057Y1117167D01*
G01X4251501Y1117167D01*
G01X4249566Y1114069D01*
G01X4245829Y1114069D01*
G01X4238736Y1106976D01*
G01X4121061Y1106976D01*
G01X4120827Y1107873D01*
G01X4117910Y1107873D01*
G01X4117910Y1110971D01*
G01X4114811Y1110971D01*
G01X4114811Y1114069D01*
G01X4111713Y1114069D01*
G01X4111713Y1117167D01*
G01X4106147Y1117167D01*
G01X4105336Y1120265D01*
G01X4102419Y1120265D01*
G01X4102419Y1123363D01*
G01X4099321Y1123363D01*
G01X4099321Y1126462D01*
G01X4093754Y1126462D01*
G01X4092981Y1129416D01*
G01X4090026Y1130189D01*
G01X4090026Y1132658D01*
G01X4086928Y1132658D01*
G01X4086928Y1135756D01*
G01X4083830Y1135756D01*
G01X4083830Y1138854D01*
G01X4078263Y1138854D01*
G01X4077491Y1141809D01*
G01X4074536Y1142582D01*
G01X4074536Y1145050D01*
G01X4071438Y1145050D01*
G01X4071438Y1148148D01*
G01X4068340Y1148148D01*
G01X4068340Y1151246D01*
G01X4065242Y1151246D01*
G01X4065242Y1157070D01*
G01X4511370Y1157070D01*
G01X4511370Y1153570D01*
G01X4513513Y1153570D01*
G01X4514447Y1150085D01*
G01X4514468Y1145050D01*
G01X4520484Y1145050D01*
G01X4521294Y1148148D01*
G01X4523590Y1148148D01*
G01X4524608Y1153570D01*
G01X4526494Y1153570D01*
G01X4528023Y1157055D01*
G01X4532899Y1157529D01*
G01X4533687Y1160541D01*
G01X4547918Y1160541D01*
G01X4548728Y1157443D01*
G01X4554114Y1157443D01*
G01X4554925Y1154345D01*
G01X4557213Y1154345D01*
G01X4558023Y1151246D01*
G01X4560311Y1151246D01*
G01X4561083Y1148292D01*
G01X4564038Y1147519D01*
G01X4564038Y1144276D01*
G01X4566239Y1144276D01*
G01X4567345Y1139241D01*
G01X4570235Y1137217D01*
G01X4570235Y1133030D01*
G01X4573333Y1131096D01*
G01X4573333Y1123736D01*
G01X4576431Y1121801D01*
G01X4576431Y1107098D01*
G01X4578574Y1107098D01*
G01X4579508Y1103613D01*
G01X4579508Y1093544D01*
G01X4578574Y1090059D01*
G01X4576431Y1090059D01*
G01X4576410Y1081152D01*
G01X4575476Y1077666D01*
G01X4573333Y1077666D01*
G01X4573333Y1074423D01*
G01X4570235Y1073613D01*
G01X4570235Y1070695D01*
G01X4567317Y1070695D01*
G01X4566507Y1067597D01*
G01X4557068Y1067597D01*
G01X4557068Y1065454D01*
G01X4553582Y1064520D01*
G01X4542351Y1064499D01*
G01X4542351Y1061401D01*
G01X4539253Y1061401D01*
G01X4539253Y1058484D01*
G01X4542351Y1057673D01*
G01X4542351Y1052107D01*
G01X4545450Y1052107D01*
G01X4545450Y1049009D01*
G01X4551016Y1049009D01*
G01X4551826Y1045910D01*
G01X4551826Y1045910D01*
G01X4566764Y1045910D01*
G01X4568699Y1049009D01*
G01X4576058Y1049009D01*
G01X4577993Y1052107D01*
G01X4582627Y1052107D01*
G01X4582627Y1054479D01*
G01X4585021Y1055398D01*
G01X4591729Y1062105D01*
G01X4592647Y1064499D01*
G01X4595019Y1064499D01*
G01X4595019Y1070066D01*
G01X4598118Y1070876D01*
G01X4598139Y1081926D01*
G01X4599073Y1085411D01*
G01X4601216Y1085411D01*
G01X4601216Y1092010D01*
G01X4598118Y1093944D01*
G01X4598118Y1108647D01*
G01X4595975Y1108647D01*
G01X4595041Y1112133D01*
G01X4595019Y1120085D01*
G01X4591921Y1120895D01*
G01X4591921Y1126089D01*
G01X4588823Y1128024D01*
G01X4588823Y1135575D01*
G01X4585725Y1136385D01*
G01X4585725Y1141771D01*
G01X4582627Y1142582D01*
G01X4582627Y1148148D01*
G01X4579529Y1148148D01*
G01X4579529Y1150874D01*
G01X4576431Y1152809D01*
G01X4576431Y1157443D01*
G01X4573333Y1157443D01*
G01X4573333Y1160541D01*
G01X4570960Y1160541D01*
G01X4570042Y1162935D01*
G01X4563334Y1169642D01*
G01X4560940Y1170561D01*
G01X4560940Y1172753D01*
G01X4557842Y1173563D01*
G01X4557842Y1176031D01*
G01X4552275Y1176031D01*
G01X4551465Y1179130D01*
G01X4540816Y1179130D01*
G01X4538881Y1182228D01*
G01X4535381Y1182228D01*
G01X4535381Y1180085D01*
G01X4531895Y1179151D01*
G01X4527234Y1179130D01*
G01X4525299Y1176031D01*
G01X4520837Y1176031D01*
G01X4519820Y1170610D01*
G01X4517567Y1170610D01*
G01X4517567Y1167367D01*
G01X4514468Y1166556D01*
G01X4514468Y1159005D01*
G01X4511370Y1157070D01*
G01X4065242Y1157070D01*
G01X4065242Y1160541D01*
G01X4098691Y1160541D01*
G01X4099501Y1157443D01*
G01X4223065Y1157443D01*
G01X4223875Y1160541D01*
G01X4254046Y1160541D01*
G01X4254856Y1163639D01*
G01X4279012Y1163639D01*
G01X4279012Y1166737D01*
G01X4297600Y1166737D01*
G01X4297600Y1169835D01*
G01X4312910Y1169835D01*
G01X4313720Y1172933D01*
G01X4328401Y1172933D01*
G01X4329211Y1176031D01*
G01X4344072Y1176031D01*
G01X4344072Y1179130D01*
G01X4356464Y1179130D01*
G01X4356464Y1182228D01*
G01X4365578Y1182228D01*
G01X4366388Y1185326D01*
G01X4378151Y1185326D01*
G01X4378151Y1188424D01*
G01X4387265Y1188424D01*
G01X4388075Y1191522D01*
G01X4396559Y1191522D01*
G01X4397370Y1194620D01*
G01X4405854Y1194620D01*
G01X4406664Y1197718D01*
G01X4415148Y1197718D01*
G01X4415958Y1200816D01*
G01X4424442Y1200816D01*
G01X4425253Y1203914D01*
G01X4433917Y1203914D01*
G01X4433917Y1207013D01*
G01X4439933Y1207013D01*
G01X4440743Y1210111D01*
G01X4449408Y1210111D01*
G01X4449408Y1213209D01*
G01X4455424Y1213209D01*
G01X4456234Y1216307D01*
G01X4461620Y1216307D01*
G01X4462430Y1219405D01*
G01X4471095Y1219405D01*
G01X4471095Y1222503D01*
G01X4477291Y1222503D01*
G01X4477291Y1225601D01*
G01X4483487Y1225601D01*
G01X4483487Y1228699D01*
G01X4489683Y1228699D01*
G01X4489683Y1231797D01*
G01X4495880Y1231797D01*
G01X4629099Y1231797D01*
G01X4629099Y1225974D01*
G01X4632197Y1224039D01*
G01X4632197Y1221729D01*
G01X4634520Y1221729D01*
G01X4634520Y1219405D01*
G01X4636831Y1219405D01*
G01X4638766Y1216307D01*
G01X4641491Y1216307D01*
G01X4641491Y1213209D01*
G01X4647058Y1213209D01*
G01X4647868Y1210111D01*
G01X4653254Y1210111D01*
G01X4654064Y1207013D01*
G01X4659450Y1207013D01*
G01X4660261Y1203914D01*
G01X4665114Y1203893D01*
G01X4668600Y1202959D01*
G01X4668600Y1200816D01*
G01X4674941Y1200816D01*
G01X4675703Y1197903D01*
G01X4683350Y1197168D01*
G01X4684272Y1196246D01*
G01X4685076Y1189109D01*
G01X4681767Y1188243D01*
G01X4681767Y1165963D01*
G01X4683910Y1165963D01*
G01X4684844Y1162477D01*
G01X4684865Y1142133D01*
G01X4687963Y1141323D01*
G01X4687963Y1129740D01*
G01X4691061Y1128930D01*
G01X4691061Y1123363D01*
G01X4694159Y1123363D01*
G01X4694159Y1120446D01*
G01X4697257Y1119636D01*
G01X4697257Y1117348D01*
G01X4697257Y1117348D01*
G01X4700355Y1116538D01*
G01X4700355Y1114069D01*
G01X4709650Y1114069D01*
G01X4709650Y1117167D01*
G01X4712748Y1117167D01*
G01X4712748Y1119636D01*
G01X4715846Y1120446D01*
G01X4715846Y1125832D01*
G01X4718944Y1126642D01*
G01X4718944Y1130334D01*
G01X4716801Y1130334D01*
G01X4715867Y1133820D01*
G01X4715846Y1141579D01*
G01X4712748Y1143514D01*
G01X4712748Y1153972D01*
G01X4709650Y1155907D01*
G01X4709650Y1169654D01*
G01X4706552Y1170465D01*
G01X4706552Y1183002D01*
G01X4704409Y1183002D01*
G01X4703475Y1186488D01*
G01X4703454Y1193894D01*
G01X4706164Y1194905D01*
G01X4708189Y1197718D01*
G01X4719987Y1197718D01*
G01X4735118Y1182429D01*
G01X4737533Y1181502D01*
G01X4737533Y1179130D01*
G01X4740001Y1179130D01*
G01X4740812Y1176031D01*
G01X4745265Y1176031D01*
G01X4747200Y1172933D01*
G01X4751461Y1172933D01*
G01X4753396Y1169835D01*
G01X4758590Y1169835D01*
G01X4759400Y1166737D01*
G01X4773865Y1166737D01*
G01X4777846Y1170717D01*
G01X4778054Y1173321D01*
G01X4777808Y1179130D01*
G01X4775340Y1179130D01*
G01X4774530Y1182228D01*
G01X4771612Y1182228D01*
G01X4771612Y1185153D01*
G01X4766190Y1186170D01*
G01X4766190Y1188424D01*
G01X4763955Y1188424D01*
G01X4761930Y1191237D01*
G01X4759220Y1192248D01*
G01X4759220Y1194620D01*
G01X4756122Y1194620D01*
G01X4756122Y1197718D01*
G01X4751562Y1197718D01*
G01X4749538Y1200531D01*
G01X4746827Y1201542D01*
G01X4746827Y1203734D01*
G01X4743729Y1204544D01*
G01X4743729Y1206832D01*
G01X4740631Y1207642D01*
G01X4740631Y1210111D01*
G01X4737533Y1210111D01*
G01X4737533Y1213209D01*
G01X4734435Y1213209D01*
G01X4734435Y1216307D01*
G01X4731337Y1216307D01*
G01X4731337Y1219224D01*
G01X4728238Y1220035D01*
G01X4728238Y1222503D01*
G01X4725866Y1222503D01*
G01X4724855Y1225214D01*
G01X4722042Y1227238D01*
G01X4722042Y1229474D01*
G01X4719789Y1229474D01*
G01X4718772Y1234896D01*
G01X4716572Y1234896D01*
G01X4715561Y1237606D01*
G01X4712748Y1239631D01*
G01X4712748Y1244009D01*
G01X4709650Y1244819D01*
G01X4709650Y1250206D01*
G01X4706552Y1251016D01*
G01X4706552Y1256402D01*
G01X4703454Y1257212D01*
G01X4703454Y1262598D01*
G01X4700355Y1263408D01*
G01X4700355Y1266651D01*
G01X4698155Y1266651D01*
G01X4697049Y1271686D01*
G01X4694159Y1273710D01*
G01X4694159Y1277897D01*
G01X4691061Y1279831D01*
G01X4691061Y1284465D01*
G01X4687963Y1284465D01*
G01X4687963Y1287564D01*
G01X4684865Y1287564D01*
G01X4684865Y1290662D01*
G01X4680309Y1290662D01*
G01X4679268Y1292346D01*
G01X4677584Y1290662D01*
G01X4672645Y1290662D01*
G01X4671628Y1285240D01*
G01X4669374Y1285240D01*
G01X4669374Y1277030D01*
G01X4667515Y1275171D01*
G01X4669374Y1273312D01*
G01X4669374Y1266249D01*
G01X4672472Y1264315D01*
G01X4672472Y1256763D01*
G01X4675570Y1255953D01*
G01X4675570Y1250386D01*
G01X4677943Y1250386D01*
G01X4678954Y1247675D01*
G01X4681767Y1245651D01*
G01X4681767Y1241464D01*
G01X4684865Y1239530D01*
G01X4684865Y1234896D01*
G01X4687963Y1234896D01*
G01X4687963Y1232170D01*
G01X4691061Y1230235D01*
G01X4691061Y1225601D01*
G01X4694159Y1225601D01*
G01X4694159Y1221729D01*
G01X4696483Y1221729D01*
G01X4696483Y1217262D01*
G01X4692997Y1216328D01*
G01X4688592Y1216307D01*
G01X4687782Y1219405D01*
G01X4682396Y1219405D01*
G01X4681586Y1222503D01*
G01X4676732Y1222524D01*
G01X4673247Y1223458D01*
G01X4673247Y1225601D01*
G01X4664740Y1225601D01*
G01X4662805Y1228699D01*
G01X4654513Y1228699D01*
G01X4653703Y1231797D01*
G01X4642653Y1231819D01*
G01X4639168Y1232753D01*
G01X4639168Y1234896D01*
G01X4632378Y1234896D01*
G01X4631567Y1231797D01*
G01X4629099Y1231797D01*
G01X4495880Y1231797D01*
G01X4495880Y1234896D01*
G01X4502076Y1234896D01*
G01X4502076Y1237994D01*
G01X4504993Y1237994D01*
G01X4505804Y1241092D01*
G01X4511190Y1241092D01*
G01X4512000Y1244190D01*
G01X4517567Y1244190D01*
G01X4517567Y1247288D01*
G01X4523763Y1247288D01*
G01X4523763Y1250386D01*
G01X4526680Y1250386D01*
G01X4527490Y1253484D01*
G01X4533057Y1253484D01*
G01X4533057Y1256582D01*
G01X4539253Y1256582D01*
G01X4539253Y1259681D01*
G01X4542171Y1259681D01*
G01X4542981Y1262779D01*
G01X4548548Y1262779D01*
G01X4548548Y1265877D01*
G01X4551465Y1265877D01*
G01X4552275Y1268975D01*
G01X4557842Y1268975D01*
G01X4557842Y1272073D01*
G01X4560760Y1272073D01*
G01X4561570Y1275171D01*
G01X4563858Y1275171D01*
G01X4564668Y1278269D01*
G01X4570235Y1278269D01*
G01X4570235Y1281367D01*
G01X4573152Y1281367D01*
G01X4573962Y1284465D01*
G01X4576250Y1284465D01*
G01X4577060Y1287564D01*
G01X4582627Y1287564D01*
G01X4582627Y1290662D01*
G01X4585544Y1290662D01*
G01X4586355Y1293760D01*
G01X4588643Y1293760D01*
G01X4589453Y1296858D01*
G01X4595019Y1296858D01*
G01X4595019Y1299956D01*
G01X4598118Y1299956D01*
G01X4598118Y1303054D01*
G01X4601216Y1303054D01*
G01X4601216Y1306152D01*
G01X4604133Y1306152D01*
G01X4604943Y1309250D01*
G01X4607231Y1309250D01*
G01X4608041Y1312349D01*
G01X4610329Y1312349D01*
G01X4611140Y1315447D01*
G01X4613427Y1315447D01*
G01X4614238Y1318545D01*
G01X4619804Y1318545D01*
G01X4619804Y1321643D01*
G01X4622903Y1321643D01*
G01X4622903Y1324741D01*
G01X4626001Y1324741D01*
G01X4626001Y1327658D01*
G01X4712748Y1327658D01*
G01X4712748Y1309431D01*
G01X4715846Y1308621D01*
G01X4715846Y1303227D01*
G01X4721268Y1302209D01*
G01X4721268Y1299956D01*
G01X4724295Y1299956D01*
G01X4728013Y1303674D01*
G01X4728964Y1306152D01*
G01X4731337Y1306152D01*
G01X4731337Y1311719D01*
G01X4734435Y1312529D01*
G01X4734435Y1317819D01*
G01X4737146Y1318830D01*
G01X4739170Y1321643D01*
G01X4755492Y1321643D01*
G01X4756302Y1318545D01*
G01X4761688Y1318545D01*
G01X4762498Y1315447D01*
G01X4766877Y1315447D01*
G01X4768901Y1312634D01*
G01X4771612Y1311623D01*
G01X4771612Y1309250D01*
G01X4774710Y1309250D01*
G01X4774710Y1306152D01*
G01X4777808Y1306152D01*
G01X4777808Y1303054D01*
G01X4780906Y1303054D01*
G01X4780906Y1299956D01*
G01X4784005Y1299956D01*
G01X4784005Y1296858D01*
G01X4787103Y1296858D01*
G01X4787103Y1293760D01*
G01X4790201Y1293760D01*
G01X4790201Y1290662D01*
G01X4793299Y1290662D01*
G01X4793299Y1287564D01*
G01X4795671Y1287564D01*
G01X4796682Y1284930D01*
G01X4802593Y1279495D01*
G01X4802593Y1275352D01*
G01X4805691Y1274542D01*
G01X4805691Y1269156D01*
G01X4808790Y1268345D01*
G01X4808790Y1262959D01*
G01X4811888Y1262149D01*
G01X4811888Y1253665D01*
G01X4814986Y1252855D01*
G01X4814965Y1236057D01*
G01X4814031Y1232572D01*
G01X4812086Y1232572D01*
G01X4811106Y1226445D01*
G01X4805691Y1225429D01*
G01X4805691Y1222503D01*
G01X4802966Y1222503D01*
G01X4801031Y1219405D01*
G01X4797242Y1219405D01*
G01X4793299Y1215462D01*
G01X4793299Y1207193D01*
G01X4796397Y1206383D01*
G01X4796397Y1203914D01*
G01X4801964Y1203914D01*
G01X4802774Y1200816D01*
G01X4802774Y1200816D01*
G01X4814613Y1200816D01*
G01X4816548Y1203914D01*
G01X4821182Y1203914D01*
G01X4821182Y1206287D01*
G01X4823893Y1207298D01*
G01X4825917Y1210111D01*
G01X4828153Y1210111D01*
G01X4828153Y1212434D01*
G01X4830621Y1212434D01*
G01X4831432Y1215532D01*
G01X4833574Y1215532D01*
G01X4833574Y1218776D01*
G01X4836527Y1219548D01*
G01X4837517Y1224827D01*
G01X4839771Y1224827D01*
G01X4839792Y1233734D01*
G01X4840726Y1237219D01*
G01X4842869Y1237219D01*
G01X4842869Y1241866D01*
G01X4840726Y1241866D01*
G01X4839792Y1245352D01*
G01X4839771Y1259500D01*
G01X4836673Y1260310D01*
G01X4836673Y1268794D01*
G01X4833574Y1269604D01*
G01X4833574Y1274990D01*
G01X4830476Y1275801D01*
G01X4830476Y1281187D01*
G01X4827378Y1281997D01*
G01X4827378Y1287383D01*
G01X4824280Y1288193D01*
G01X4824280Y1291436D01*
G01X4822080Y1291436D01*
G01X4821014Y1296286D01*
G01X4814986Y1301829D01*
G01X4814986Y1306152D01*
G01X4811888Y1306152D01*
G01X4811888Y1309250D01*
G01X4808790Y1309250D01*
G01X4808790Y1312168D01*
G01X4805691Y1312978D01*
G01X4805691Y1315266D01*
G01X4802593Y1316076D01*
G01X4802593Y1318364D01*
G01X4799495Y1319174D01*
G01X4799495Y1321643D01*
G01X4797027Y1321643D01*
G01X4796216Y1324741D01*
G01X4793928Y1324741D01*
G01X4793118Y1327839D01*
G01X4790201Y1327839D01*
G01X4790201Y1330765D01*
G01X4784779Y1331782D01*
G01X4784779Y1334035D01*
G01X4781536Y1334035D01*
G01X4780764Y1336988D01*
G01X4775485Y1337978D01*
G01X4775485Y1340232D01*
G01X4772242Y1340232D01*
G01X4771431Y1343330D01*
G01X4766578Y1343351D01*
G01X4763092Y1344285D01*
G01X4763092Y1346428D01*
G01X4754185Y1346449D01*
G01X4750700Y1347383D01*
G01X4750700Y1349526D01*
G01X4747200Y1349526D01*
G01X4745265Y1346428D01*
G01X4734615Y1346428D01*
G01X4733805Y1343330D01*
G01X4728611Y1343330D01*
G01X4726676Y1340232D01*
G01X4722042Y1340232D01*
G01X4722042Y1337133D01*
G01X4718944Y1337133D01*
G01X4718944Y1334035D01*
G01X4715846Y1334035D01*
G01X4715846Y1328469D01*
G01X4712748Y1327658D01*
G01X4626001Y1327658D01*
G01X4626001Y1327839D01*
G01X4629099Y1327839D01*
G01X4629099Y1330937D01*
G01X4632197Y1330937D01*
G01X4632197Y1334035D01*
G01X4635295Y1334035D01*
G01X4635295Y1337133D01*
G01X4638393Y1337133D01*
G01X4638393Y1340232D01*
G01X4641491Y1340232D01*
G01X4641491Y1343330D01*
G01X4644589Y1343330D01*
G01X4644589Y1346428D01*
G01X4647687Y1346428D01*
G01X4647687Y1349526D01*
G01X4650786Y1349526D01*
G01X4650786Y1355093D01*
G01X4653884Y1355903D01*
G01X4653884Y1358191D01*
G01X4656982Y1359001D01*
G01X4656982Y1361289D01*
G01X4660080Y1362099D01*
G01X4660080Y1365017D01*
G01X4663178Y1365017D01*
G01X4663178Y1368115D01*
G01X4666276Y1368115D01*
G01X4666276Y1371213D01*
G01X4669374Y1371213D01*
G01X4669374Y1374311D01*
G01X4672472Y1374311D01*
G01X4672472Y1379878D01*
G01X4675570Y1380688D01*
G01X4675570Y1382976D01*
G01X4678669Y1383786D01*
G01X4678669Y1386703D01*
G01X4681767Y1386703D01*
G01X4681767Y1389801D01*
G01X4684865Y1389801D01*
G01X4684865Y1392900D01*
G01X4687963Y1392900D01*
G01X4687963Y1395998D01*
G01X4691061Y1395998D01*
G01X4691061Y1399096D01*
G01X4694159Y1399096D01*
G01X4694159Y1404663D01*
G01X4697257Y1405473D01*
G01X4697257Y1406067D01*
G01X4811888Y1406067D01*
G01X4811888Y1390174D01*
G01X4814986Y1388239D01*
G01X4814986Y1380880D01*
G01X4818084Y1378945D01*
G01X4818084Y1371585D01*
G01X4821182Y1369651D01*
G01X4821182Y1365389D01*
G01X4824280Y1363454D01*
G01X4824280Y1355903D01*
G01X4827378Y1355093D01*
G01X4827378Y1349526D01*
G01X4829750Y1349526D01*
G01X4830762Y1346815D01*
G01X4833574Y1344791D01*
G01X4833574Y1340604D01*
G01X4836673Y1338669D01*
G01X4836673Y1334216D01*
G01X4839771Y1333406D01*
G01X4839771Y1327839D01*
G01X4842143Y1327839D01*
G01X4843154Y1325128D01*
G01X4845967Y1323104D01*
G01X4845967Y1318545D01*
G01X4848339Y1318545D01*
G01X4849350Y1315834D01*
G01X4852163Y1313810D01*
G01X4852163Y1309250D01*
G01X4854535Y1309250D01*
G01X4855547Y1306540D01*
G01X4858359Y1304515D01*
G01X4858359Y1299956D01*
G01X4861457Y1299956D01*
G01X4861457Y1297231D01*
G01X4864556Y1295296D01*
G01X4864556Y1292985D01*
G01X4866809Y1292985D01*
G01X4867826Y1287564D01*
G01X4870752Y1287564D01*
G01X4870752Y1284465D01*
G01X4873124Y1284465D01*
G01X4874135Y1281755D01*
G01X4876948Y1279730D01*
G01X4876948Y1277495D01*
G01X4879201Y1277495D01*
G01X4880219Y1272073D01*
G01X4883144Y1272073D01*
G01X4883144Y1269147D01*
G01X4888566Y1268130D01*
G01X4888566Y1266075D01*
G01X4888566Y1266075D01*
G01X4894762Y1265084D01*
G01X4894762Y1262779D01*
G01X4907084Y1262779D01*
G01X4910802Y1266497D01*
G01X4911753Y1268975D01*
G01X4914125Y1268975D01*
G01X4914125Y1271892D01*
G01X4911027Y1272703D01*
G01X4911027Y1278269D01*
G01X4907929Y1278269D01*
G01X4907929Y1281367D01*
G01X4905461Y1281367D01*
G01X4904650Y1284465D01*
G01X4902459Y1284465D01*
G01X4901448Y1287099D01*
G01X4895537Y1292534D01*
G01X4895537Y1294534D01*
G01X4893283Y1294534D01*
G01X4892266Y1299956D01*
G01X4889341Y1299956D01*
G01X4889341Y1303054D01*
G01X4886242Y1303054D01*
G01X4886242Y1310490D01*
G01X4888101Y1312349D01*
G01X4892258Y1312349D01*
G01X4893068Y1315447D01*
G01X4896311Y1315447D01*
G01X4896311Y1317647D01*
G01X4901346Y1318753D01*
G01X4903370Y1321643D01*
G01X4907749Y1321643D01*
G01X4908559Y1324741D01*
G01X4914900Y1324741D01*
G01X4914900Y1327065D01*
G01X4919547Y1327065D01*
G01X4919547Y1324741D01*
G01X4922790Y1324741D01*
G01X4923562Y1321789D01*
G01X4928842Y1320798D01*
G01X4928842Y1318545D01*
G01X4932085Y1318545D01*
G01X4932895Y1315447D01*
G01X4938281Y1315447D01*
G01X4939091Y1312349D01*
G01X4946643Y1312349D01*
G01X4948577Y1309250D01*
G01X4954401Y1309250D01*
G01X4954401Y1311719D01*
G01X4957499Y1312529D01*
G01X4957499Y1324741D01*
G01X4954401Y1324741D01*
G01X4954401Y1327667D01*
G01X4948979Y1328684D01*
G01X4948979Y1330937D01*
G01X4945736Y1330937D01*
G01X4944963Y1333892D01*
G01X4942009Y1334665D01*
G01X4942009Y1336961D01*
G01X4936587Y1337978D01*
G01X4936587Y1340232D01*
G01X4933344Y1340232D01*
G01X4932534Y1343330D01*
G01X4929616Y1343330D01*
G01X4929616Y1346428D01*
G01X4925057Y1346428D01*
G01X4923033Y1349241D01*
G01X4920322Y1350252D01*
G01X4920322Y1352624D01*
G01X4917224Y1352624D01*
G01X4917224Y1355550D01*
G01X4911802Y1356567D01*
G01X4911802Y1358820D01*
G01X4908559Y1358820D01*
G01X4907749Y1361918D01*
G01X4905461Y1361918D01*
G01X4904689Y1364871D01*
G01X4899409Y1365861D01*
G01X4899409Y1368115D01*
G01X4896166Y1368115D01*
G01X4895394Y1371070D01*
G01X4892439Y1371842D01*
G01X4892439Y1374138D01*
G01X4887017Y1375156D01*
G01X4887017Y1377409D01*
G01X4884781Y1377409D01*
G01X4882757Y1380222D01*
G01X4880046Y1381233D01*
G01X4880046Y1383433D01*
G01X4874624Y1384450D01*
G01X4874624Y1386703D01*
G01X4872389Y1386703D01*
G01X4870365Y1389516D01*
G01X4867654Y1390527D01*
G01X4867654Y1392900D01*
G01X4864556Y1392900D01*
G01X4864556Y1395825D01*
G01X4859134Y1396842D01*
G01X4859134Y1399096D01*
G01X4855891Y1399096D01*
G01X4855118Y1402051D01*
G01X4852163Y1402823D01*
G01X4852163Y1405292D01*
G01X4849065Y1405292D01*
G01X4849065Y1408390D01*
G01X4844506Y1408390D01*
G01X4842481Y1411280D01*
G01X4837447Y1412386D01*
G01X4837447Y1414586D01*
G01X4828940Y1414586D01*
G01X4827006Y1417684D01*
G01X4824461Y1417684D01*
G01X4823651Y1414586D01*
G01X4817309Y1414586D01*
G01X4817309Y1412263D01*
G01X4815184Y1412263D01*
G01X4814193Y1406067D01*
G01X4811888Y1406067D01*
G01X4697257Y1406067D01*
G01X4697257Y1407761D01*
G01X4700355Y1408571D01*
G01X4700355Y1410859D01*
G01X4703454Y1411669D01*
G01X4703454Y1413957D01*
G01X4706552Y1414767D01*
G01X4706552Y1417684D01*
G01X4709650Y1417684D01*
G01X4709650Y1420783D01*
G01X4712748Y1420783D01*
G01X4712748Y1423881D01*
G01X4715846Y1423881D01*
G01X4715846Y1426979D01*
G01X4718944Y1426979D01*
G01X4718944Y1430077D01*
G01X4722042Y1430077D01*
G01X4722042Y1433175D01*
G01X4725140Y1433175D01*
G01X4725140Y1436273D01*
G01X4728238Y1436273D01*
G01X4728238Y1439371D01*
G01X4731337Y1439371D01*
G01X4731337Y1442469D01*
G01X4734435Y1442469D01*
G01X4734435Y1445568D01*
G01X4737533Y1445568D01*
G01X4737533Y1448666D01*
G01X4740631Y1448666D01*
G01X4740631Y1451764D01*
G01X4743729Y1451764D01*
G01X4743729Y1454862D01*
G01X4746827Y1454862D01*
G01X4746827Y1457960D01*
G01X4749925Y1457960D01*
G01X4749925Y1461058D01*
G01X4753023Y1461058D01*
G01X4753023Y1464156D01*
G01X4756122Y1464156D01*
G01X4756122Y1467254D01*
G01X4759220Y1467254D01*
G01X4889341Y1467254D01*
G01X4889341Y1458333D01*
G01X4892439Y1456398D01*
G01X4892439Y1451764D01*
G01X4894811Y1451764D01*
G01X4895822Y1449053D01*
G01X4898635Y1447029D01*
G01X4898635Y1442469D01*
G01X4901733Y1442469D01*
G01X4901733Y1439371D01*
G01X4904105Y1439371D01*
G01X4905116Y1436660D01*
G01X4907929Y1434636D01*
G01X4907929Y1430077D01*
G01X4911027Y1430077D01*
G01X4911027Y1426979D01*
G01X4914125Y1426979D01*
G01X4914125Y1423881D01*
G01X4916498Y1423881D01*
G01X4917508Y1421247D01*
G01X4923420Y1415812D01*
G01X4923420Y1411488D01*
G01X4926518Y1411488D01*
G01X4926518Y1408390D01*
G01X4929616Y1408390D01*
G01X4929616Y1405292D01*
G01X4932085Y1405292D01*
G01X4932895Y1402194D01*
G01X4935086Y1402194D01*
G01X4936097Y1399560D01*
G01X4942009Y1394125D01*
G01X4942009Y1392125D01*
G01X4944262Y1392125D01*
G01X4945279Y1386703D01*
G01X4948205Y1386703D01*
G01X4948205Y1383605D01*
G01X4951303Y1383605D01*
G01X4951303Y1380507D01*
G01X4954401Y1380507D01*
G01X4954401Y1377590D01*
G01X4957499Y1376779D01*
G01X4957499Y1374311D01*
G01X4959871Y1374311D01*
G01X4960843Y1371780D01*
G01X4969884Y1363080D01*
G01X4969892Y1358820D01*
G01X4972990Y1358820D01*
G01X4972990Y1355722D01*
G01X4977549Y1355722D01*
G01X4979573Y1352909D01*
G01X4982284Y1351898D01*
G01X4982284Y1349526D01*
G01X4990016Y1349526D01*
G01X4991951Y1346428D01*
G01X4991951Y1346428D01*
G01X5000873Y1346428D01*
G01X5000873Y1348800D01*
G01X5003351Y1349751D01*
G01X5007069Y1353469D01*
G01X5007069Y1361738D01*
G01X5003971Y1362548D01*
G01X5003971Y1368115D01*
G01X5000873Y1368115D01*
G01X5000873Y1371213D01*
G01X4998501Y1371213D01*
G01X4997489Y1373924D01*
G01X4994677Y1375948D01*
G01X4994677Y1380507D01*
G01X4991578Y1380507D01*
G01X4991578Y1383605D01*
G01X4989206Y1383605D01*
G01X4988195Y1386316D01*
G01X4985382Y1388340D01*
G01X4985382Y1392900D01*
G01X4983010Y1392900D01*
G01X4981999Y1395610D01*
G01X4979186Y1397635D01*
G01X4979186Y1402013D01*
G01X4976088Y1402823D01*
G01X4976088Y1407761D01*
G01X4979186Y1408571D01*
G01X4979186Y1411488D01*
G01X4982284Y1411488D01*
G01X4982284Y1414586D01*
G01X4985382Y1414586D01*
G01X4985382Y1417684D01*
G01X4988480Y1417684D01*
G01X4988480Y1420783D01*
G01X4991578Y1420783D01*
G01X4991578Y1423881D01*
G01X4994677Y1423881D01*
G01X4994677Y1426979D01*
G01X4997775Y1426979D01*
G01X4997775Y1430077D01*
G01X5000873Y1430077D01*
G01X5000873Y1433175D01*
G01X5003971Y1433175D01*
G01X5003971Y1436273D01*
G01X5006888Y1436273D01*
G01X5007698Y1439371D01*
G01X5014726Y1439371D01*
G01X5016751Y1436558D01*
G01X5019461Y1435547D01*
G01X5019461Y1433175D01*
G01X5022560Y1433175D01*
G01X5022560Y1430249D01*
G01X5027981Y1429232D01*
G01X5027981Y1426979D01*
G01X5030217Y1426979D01*
G01X5032241Y1424166D01*
G01X5034952Y1423155D01*
G01X5034952Y1420783D01*
G01X5038050Y1420783D01*
G01X5038050Y1417857D01*
G01X5043472Y1416840D01*
G01X5043472Y1414586D01*
G01X5046715Y1414586D01*
G01X5047525Y1411488D01*
G01X5055077Y1411488D01*
G01X5057011Y1408390D01*
G01X5068851Y1408390D01*
G01X5069661Y1411488D01*
G01X5075228Y1411488D01*
G01X5075228Y1416960D01*
G01X5078713Y1418361D01*
G01X5076183Y1418459D01*
G01X5075560Y1420783D01*
G01X5245624Y1420783D01*
G01X5245624Y1417684D01*
G01X5248722Y1417684D01*
G01X5248722Y1414586D01*
G01X5252445Y1414586D01*
G01X5280657Y1386800D01*
G01X5282801Y1385977D01*
G01X5282801Y1383605D01*
G01X5285270Y1383605D01*
G01X5286043Y1380650D01*
G01X5288998Y1379878D01*
G01X5288998Y1377409D01*
G01X5291466Y1377409D01*
G01X5292239Y1374454D01*
G01X5295194Y1373681D01*
G01X5295194Y1371393D01*
G01X5298292Y1370583D01*
G01X5298292Y1368115D01*
G01X5318817Y1368093D01*
G01X5322302Y1367159D01*
G01X5322302Y1365017D01*
G01X5328644Y1365017D01*
G01X5329416Y1362062D01*
G01X5332371Y1361289D01*
G01X5332371Y1343959D01*
G01X5329273Y1343149D01*
G01X5329273Y1340758D01*
G01X5358205Y1312349D01*
G01X5399368Y1312327D01*
G01X5402853Y1311393D01*
G01X5402853Y1309250D01*
G01X5409195Y1309250D01*
G01X5409967Y1306296D01*
G01X5412922Y1305523D01*
G01X5412922Y1288193D01*
G01X5409824Y1287383D01*
G01X5409824Y1283751D01*
G01X5406974Y1280980D01*
G01X5406000Y1278269D01*
G01X5403628Y1278269D01*
G01X5403628Y1275171D01*
G01X5400530Y1275171D01*
G01X5400530Y1268975D01*
G01X5403628Y1268975D01*
G01X5403628Y1265877D01*
G01X5406726Y1265877D01*
G01X5406726Y1262779D01*
G01X5410352Y1262779D01*
G01X5423048Y1250386D01*
G01X5428232Y1250386D01*
G01X5429042Y1253484D01*
G01X5437527Y1253484D01*
G01X5438337Y1256582D01*
G01X5479919Y1256561D01*
G01X5483404Y1255627D01*
G01X5483404Y1253484D01*
G01X5489746Y1253484D01*
G01X5490518Y1250529D01*
G01X5493473Y1249757D01*
G01X5493473Y1232427D01*
G01X5490375Y1231617D01*
G01X5490375Y1227985D01*
G01X5487525Y1225214D01*
G01X5486551Y1222503D01*
G01X5484179Y1222503D01*
G01X5484179Y1219405D01*
G01X5481081Y1219405D01*
G01X5481081Y1215593D01*
G01X5478231Y1212822D01*
G01X5477287Y1210190D01*
G01X5480163Y1209277D01*
G01X5481032Y1207013D01*
G01X5489746Y1207013D01*
G01X5490556Y1203914D01*
G01X5502138Y1203914D01*
G01X5502948Y1200816D01*
G01X5515950Y1200816D01*
G01X5518602Y1197718D01*
G01X5534538Y1197718D01*
G01X5537191Y1194620D01*
G01X5537191Y1194620D01*
G01X5589334Y1194620D01*
G01X5590144Y1197718D01*
G01X5598629Y1197718D01*
G01X5599439Y1200816D01*
G01X5604825Y1200816D01*
G01X5605635Y1203914D01*
G01X5611202Y1203914D01*
G01X5611202Y1207013D01*
G01X5614300Y1207013D01*
G01X5614300Y1212579D01*
G01X5617398Y1213389D01*
G01X5617398Y1224039D01*
G01X5620496Y1225974D01*
G01X5620496Y1231425D01*
G01X5617398Y1233360D01*
G01X5617398Y1247107D01*
G01X5614300Y1247918D01*
G01X5614300Y1253112D01*
G01X5611202Y1255046D01*
G01X5611202Y1262779D01*
G01X5608829Y1262779D01*
G01X5607818Y1265490D01*
G01X5605005Y1267514D01*
G01X5605005Y1271700D01*
G01X5601907Y1273635D01*
G01X5601907Y1278269D01*
G01X5598809Y1278269D01*
G01X5598809Y1280466D01*
G01X5592613Y1286915D01*
G01X5592613Y1290662D01*
G01X5589515Y1290662D01*
G01X5589515Y1293579D01*
G01X5586417Y1294389D01*
G01X5586417Y1296858D01*
G01X5584045Y1296858D01*
G01X5583156Y1299174D01*
G01X5560849Y1321480D01*
G01X5558534Y1322369D01*
G01X5558534Y1324560D01*
G01X5555436Y1325370D01*
G01X5555436Y1327839D01*
G01X5552337Y1327839D01*
G01X5552337Y1330937D01*
G01X5549239Y1330937D01*
G01X5549239Y1334035D01*
G01X5544680Y1334035D01*
G01X5542656Y1336848D01*
G01X5539945Y1337859D01*
G01X5539945Y1340232D01*
G01X5536847Y1340232D01*
G01X5536847Y1343330D01*
G01X5533035Y1343330D01*
G01X5530263Y1346180D01*
G01X5527553Y1347154D01*
G01X5527553Y1349526D01*
G01X5524454Y1349526D01*
G01X5524454Y1352624D01*
G01X5520642Y1352624D01*
G01X5517871Y1355474D01*
G01X5515160Y1356448D01*
G01X5515160Y1358820D01*
G01X5511348Y1358820D01*
G01X5508577Y1361670D01*
G01X5505866Y1362644D01*
G01X5505866Y1365017D01*
G01X5502053Y1365017D01*
G01X5499282Y1367867D01*
G01X5496571Y1368841D01*
G01X5496571Y1371213D01*
G01X5492684Y1371213D01*
G01X5490031Y1374311D01*
G01X5487277Y1374311D01*
G01X5487277Y1377409D01*
G01X5481710Y1377409D01*
G01X5480900Y1380507D01*
G01X5477269Y1380507D01*
G01X5474497Y1383357D01*
G01X5471786Y1384331D01*
G01X5471786Y1386703D01*
G01X5466220Y1386703D01*
G01X5465410Y1389801D01*
G01X5461702Y1389801D01*
G01X5459050Y1392900D01*
G01X5455582Y1392900D01*
G01X5452810Y1395750D01*
G01X5450100Y1396724D01*
G01X5450100Y1399096D01*
G01X5444533Y1399096D01*
G01X5443723Y1402194D01*
G01X5438337Y1402194D01*
G01X5437527Y1405292D01*
G01X5433073Y1405292D01*
G01X5431138Y1408390D01*
G01X5427623Y1408390D01*
G01X5424970Y1411488D01*
G01X5421427Y1411488D01*
G01X5418774Y1414586D01*
G01X5415231Y1414586D01*
G01X5412578Y1417684D01*
G01X5408288Y1417684D01*
G01X5406353Y1420783D01*
G01X5401159Y1420783D01*
G01X5400349Y1423881D01*
G01X5394963Y1423881D01*
G01X5394153Y1426979D01*
G01X5387348Y1426979D01*
G01X5384695Y1430077D01*
G01X5379472Y1430077D01*
G01X5378662Y1433175D01*
G01X5371857Y1433175D01*
G01X5369204Y1436273D01*
G01X5363982Y1436273D01*
G01X5363172Y1439371D01*
G01X5354688Y1439371D01*
G01X5353877Y1442469D01*
G01X5343974Y1442469D01*
G01X5341321Y1445568D01*
G01X5330835Y1445568D01*
G01X5328900Y1448666D01*
G01X5309148Y1448666D01*
G01X5307214Y1451764D01*
G01X5298665Y1451764D01*
G01X5296730Y1448666D01*
G01X5279884Y1448666D01*
G01X5279074Y1445568D01*
G01X5273880Y1445568D01*
G01X5271945Y1442469D01*
G01X5267311Y1442469D01*
G01X5267311Y1440097D01*
G01X5264625Y1439067D01*
G01X5248932Y1423220D01*
G01X5247996Y1420783D01*
G01X5245624Y1420783D01*
G01X5075560Y1420783D01*
G01X5075249Y1421944D01*
G01X5075228Y1426606D01*
G01X5072129Y1428541D01*
G01X5072129Y1433175D01*
G01X5069031Y1433175D01*
G01X5069031Y1436273D01*
G01X5066659Y1436273D01*
G01X5065732Y1438688D01*
G01X5050443Y1453819D01*
G01X5050443Y1457960D01*
G01X5047344Y1457960D01*
G01X5047344Y1461058D01*
G01X5044246Y1461058D01*
G01X5044246Y1464156D01*
G01X5041148Y1464156D01*
G01X5041148Y1467254D01*
G01X5038776Y1467254D01*
G01X5037766Y1469888D01*
G01X5031854Y1475323D01*
G01X5031854Y1479647D01*
G01X5028756Y1479647D01*
G01X5028756Y1482745D01*
G01X5026384Y1482745D01*
G01X5025373Y1485378D01*
G01X5019461Y1490814D01*
G01X5019461Y1495137D01*
G01X5016363Y1495137D01*
G01X5016363Y1498236D01*
G01X5013991Y1498236D01*
G01X5012980Y1500946D01*
G01X5010167Y1502971D01*
G01X5010167Y1507530D01*
G01X5007069Y1507530D01*
G01X5007069Y1510255D01*
G01X5003971Y1512190D01*
G01X5003971Y1514501D01*
G01X5001717Y1514501D01*
G01X5000700Y1519922D01*
G01X4998501Y1519922D01*
G01X4997489Y1522633D01*
G01X4994677Y1524657D01*
G01X4994677Y1529044D01*
G01X4989255Y1530061D01*
G01X4989255Y1532315D01*
G01X4983846Y1532315D01*
G01X4981897Y1535465D01*
G01X4981416Y1533192D01*
G01X4976795Y1532177D01*
G01X4973215Y1528597D01*
G01X4972264Y1526119D01*
G01X4969892Y1526119D01*
G01X4969892Y1498416D01*
G01X4972990Y1497606D01*
G01X4972990Y1489122D01*
G01X4976088Y1488312D01*
G01X4976088Y1483118D01*
G01X4979186Y1481183D01*
G01X4979186Y1478872D01*
G01X4981439Y1478872D01*
G01X4982430Y1473593D01*
G01X4985382Y1472821D01*
G01X4985382Y1469578D01*
G01X4987538Y1469578D01*
G01X4988510Y1465705D01*
G01X4987538Y1461833D01*
G01X4985382Y1461833D01*
G01X4985382Y1460075D01*
G01X4961581Y1436273D01*
G01X4955030Y1436273D01*
G01X4954220Y1439371D01*
G01X4951303Y1439371D01*
G01X4951303Y1442297D01*
G01X4945881Y1443314D01*
G01X4945881Y1445568D01*
G01X4943881Y1445568D01*
G01X4938446Y1451479D01*
G01X4935812Y1452490D01*
G01X4935812Y1454681D01*
G01X4932714Y1455491D01*
G01X4932714Y1457960D01*
G01X4929616Y1457960D01*
G01X4929616Y1461058D01*
G01X4925057Y1461058D01*
G01X4923033Y1463871D01*
G01X4920322Y1464882D01*
G01X4920322Y1467254D01*
G01X4917853Y1467254D01*
G01X4917081Y1470207D01*
G01X4911802Y1471197D01*
G01X4911802Y1473451D01*
G01X4906393Y1473451D01*
G01X4904459Y1476549D01*
G01X4900958Y1476549D01*
G01X4900958Y1474348D01*
G01X4896244Y1473313D01*
G01X4892664Y1469733D01*
G01X4891713Y1467254D01*
G01X4889341Y1467254D01*
G01X4759220Y1467254D01*
G01X4759220Y1469723D01*
G01X4762318Y1470533D01*
G01X4762318Y1472821D01*
G01X4765416Y1473631D01*
G01X4765416Y1475919D01*
G01X4768371Y1476692D01*
G01X4769143Y1479647D01*
G01X4774710Y1479647D01*
G01X4774710Y1482745D01*
G01X4777808Y1482745D01*
G01X4777808Y1485843D01*
G01X4780906Y1485843D01*
G01X4780906Y1488941D01*
G01X4784005Y1488941D01*
G01X4784005Y1492039D01*
G01X4787103Y1492039D01*
G01X4787103Y1494508D01*
G01X4790058Y1495281D01*
G01X4790830Y1498236D01*
G01X4796397Y1498236D01*
G01X4796397Y1501334D01*
G01X4799495Y1501334D01*
G01X4799495Y1504432D01*
G01X4802593Y1504432D01*
G01X4802593Y1507530D01*
G01X4805511Y1507530D01*
G01X4806321Y1510628D01*
G01X4811888Y1510628D01*
G01X4811888Y1513726D01*
G01X4814986Y1513726D01*
G01X4814986Y1516824D01*
G01X4818084Y1516824D01*
G01X4818084Y1519293D01*
G01X4821039Y1520066D01*
G01X4821811Y1523020D01*
G01X4827378Y1523020D01*
G01X4827378Y1526119D01*
G01X4830296Y1526119D01*
G01X4831106Y1529217D01*
G01X4836673Y1529217D01*
G01X4836673Y1532315D01*
G01X4839771Y1532315D01*
G01X4839771Y1534783D01*
G01X4842726Y1535556D01*
G01X4843498Y1538511D01*
G01X4849065Y1538511D01*
G01X4849065Y1541609D01*
G01X4851982Y1541609D01*
G01X4852793Y1544707D01*
G01X4858179Y1544707D01*
G01X4858989Y1547805D01*
G01X4864556Y1547805D01*
G01X4864556Y1550903D01*
G01X4867473Y1550903D01*
G01X4868283Y1554002D01*
G01X4873850Y1554002D01*
G01X4873850Y1557100D01*
G01X4880046Y1557100D01*
G01X4880046Y1560198D01*
G01X4882964Y1560198D01*
G01X4883774Y1563296D01*
G01X4889160Y1563296D01*
G01X4889970Y1566394D01*
G01X4895537Y1566394D01*
G01X4895537Y1569492D01*
G01X4901733Y1569492D01*
G01X4901733Y1572590D01*
G01X4907929Y1572590D01*
G01X4907929Y1575688D01*
G01X4914125Y1575688D01*
G01X4914125Y1578787D01*
G01X4920141Y1578787D01*
G01X4920951Y1581885D01*
G01X4926337Y1581885D01*
G01X4927147Y1584983D01*
G01X4935812Y1584983D01*
G01X4935812Y1588081D01*
G01X4941828Y1588081D01*
G01X4942638Y1591179D01*
G01X4951303Y1591179D01*
G01X4951303Y1594277D01*
G01X4960597Y1594277D01*
G01X4960597Y1597375D01*
G01X4969711Y1597375D01*
G01X4970521Y1600473D01*
G01X4982103Y1600473D01*
G01X4982914Y1603571D01*
G01X4997594Y1603571D01*
G01X4998404Y1606670D01*
G01X5052911Y1606670D01*
G01X5053721Y1603571D01*
G01X5056009Y1603571D01*
G01X5056820Y1600473D01*
G01X5059107Y1600473D01*
G01X5059918Y1597375D01*
G01X5062206Y1597375D01*
G01X5063016Y1594277D01*
G01X5065304Y1594277D01*
G01X5066114Y1591179D01*
G01X5068402Y1591179D01*
G01X5069212Y1588081D01*
G01X5071500Y1588081D01*
G01X5072310Y1584983D01*
G01X5074598Y1584983D01*
G01X5075408Y1581885D01*
G01X5077696Y1581885D01*
G01X5078506Y1578787D01*
G01X5080794Y1578787D01*
G01X5081604Y1575688D01*
G01X5083892Y1575688D01*
G01X5084703Y1572590D01*
G01X5086990Y1572590D01*
G01X5087801Y1569492D01*
G01X5090089Y1569492D01*
G01X5090899Y1566394D01*
G01X5093187Y1566394D01*
G01X5093997Y1563296D01*
G01X5096285Y1563296D01*
G01X5097095Y1560198D01*
G01X5099383Y1560198D01*
G01X5100193Y1557100D01*
G01X5103111Y1557100D01*
G01X5103111Y1554002D01*
G01X5106209Y1554002D01*
G01X5106209Y1550903D01*
G01X5109307Y1550903D01*
G01X5109307Y1547805D01*
G01X5112405Y1547805D01*
G01X5112405Y1544707D01*
G01X5115503Y1544707D01*
G01X5115503Y1541609D01*
G01X5118601Y1541609D01*
G01X5118601Y1538511D01*
G01X5121699Y1538511D01*
G01X5121699Y1535413D01*
G01X5124797Y1535413D01*
G01X5124797Y1532315D01*
G01X5127896Y1532315D01*
G01X5127896Y1529217D01*
G01X5130994Y1529217D01*
G01X5130994Y1526119D01*
G01X5134092Y1526119D01*
G01X5134092Y1523020D01*
G01X5137190Y1523020D01*
G01X5137190Y1519922D01*
G01X5140288Y1519922D01*
G01X5140288Y1516824D01*
G01X5143386Y1516824D01*
G01X5143386Y1513726D01*
G01X5146484Y1513726D01*
G01X5146484Y1510628D01*
G01X5152051Y1510628D01*
G01X5152861Y1507530D01*
G01X5155149Y1507530D01*
G01X5155959Y1504432D01*
G01X5158247Y1504432D01*
G01X5159057Y1501334D01*
G01X5161345Y1501334D01*
G01X5162155Y1498236D01*
G01X5164443Y1498236D01*
G01X5165254Y1495137D01*
G01X5167542Y1495137D01*
G01X5168352Y1492039D01*
G01X5170640Y1492039D01*
G01X5171450Y1488941D01*
G01X5173738Y1488941D01*
G01X5174548Y1485843D01*
G01X5177465Y1485843D01*
G01X5177465Y1482745D01*
G01X5180563Y1482745D01*
G01X5180563Y1479647D01*
G01X5183662Y1479647D01*
G01X5183662Y1476549D01*
G01X5186760Y1476549D01*
G01X5186760Y1473451D01*
G01X5189858Y1473451D01*
G01X5189858Y1470352D01*
G01X5192956Y1470352D01*
G01X5192956Y1467254D01*
G01X5196054Y1467254D01*
G01X5196054Y1464156D01*
G01X5199152Y1464156D01*
G01X5199152Y1461058D01*
G01X5202250Y1461058D01*
G01X5202250Y1457960D01*
G01X5205348Y1457960D01*
G01X5205348Y1454862D01*
G01X5208447Y1454862D01*
G01X5208447Y1451764D01*
G01X5211545Y1451764D01*
G01X5211545Y1448666D01*
G01X5217111Y1448666D01*
G01X5217884Y1445711D01*
G01X5220839Y1444938D01*
G01X5220839Y1442650D01*
G01X5223937Y1441840D01*
G01X5223937Y1439552D01*
G01X5227035Y1438742D01*
G01X5227035Y1448036D01*
G01X5230133Y1448846D01*
G01X5230133Y1457330D01*
G01X5233231Y1458141D01*
G01X5233231Y1466625D01*
G01X5236330Y1467435D01*
G01X5236330Y1473451D01*
G01X5239428Y1473451D01*
G01X5239428Y1482115D01*
G01X5242526Y1482926D01*
G01X5242526Y1488312D01*
G01X5245624Y1489122D01*
G01X5245624Y1494508D01*
G01X5248722Y1495318D01*
G01X5248722Y1500704D01*
G01X5251820Y1501514D01*
G01X5251820Y1506900D01*
G01X5254918Y1507711D01*
G01X5254918Y1510628D01*
G01X5258016Y1510628D01*
G01X5258016Y1516824D01*
G01X5261115Y1516824D01*
G01X5261115Y1523020D01*
G01X5264213Y1523020D01*
G01X5264213Y1528587D01*
G01X5267311Y1529397D01*
G01X5267311Y1534783D01*
G01X5270409Y1535594D01*
G01X5270409Y1538511D01*
G01X5273507Y1538511D01*
G01X5273507Y1544707D01*
G01X5276605Y1544707D01*
G01X5276605Y1550274D01*
G01X5279703Y1551084D01*
G01X5279703Y1554002D01*
G01X5282801Y1554002D01*
G01X5282801Y1560198D01*
G01X5285899Y1560198D01*
G01X5285899Y1565765D01*
G01X5288998Y1566575D01*
G01X5288998Y1571961D01*
G01X5292096Y1572771D01*
G01X5292096Y1575688D01*
G01X5295194Y1575688D01*
G01X5295194Y1581255D01*
G01X5298292Y1582065D01*
G01X5298292Y1587451D01*
G01X5301390Y1588262D01*
G01X5301390Y1594277D01*
G01X5304488Y1594277D01*
G01X5304488Y1600473D01*
G01X5307586Y1600473D01*
G01X5307586Y1609768D01*
G01X5310684Y1609768D01*
G01X5310684Y1619062D01*
G01X5313783Y1619062D01*
G01X5313783Y1630825D01*
G01X5316881Y1631635D01*
G01X5316881Y1646316D01*
G01X5319979Y1647126D01*
G01X5319979Y1664904D01*
G01X5323077Y1665714D01*
G01X5323077Y1695885D01*
G01X5326175Y1696696D01*
G01X5326175Y1789278D01*
G01X5323077Y1790088D01*
G01X5323077Y1803400D01*
G01X5347862Y1803400D01*
G01X5347862Y1783607D01*
G01X5350960Y1780954D01*
G01X5350960Y1701175D01*
G01X5347862Y1699240D01*
G01X5347862Y1664744D01*
G01X5344764Y1662091D01*
G01X5344764Y1643057D01*
G01X5341666Y1640405D01*
G01X5341666Y1627567D01*
G01X5338567Y1624914D01*
G01X5338567Y1615174D01*
G01X5335469Y1612522D01*
G01X5335469Y1605134D01*
G01X5332371Y1603199D01*
G01X5332371Y1596586D01*
G01X5329273Y1593933D01*
G01X5329273Y1587291D01*
G01X5326175Y1584639D01*
G01X5326175Y1581095D01*
G01X5323077Y1578442D01*
G01X5323077Y1574152D01*
G01X5319979Y1572218D01*
G01X5319979Y1568703D01*
G01X5316881Y1566050D01*
G01X5316881Y1562582D01*
G01X5314031Y1559811D01*
G01X5313057Y1557100D01*
G01X5310684Y1557100D01*
G01X5310684Y1552466D01*
G01X5307586Y1550531D01*
G01X5307586Y1547091D01*
G01X5304736Y1544320D01*
G01X5303762Y1541609D01*
G01X5301390Y1541609D01*
G01X5301390Y1536975D01*
G01X5298292Y1535040D01*
G01X5298292Y1531525D01*
G01X5295194Y1528872D01*
G01X5295194Y1526119D01*
G01X5292096Y1526119D01*
G01X5292096Y1520552D01*
G01X5288998Y1519742D01*
G01X5288998Y1515288D01*
G01X5285899Y1513353D01*
G01X5285899Y1509838D01*
G01X5282801Y1507186D01*
G01X5282801Y1504432D01*
G01X5279703Y1504432D01*
G01X5279703Y1498865D01*
G01X5276605Y1498055D01*
G01X5276605Y1492669D01*
G01X5273507Y1491859D01*
G01X5273507Y1486473D01*
G01X5270409Y1485662D01*
G01X5270409Y1480276D01*
G01X5267311Y1479466D01*
G01X5267311Y1474080D01*
G01X5264362Y1473309D01*
G01X5263784Y1467254D01*
G01X5267130Y1467254D01*
G01X5267940Y1470352D01*
G01X5276424Y1470352D01*
G01X5277235Y1473451D01*
G01X5333161Y1473451D01*
G01X5335814Y1470352D01*
G01X5346300Y1470352D01*
G01X5348234Y1467254D01*
G01X5357946Y1467254D01*
G01X5360599Y1464156D01*
G01X5367240Y1464156D01*
G01X5369893Y1461058D01*
G01X5376535Y1461058D01*
G01X5379187Y1457960D01*
G01X5384410Y1457960D01*
G01X5385220Y1454862D01*
G01X5392025Y1454862D01*
G01X5394678Y1451764D01*
G01X5399900Y1451764D01*
G01X5400710Y1448666D01*
G01X5407516Y1448666D01*
G01X5410168Y1445568D01*
G01X5413712Y1445568D01*
G01X5416365Y1442469D01*
G01X5420654Y1442469D01*
G01X5422589Y1439371D01*
G01X5426851Y1439371D01*
G01X5428785Y1436273D01*
G01X5433047Y1436273D01*
G01X5434982Y1433175D01*
G01X5439243Y1433175D01*
G01X5441178Y1430077D01*
G01X5445439Y1430077D01*
G01X5447374Y1426979D01*
G01X5450889Y1426979D01*
G01X5453542Y1423881D01*
G01X5457086Y1423881D01*
G01X5459738Y1420783D01*
G01X5462492Y1420783D01*
G01X5462492Y1417684D01*
G01X5468059Y1417684D01*
G01X5468869Y1414586D01*
G01X5474255Y1414586D01*
G01X5475065Y1411488D01*
G01X5478772Y1411488D01*
G01X5481425Y1408390D01*
G01X5484179Y1408390D01*
G01X5484179Y1405292D01*
G01X5489746Y1405292D01*
G01X5490556Y1402194D01*
G01X5494263Y1402194D01*
G01X5496916Y1399096D01*
G01X5499670Y1399096D01*
G01X5499670Y1395998D01*
G01X5505236Y1395998D01*
G01X5506046Y1392900D01*
G01X5509678Y1392900D01*
G01X5512449Y1390049D01*
G01X5515160Y1389076D01*
G01X5515160Y1386703D01*
G01X5518972Y1386703D01*
G01X5521744Y1383853D01*
G01X5524454Y1382879D01*
G01X5524454Y1380507D01*
G01X5528267Y1380507D01*
G01X5531038Y1377657D01*
G01X5533749Y1376683D01*
G01X5533749Y1374311D01*
G01X5536847Y1374311D01*
G01X5536847Y1371213D01*
G01X5541481Y1371213D01*
G01X5543416Y1368115D01*
G01X5546141Y1368115D01*
G01X5546141Y1365017D01*
G01X5549887Y1365017D01*
G01X5556133Y1359015D01*
G01X5558534Y1358094D01*
G01X5558534Y1355722D01*
G01X5561632Y1355722D01*
G01X5561632Y1352624D01*
G01X5565378Y1352624D01*
G01X5571624Y1346623D01*
G01X5574024Y1345702D01*
G01X5574024Y1343330D01*
G01X5576493Y1343330D01*
G01X5577303Y1340232D01*
G01X5580221Y1340232D01*
G01X5580221Y1337133D01*
G01X5583319Y1337133D01*
G01X5583319Y1334035D01*
G01X5586417Y1334035D01*
G01X5586417Y1330937D01*
G01X5589515Y1330937D01*
G01X5589515Y1327839D01*
G01X5592613Y1327839D01*
G01X5592613Y1324741D01*
G01X5595711Y1324741D01*
G01X5595711Y1321643D01*
G01X5598809Y1321643D01*
G01X5598809Y1318545D01*
G01X5601907Y1318545D01*
G01X5601907Y1315447D01*
G01X5604280Y1315447D01*
G01X5605290Y1312813D01*
G01X5611202Y1307378D01*
G01X5611202Y1303054D01*
G01X5614300Y1303054D01*
G01X5614300Y1299956D01*
G01X5616672Y1299956D01*
G01X5617683Y1297245D01*
G01X5620496Y1295221D01*
G01X5620496Y1290662D01*
G01X5623594Y1290662D01*
G01X5623594Y1287936D01*
G01X5626692Y1286001D01*
G01X5626692Y1281548D01*
G01X5629790Y1280738D01*
G01X5629790Y1275352D01*
G01X5632889Y1274542D01*
G01X5632889Y1269156D01*
G01X5635987Y1268345D01*
G01X5635987Y1263123D01*
G01X5639085Y1260470D01*
G01X5639085Y1250567D01*
G01X5642183Y1249757D01*
G01X5642183Y1219405D01*
G01X5645281Y1219405D01*
G01X5645281Y1221777D01*
G01X5647992Y1222751D01*
G01X5650763Y1225601D01*
G01X5654575Y1225601D01*
G01X5654575Y1227973D01*
G01X5657286Y1228985D01*
G01X5659310Y1231797D01*
G01X5663870Y1231797D01*
G01X5663870Y1234896D01*
G01X5666968Y1234896D01*
G01X5666968Y1237994D01*
G01X5670066Y1237994D01*
G01X5670066Y1241092D01*
G01X5672983Y1241092D01*
G01X5673794Y1244190D01*
G01X5676081Y1244190D01*
G01X5676892Y1247288D01*
G01X5679180Y1247288D01*
G01X5679990Y1250386D01*
G01X5682278Y1250386D01*
G01X5683088Y1253484D01*
G01X5685557Y1253484D01*
G01X5685557Y1256582D01*
G01X5688655Y1256582D01*
G01X5688655Y1259681D01*
G01X5691753Y1259681D01*
G01X5691753Y1263427D01*
G01X5697949Y1269876D01*
G01X5697949Y1272073D01*
G01X5701047Y1272073D01*
G01X5701047Y1275885D01*
G01X5703897Y1278657D01*
G01X5704871Y1281367D01*
G01X5707243Y1281367D01*
G01X5707243Y1285180D01*
G01X5710093Y1287951D01*
G01X5711067Y1290662D01*
G01X5713440Y1290662D01*
G01X5713440Y1296228D01*
G01X5716538Y1297039D01*
G01X5716538Y1301492D01*
G01X5719636Y1303427D01*
G01X5719636Y1307688D01*
G01X5722734Y1309623D01*
G01X5722734Y1313884D01*
G01X5725832Y1315819D01*
G01X5725832Y1321013D01*
G01X5728930Y1321824D01*
G01X5728930Y1328629D01*
G01X5732028Y1331281D01*
G01X5732028Y1336504D01*
G01X5735126Y1337314D01*
G01X5735126Y1345798D01*
G01X5738224Y1346608D01*
G01X5738224Y1357258D01*
G01X5741323Y1359193D01*
G01X5741323Y1372002D01*
G01X5744421Y1374655D01*
G01X5744421Y1388239D01*
G01X5747519Y1390174D01*
G01X5747519Y1412278D01*
G01X5750617Y1414931D01*
G01X5750617Y1444005D01*
G01X5753715Y1445940D01*
G01X5753715Y1515262D01*
G01X5756813Y1517197D01*
G01X5756813Y1566021D01*
G01X5753715Y1567956D01*
G01X5753715Y1655895D01*
G01X5750617Y1658548D01*
G01X5750617Y1708535D01*
G01X5747519Y1710470D01*
G01X5747519Y1748810D01*
G01X5744421Y1750745D01*
G01X5744421Y1782890D01*
G01X5741323Y1784824D01*
G01X5741323Y1803400D01*
G01X5766108Y1803400D01*
G01X5766108Y1783443D01*
G01X5769206Y1782633D01*
G01X5769206Y1749364D01*
G01X5772304Y1748553D01*
G01X5772304Y1705990D01*
G01X5775402Y1705180D01*
G01X5775402Y1653322D01*
G01X5778500Y1652512D01*
G01X5778500Y1446197D01*
G01X5775402Y1445387D01*
G01X5775402Y1412118D01*
G01X5772304Y1411308D01*
G01X5772304Y1387333D01*
G01X5769206Y1386523D01*
G01X5769206Y1368744D01*
G01X5766108Y1367934D01*
G01X5766108Y1353254D01*
G01X5763009Y1352443D01*
G01X5763009Y1340861D01*
G01X5759911Y1340051D01*
G01X5759911Y1331567D01*
G01X5756813Y1330757D01*
G01X5756813Y1322272D01*
G01X5753715Y1321462D01*
G01X5753715Y1315447D01*
G01X5750617Y1315447D01*
G01X5750617Y1306782D01*
G01X5747519Y1305972D01*
G01X5747519Y1300586D01*
G01X5744421Y1299775D01*
G01X5744421Y1294389D01*
G01X5741323Y1293579D01*
G01X5741323Y1288193D01*
G01X5738224Y1287383D01*
G01X5738224Y1281997D01*
G01X5735126Y1281187D01*
G01X5735126Y1278269D01*
G01X5732028Y1278269D01*
G01X5732028Y1272073D01*
G01X5728930Y1272073D01*
G01X5728930Y1266506D01*
G01X5725832Y1265696D01*
G01X5725832Y1262779D01*
G01X5722734Y1262779D01*
G01X5722734Y1257212D01*
G01X5719779Y1256439D01*
G01X5719006Y1253484D01*
G01X5716538Y1253484D01*
G01X5716538Y1250386D01*
G01X5713440Y1250386D01*
G01X5713440Y1247288D01*
G01X5710341Y1247288D01*
G01X5710341Y1241721D01*
G01X5707243Y1240911D01*
G01X5707243Y1238623D01*
G01X5704145Y1237813D01*
G01X5704145Y1234896D01*
G01X5701047Y1234896D01*
G01X5701047Y1231797D01*
G01X5697949Y1231797D01*
G01X5697949Y1228699D01*
G01X5694851Y1228699D01*
G01X5694851Y1225601D01*
G01X5691753Y1225601D01*
G01X5691753Y1222503D01*
G01X5688655Y1222503D01*
G01X5688655Y1220035D01*
G01X5685557Y1219224D01*
G01X5685557Y1216936D01*
G01X5682602Y1216164D01*
G01X5681829Y1213209D01*
G01X5676262Y1213209D01*
G01X5676262Y1210111D01*
G01X5673164Y1210111D01*
G01X5673164Y1207642D01*
G01X5670209Y1206869D01*
G01X5669436Y1203914D01*
G01X5663870Y1203914D01*
G01X5663870Y1200816D01*
G01X5660952Y1200816D01*
G01X5660142Y1197718D01*
G01X5654756Y1197718D01*
G01X5653946Y1194620D01*
G01X5648379Y1194620D01*
G01X5648379Y1191522D01*
G01X5642183Y1191522D01*
G01X5642183Y1188424D01*
G01X5635987Y1188424D01*
G01X5635987Y1185326D01*
G01X5629790Y1185326D01*
G01X5629790Y1182228D01*
G01X5623775Y1182228D01*
G01X5622965Y1179130D01*
G01X5614480Y1179130D01*
G01X5613670Y1176031D01*
G01X5605186Y1176031D01*
G01X5604376Y1172933D01*
G01X5592794Y1172933D01*
G01X5591983Y1169835D01*
G01X5534378Y1169835D01*
G01X5533568Y1172933D01*
G01X5512691Y1172933D01*
G01X5511881Y1176031D01*
G01X5499670Y1176031D01*
G01X5499670Y1179130D01*
G01X5487277Y1179130D01*
G01X5487277Y1176031D01*
G01X5481081Y1176031D01*
G01X5481081Y1172933D01*
G01X5484179Y1172933D01*
G01X5484179Y1151876D01*
G01X5481081Y1151066D01*
G01X5481081Y1142582D01*
G01X5477983Y1141771D01*
G01X5477983Y1138854D01*
G01X5474885Y1138854D01*
G01X5474885Y1133287D01*
G01X5471930Y1132515D01*
G01X5471157Y1129560D01*
G01X5465590Y1129560D01*
G01X5465590Y1126462D01*
G01X5462673Y1126462D01*
G01X5461863Y1123363D01*
G01X5450100Y1123363D01*
G01X5450100Y1120265D01*
G01X5432140Y1120265D01*
G01X5431330Y1123363D01*
G01X5419118Y1123363D01*
G01X5419118Y1126462D01*
G01X5410454Y1126462D01*
G01X5409643Y1129560D01*
G01X5406726Y1129560D01*
G01X5406726Y1132658D01*
G01X5400530Y1132658D01*
G01X5400530Y1135756D01*
G01X5397432Y1135756D01*
G01X5397432Y1138854D01*
G01X5394334Y1138854D01*
G01X5394334Y1141952D01*
G01X5391235Y1141952D01*
G01X5391235Y1145050D01*
G01X5388137Y1145050D01*
G01X5388137Y1147968D01*
G01X5385039Y1148778D01*
G01X5385039Y1154345D01*
G01X5381941Y1154345D01*
G01X5381941Y1160541D01*
G01X5378843Y1160541D01*
G01X5378843Y1166556D01*
G01X5375745Y1167367D01*
G01X5375745Y1179130D01*
G01X5369549Y1179130D01*
G01X5369549Y1176031D01*
G01X5351589Y1176031D01*
G01X5350779Y1179130D01*
G01X5338567Y1179130D01*
G01X5338567Y1182228D01*
G01X5329903Y1182228D01*
G01X5329092Y1185326D01*
G01X5326175Y1185326D01*
G01X5326175Y1188424D01*
G01X5319979Y1188424D01*
G01X5319979Y1191149D01*
G01X5397432Y1191149D01*
G01X5397432Y1185670D01*
G01X5400530Y1183017D01*
G01X5400530Y1173114D01*
G01X5403628Y1172304D01*
G01X5403628Y1166737D01*
G01X5406726Y1166737D01*
G01X5406726Y1164557D01*
G01X5416938Y1154345D01*
G01X5419118Y1154345D01*
G01X5419118Y1151246D01*
G01X5424685Y1151246D01*
G01X5425495Y1148148D01*
G01X5425495Y1148148D01*
G01X5433047Y1148148D01*
G01X5434982Y1145050D01*
G01X5446821Y1145050D01*
G01X5447631Y1148148D01*
G01X5453198Y1148148D01*
G01X5453198Y1151246D01*
G01X5456296Y1151246D01*
G01X5456296Y1156813D01*
G01X5459394Y1157623D01*
G01X5459394Y1165892D01*
G01X5455589Y1169697D01*
G01X5450874Y1170733D01*
G01X5450874Y1172933D01*
G01X5447002Y1172933D01*
G01X5447002Y1176031D01*
G01X5443903Y1176031D01*
G01X5443903Y1178757D01*
G01X5440805Y1180692D01*
G01X5440826Y1199655D01*
G01X5441760Y1203140D01*
G01X5443903Y1203140D01*
G01X5443903Y1209481D01*
G01X5447002Y1210291D01*
G01X5447002Y1214670D01*
G01X5449814Y1216694D01*
G01X5450826Y1219405D01*
G01X5453198Y1219405D01*
G01X5453198Y1223964D01*
G01X5456011Y1225989D01*
G01X5457022Y1228699D01*
G01X5459222Y1228699D01*
G01X5460219Y1234017D01*
G01X5462879Y1234716D01*
G01X5458619Y1234896D01*
G01X5458619Y1232753D01*
G01X5455134Y1231819D01*
G01X5443129Y1231797D01*
G01X5443129Y1229655D01*
G01X5439643Y1228721D01*
G01X5434982Y1228699D01*
G01X5433047Y1225601D01*
G01X5425315Y1225601D01*
G01X5425315Y1223229D01*
G01X5422604Y1222218D01*
G01X5420580Y1219405D01*
G01X5416938Y1219405D01*
G01X5406906Y1209372D01*
G01X5406000Y1207013D01*
G01X5403628Y1207013D01*
G01X5403628Y1203125D01*
G01X5400530Y1200472D01*
G01X5400530Y1193084D01*
G01X5397432Y1191149D01*
G01X5319979Y1191149D01*
G01X5319979Y1191522D01*
G01X5316881Y1191522D01*
G01X5316881Y1194620D01*
G01X5313783Y1194620D01*
G01X5313783Y1197718D01*
G01X5310684Y1197718D01*
G01X5310684Y1200816D01*
G01X5307586Y1200816D01*
G01X5307586Y1203734D01*
G01X5304488Y1204544D01*
G01X5304488Y1210111D01*
G01X5301390Y1210111D01*
G01X5301390Y1216307D01*
G01X5298292Y1216307D01*
G01X5298292Y1222322D01*
G01X5295194Y1223133D01*
G01X5295194Y1234896D01*
G01X5288998Y1234896D01*
G01X5288998Y1231797D01*
G01X5271038Y1231797D01*
G01X5270228Y1234896D01*
G01X5258016Y1234896D01*
G01X5258016Y1237994D01*
G01X5249352Y1237994D01*
G01X5248541Y1241092D01*
G01X5245624Y1241092D01*
G01X5245624Y1244190D01*
G01X5239428Y1244190D01*
G01X5239428Y1246915D01*
G01X5316881Y1246915D01*
G01X5316881Y1241436D01*
G01X5319979Y1238783D01*
G01X5319979Y1228880D01*
G01X5323077Y1228070D01*
G01X5323077Y1222503D01*
G01X5326175Y1222503D01*
G01X5326175Y1220323D01*
G01X5336387Y1210111D01*
G01X5338567Y1210111D01*
G01X5338567Y1207013D01*
G01X5344134Y1207013D01*
G01X5344944Y1203914D01*
G01X5344944Y1203914D01*
G01X5352496Y1203914D01*
G01X5354431Y1200816D01*
G01X5366270Y1200816D01*
G01X5367080Y1203914D01*
G01X5372647Y1203914D01*
G01X5372647Y1207013D01*
G01X5375745Y1207013D01*
G01X5375745Y1212579D01*
G01X5378843Y1213389D01*
G01X5378843Y1221658D01*
G01X5375038Y1225463D01*
G01X5370323Y1226499D01*
G01X5370323Y1228699D01*
G01X5366450Y1228699D01*
G01X5366450Y1231797D01*
G01X5363352Y1231797D01*
G01X5363352Y1234523D01*
G01X5360254Y1236458D01*
G01X5360275Y1255421D01*
G01X5361209Y1258906D01*
G01X5363352Y1258906D01*
G01X5363352Y1265247D01*
G01X5366450Y1266057D01*
G01X5366450Y1270436D01*
G01X5369263Y1272460D01*
G01X5370275Y1275171D01*
G01X5372647Y1275171D01*
G01X5372647Y1279730D01*
G01X5375460Y1281755D01*
G01X5376471Y1284465D01*
G01X5378671Y1284465D01*
G01X5379668Y1289783D01*
G01X5382328Y1290482D01*
G01X5378068Y1290662D01*
G01X5378068Y1288519D01*
G01X5374583Y1287585D01*
G01X5362578Y1287564D01*
G01X5362578Y1285421D01*
G01X5359092Y1284487D01*
G01X5354431Y1284465D01*
G01X5352496Y1281367D01*
G01X5344764Y1281367D01*
G01X5344764Y1278995D01*
G01X5342053Y1277984D01*
G01X5340029Y1275171D01*
G01X5336387Y1275171D01*
G01X5326355Y1265138D01*
G01X5325449Y1262779D01*
G01X5323077Y1262779D01*
G01X5323077Y1258891D01*
G01X5319979Y1256238D01*
G01X5319979Y1248850D01*
G01X5316881Y1246915D01*
G01X5239428Y1246915D01*
G01X5239428Y1247288D01*
G01X5236330Y1247288D01*
G01X5236330Y1250386D01*
G01X5233231Y1250386D01*
G01X5233231Y1253484D01*
G01X5230133Y1253484D01*
G01X5230133Y1256582D01*
G01X5227035Y1256582D01*
G01X5227035Y1259500D01*
G01X5223937Y1260310D01*
G01X5223937Y1265877D01*
G01X5220839Y1265877D01*
G01X5220839Y1272073D01*
G01X5217741Y1272073D01*
G01X5217741Y1278089D01*
G01X5214643Y1278899D01*
G01X5214643Y1302682D01*
G01X5236330Y1302682D01*
G01X5236330Y1297202D01*
G01X5239428Y1294550D01*
G01X5239428Y1284646D01*
G01X5242526Y1283836D01*
G01X5242526Y1278269D01*
G01X5245624Y1278269D01*
G01X5245624Y1276089D01*
G01X5255836Y1265877D01*
G01X5258016Y1265877D01*
G01X5258016Y1262779D01*
G01X5263583Y1262779D01*
G01X5264393Y1259681D01*
G01X5264393Y1259681D01*
G01X5271945Y1259681D01*
G01X5273880Y1256582D01*
G01X5285719Y1256582D01*
G01X5286529Y1259681D01*
G01X5292096Y1259681D01*
G01X5292096Y1262779D01*
G01X5295194Y1262779D01*
G01X5295194Y1268345D01*
G01X5298292Y1269156D01*
G01X5298292Y1277424D01*
G01X5294487Y1281229D01*
G01X5289772Y1282265D01*
G01X5289772Y1284465D01*
G01X5285899Y1284465D01*
G01X5285899Y1287564D01*
G01X5282801Y1287564D01*
G01X5282801Y1290289D01*
G01X5279703Y1292224D01*
G01X5279718Y1305808D01*
G01X5304488Y1305808D01*
G01X5304488Y1303054D01*
G01X5310055Y1303054D01*
G01X5310865Y1299956D01*
G01X5313783Y1299956D01*
G01X5313783Y1296858D01*
G01X5313783Y1296858D01*
G01X5316881Y1296858D01*
G01X5316881Y1293760D01*
G01X5319606Y1293760D01*
G01X5321541Y1296858D01*
G01X5325802Y1296858D01*
G01X5327737Y1299956D01*
G01X5329903Y1299956D01*
G01X5329092Y1303054D01*
G01X5326804Y1303054D01*
G01X5325994Y1306152D01*
G01X5323077Y1306152D01*
G01X5323077Y1309250D01*
G01X5319979Y1309250D01*
G01X5319979Y1312349D01*
G01X5316881Y1312349D01*
G01X5316881Y1315447D01*
G01X5313783Y1315447D01*
G01X5313783Y1318545D01*
G01X5310684Y1318545D01*
G01X5310684Y1313911D01*
G01X5307586Y1311976D01*
G01X5307586Y1308461D01*
G01X5304488Y1305808D01*
G01X5279718Y1305808D01*
G01X5279724Y1311187D01*
G01X5280658Y1314672D01*
G01X5282801Y1314672D01*
G01X5282801Y1321013D01*
G01X5285899Y1321824D01*
G01X5285899Y1326202D01*
G01X5288712Y1328226D01*
G01X5289723Y1330937D01*
G01X5292096Y1330937D01*
G01X5292096Y1335497D01*
G01X5294909Y1337521D01*
G01X5295920Y1340232D01*
G01X5298120Y1340232D01*
G01X5299117Y1345549D01*
G01X5301777Y1346248D01*
G01X5297517Y1346428D01*
G01X5297517Y1344285D01*
G01X5294032Y1343351D01*
G01X5282027Y1343330D01*
G01X5282027Y1341187D01*
G01X5278541Y1340253D01*
G01X5273880Y1340232D01*
G01X5271945Y1337133D01*
G01X5264213Y1337133D01*
G01X5264213Y1334761D01*
G01X5261502Y1333750D01*
G01X5259478Y1330937D01*
G01X5255836Y1330937D01*
G01X5245804Y1320905D01*
G01X5244898Y1318545D01*
G01X5242526Y1318545D01*
G01X5242526Y1314657D01*
G01X5239428Y1312004D01*
G01X5239428Y1304616D01*
G01X5236330Y1302682D01*
G01X5214643Y1302682D01*
G01X5214643Y1321013D01*
G01X5217741Y1321824D01*
G01X5217741Y1327839D01*
G01X5220839Y1327839D01*
G01X5220839Y1334035D01*
G01X5217741Y1334035D01*
G01X5217741Y1340051D01*
G01X5214643Y1340861D01*
G01X5214643Y1349345D01*
G01X5211545Y1350155D01*
G01X5211545Y1367934D01*
G01X5208447Y1368744D01*
G01X5208447Y1386074D01*
G01X5210220Y1386538D01*
G01X5233231Y1386538D01*
G01X5233231Y1371557D01*
G01X5236330Y1368904D01*
G01X5236330Y1355903D01*
G01X5236330Y1355903D01*
G01X5239428Y1355093D01*
G01X5239428Y1350765D01*
G01X5241287Y1352624D01*
G01X5245251Y1352624D01*
G01X5247186Y1355722D01*
G01X5251640Y1355722D01*
G01X5252450Y1358820D01*
G01X5257644Y1358820D01*
G01X5259522Y1361827D01*
G01X5265933Y1362306D01*
G01X5248002Y1380321D01*
G01X5245624Y1381233D01*
G01X5245624Y1383425D01*
G01X5242526Y1384235D01*
G01X5242526Y1386523D01*
G01X5239428Y1387333D01*
G01X5239428Y1389688D01*
G01X5236717Y1390240D01*
G01X5235592Y1387444D01*
G01X5233231Y1386538D01*
G01X5210220Y1386538D01*
G01X5211545Y1386884D01*
G01X5211545Y1395998D01*
G01X5205529Y1395998D01*
G01X5204719Y1392900D01*
G01X5196054Y1392900D01*
G01X5196054Y1389801D01*
G01X5189858Y1389801D01*
G01X5189858Y1386703D01*
G01X5183842Y1386703D01*
G01X5183032Y1383605D01*
G01X5177646Y1383605D01*
G01X5176836Y1380507D01*
G01X5171450Y1380507D01*
G01X5170640Y1377409D01*
G01X5165073Y1377409D01*
G01X5165073Y1374311D01*
G01X5158877Y1374311D01*
G01X5158877Y1371213D01*
G01X5155959Y1371213D01*
G01X5155149Y1368115D01*
G01X5149763Y1368115D01*
G01X5148953Y1365017D01*
G01X5143386Y1365017D01*
G01X5143386Y1361918D01*
G01X5140469Y1361918D01*
G01X5139658Y1358820D01*
G01X5134272Y1358820D01*
G01X5133462Y1355722D01*
G01X5127896Y1355722D01*
G01X5127896Y1352624D01*
G01X5124978Y1352624D01*
G01X5124168Y1349526D01*
G01X5118601Y1349526D01*
G01X5118601Y1346428D01*
G01X5115684Y1346428D01*
G01X5114874Y1343330D01*
G01X5109307Y1343330D01*
G01X5109307Y1340232D01*
G01X5106209Y1340232D01*
G01X5106209Y1337133D01*
G01X5103291Y1337133D01*
G01X5102481Y1334035D01*
G01X5096914Y1334035D01*
G01X5096914Y1330937D01*
G01X5093997Y1330937D01*
G01X5093187Y1327839D01*
G01X5090899Y1327839D01*
G01X5090089Y1324741D01*
G01X5084522Y1324741D01*
G01X5084522Y1321643D01*
G01X5081604Y1321643D01*
G01X5080794Y1318545D01*
G01X5078506Y1318545D01*
G01X5077696Y1315447D01*
G01X5072129Y1315447D01*
G01X5072129Y1312349D01*
G01X5069212Y1312349D01*
G01X5068402Y1309250D01*
G01X5066114Y1309250D01*
G01X5065304Y1306152D01*
G01X5059737Y1306152D01*
G01X5059737Y1303054D01*
G01X5056639Y1303054D01*
G01X5056639Y1299956D01*
G01X5053721Y1299956D01*
G01X5052911Y1296858D01*
G01X5050623Y1296858D01*
G01X5049813Y1293760D01*
G01X5044246Y1293760D01*
G01X5044246Y1290662D01*
G01X5041148Y1290662D01*
G01X5041148Y1287564D01*
G01X5038231Y1287564D01*
G01X5037421Y1284465D01*
G01X5035133Y1284465D01*
G01X5034323Y1281367D01*
G01X5028756Y1281367D01*
G01X5028756Y1278269D01*
G01X5025658Y1278269D01*
G01X5025658Y1275171D01*
G01X5022740Y1275171D01*
G01X5021930Y1272073D01*
G01X5019642Y1272073D01*
G01X5018832Y1268975D01*
G01X5013265Y1268975D01*
G01X5013265Y1265877D01*
G01X5010167Y1265877D01*
G01X5010167Y1262779D01*
G01X5007069Y1262779D01*
G01X5007069Y1259681D01*
G01X5004152Y1259681D01*
G01X5003341Y1256582D01*
G01X5001053Y1256582D01*
G01X5000243Y1253484D01*
G01X4994677Y1253484D01*
G01X4994677Y1250386D01*
G01X4991578Y1250386D01*
G01X4991578Y1247288D01*
G01X4988480Y1247288D01*
G01X4988480Y1244190D01*
G01X4985563Y1244190D01*
G01X4984753Y1241092D01*
G01X4982465Y1241092D01*
G01X4981655Y1237994D01*
G01X4976088Y1237994D01*
G01X4976088Y1234896D01*
G01X4972990Y1234896D01*
G01X4972990Y1231797D01*
G01X4969892Y1231797D01*
G01X4969892Y1228699D01*
G01X4966793Y1228699D01*
G01X4966793Y1225601D01*
G01X4963695Y1225601D01*
G01X4963695Y1223133D01*
G01X4960740Y1222360D01*
G01X4959968Y1219405D01*
G01X4954401Y1219405D01*
G01X4954401Y1216307D01*
G01X4951303Y1216307D01*
G01X4951303Y1213209D01*
G01X4948205Y1213209D01*
G01X4948205Y1210111D01*
G01X4945107Y1210111D01*
G01X4945107Y1207013D01*
G01X4942009Y1207013D01*
G01X4942009Y1204544D01*
G01X4938910Y1203734D01*
G01X4938910Y1201446D01*
G01X4935956Y1200673D01*
G01X4935183Y1197718D01*
G01X4929616Y1197718D01*
G01X4929616Y1194620D01*
G01X4926518Y1194620D01*
G01X4926518Y1191522D01*
G01X4923420Y1191522D01*
G01X4923420Y1188424D01*
G01X4920322Y1188424D01*
G01X4920322Y1185326D01*
G01X4917224Y1185326D01*
G01X4917224Y1182857D01*
G01X4914269Y1182084D01*
G01X4913496Y1179130D01*
G01X4907929Y1179130D01*
G01X4907929Y1176031D01*
G01X4904831Y1176031D01*
G01X4904831Y1172933D01*
G01X4901733Y1172933D01*
G01X4901733Y1169835D01*
G01X4898635Y1169835D01*
G01X4898635Y1166737D01*
G01X4895537Y1166737D01*
G01X4895537Y1164268D01*
G01X4892582Y1163496D01*
G01X4891809Y1160541D01*
G01X4886242Y1160541D01*
G01X4886242Y1157443D01*
G01X4883144Y1157443D01*
G01X4883144Y1154345D01*
G01X4880046Y1154345D01*
G01X4880046Y1151246D01*
G01X4876948Y1151246D01*
G01X4876948Y1148778D01*
G01X4873993Y1148005D01*
G01X4873220Y1145050D01*
G01X4867654Y1145050D01*
G01X4867654Y1141952D01*
G01X4864556Y1141952D01*
G01X4864556Y1138854D01*
G01X4861457Y1138854D01*
G01X4861457Y1135756D01*
G01X4858540Y1135756D01*
G01X4857730Y1132658D01*
G01X4852163Y1132658D01*
G01X4852163Y1129560D01*
G01X4849065Y1129560D01*
G01X4849065Y1126462D01*
G01X4845967Y1126462D01*
G01X4845967Y1123363D01*
G01X4843049Y1123363D01*
G01X4842239Y1120265D01*
G01X4836673Y1120265D01*
G01X4836673Y1117167D01*
G01X4833574Y1117167D01*
G01X4833574Y1114069D01*
G01X4830657Y1114069D01*
G01X4829847Y1110971D01*
G01X4824280Y1110971D01*
G01X4824280Y1107873D01*
G01X4821182Y1107873D01*
G01X4821182Y1104775D01*
G01X4818265Y1104775D01*
G01X4817454Y1101677D01*
G01X4811888Y1101677D01*
G01X4811888Y1098578D01*
G01X4808790Y1098578D01*
G01X4808790Y1095480D01*
G01X4805872Y1095480D01*
G01X4805062Y1092382D01*
G01X4799495Y1092382D01*
G01X4799495Y1089284D01*
G01X4796578Y1089284D01*
G01X4795768Y1086186D01*
G01X4790201Y1086186D01*
G01X4790201Y1083088D01*
G01X4787283Y1083088D01*
G01X4786473Y1079990D01*
G01X4780906Y1079990D01*
G01X4780906Y1076892D01*
G01X4777989Y1076892D01*
G01X4777179Y1073794D01*
G01X4771612Y1073794D01*
G01X4771612Y1070695D01*
G01X4768695Y1070695D01*
G01X4767884Y1067597D01*
G01X4762318Y1067597D01*
G01X4762318Y1064499D01*
G01X4759400Y1064499D01*
G01X4758590Y1061401D01*
G01X4753023Y1061401D01*
G01X4753023Y1058303D01*
G01X4750106Y1058303D01*
G01X4749296Y1055205D01*
G01X4743729Y1055205D01*
G01X4743729Y1052107D01*
G01X4737533Y1052107D01*
G01X4737533Y1049009D01*
G01X4734615Y1049009D01*
G01X4733805Y1045910D01*
G01X4728238Y1045910D01*
G01X4728238Y1042812D01*
G01X4722042Y1042812D01*
G01X4722042Y1039714D01*
G01X4719125Y1039714D01*
G01X4718315Y1036616D01*
G01X4712748Y1036616D01*
G01X4712748Y1033518D01*
G01X4706552Y1033518D01*
G01X4706552Y1030420D01*
G01X4700355Y1030420D01*
G01X4700355Y1027322D01*
G01X4697438Y1027322D01*
G01X4696628Y1024224D01*
G01X4691242Y1024224D01*
G01X4690432Y1021126D01*
G01X4685046Y1021126D01*
G01X4684235Y1018027D01*
G01X4678669Y1018027D01*
G01X4678669Y1014929D01*
G01X4672472Y1014929D01*
G01X4672472Y1011831D01*
G01X4666276Y1011831D01*
G01X4666276Y1008733D01*
G01X4660080Y1008733D01*
G01X4660080Y1005635D01*
G01X4653884Y1005635D01*
G01X4653884Y1002537D01*
G01X4647687Y1002537D01*
G01X4647687Y999439D01*
G01X4641491Y999439D01*
G01X4641491Y996341D01*
G01X4635295Y996341D01*
G01X4635295Y993243D01*
G01X4629099Y993243D01*
G01X4629099Y990144D01*
G01X4623083Y990144D01*
G01X4622273Y987046D01*
G01X4616887Y987046D01*
G01X4616077Y983948D01*
G01X4610691Y983948D01*
G01X4609881Y980850D01*
G01X4601216Y980850D01*
G01X4601216Y977752D01*
G01X4595200Y977752D01*
G01X4594390Y974654D01*
G01X4585725Y974654D01*
G01X4585725Y971556D01*
G01X4576431Y971556D01*
G01X4576431Y968458D01*
G01X4567317Y968458D01*
G01X4566507Y965359D01*
G01X4554925Y965359D01*
G01X4554114Y962261D01*
G01X4539253Y962261D01*
G01X4539253Y959163D01*
G01X4520665Y959163D01*
G01X4520665Y956065D01*
G01X4499159Y956065D01*
G01X4498348Y952967D01*
G37*
G36*
G01X4300311Y1024611D02*
G01X4267257Y1024192D01*
G01X4266438Y1027322D01*
G01X4261052Y1027322D01*
G01X4260280Y1030277D01*
G01X4257325Y1031049D01*
G01X4257325Y1036435D01*
G01X4254227Y1037246D01*
G01X4254227Y1048379D01*
G01X4257325Y1049189D01*
G01X4257341Y1053269D01*
G01X4262524Y1058303D01*
G01X4270492Y1058303D01*
G01X4270492Y1060446D01*
G01X4273977Y1061380D01*
G01X4291017Y1061221D01*
G01X4293569Y1060544D01*
G01X4294481Y1057141D01*
G01X4294502Y1052287D01*
G01X4297600Y1051477D01*
G01X4297600Y1036989D01*
G01X4300768Y1035011D01*
G01X4300311Y1024611D01*
G37*
G36*
G01X4291383Y1091220D02*
G01X4291404Y1075652D01*
G01X4289545Y1073794D01*
G01X4270879Y1073815D01*
G01X4267394Y1074749D01*
G01X4267394Y1076892D01*
G01X4261052Y1076892D01*
G01X4260242Y1079990D01*
G01X4257325Y1079990D01*
G01X4257325Y1083088D01*
G01X4254227Y1083088D01*
G01X4254227Y1099818D01*
G01X4256086Y1101677D01*
G01X4260242Y1101677D01*
G01X4261052Y1104775D01*
G01X4278639Y1104775D01*
G01X4280574Y1107873D01*
G01X4287273Y1107873D01*
G01X4288306Y1106840D01*
G01X4288306Y1094706D01*
G01X4290449Y1094706D01*
G01X4291383Y1091220D01*
G37*
G36*
G01X4863781Y1331712D02*
G01X4859204Y1331712D01*
G01X4858187Y1337133D01*
G01X4855987Y1337133D01*
G01X4854976Y1339844D01*
G01X4852163Y1341868D01*
G01X4852163Y1346247D01*
G01X4849065Y1347057D01*
G01X4849065Y1352443D01*
G01X4845967Y1353254D01*
G01X4845967Y1358640D01*
G01X4842869Y1359450D01*
G01X4842869Y1364836D01*
G01X4839771Y1365646D01*
G01X4839771Y1371032D01*
G01X4836602Y1371861D01*
G01X4837060Y1383218D01*
G01X4847381Y1383673D01*
G01X4849452Y1380715D01*
G01X4854487Y1379609D01*
G01X4854487Y1377409D01*
G01X4857730Y1377409D01*
G01X4858540Y1374311D01*
G01X4862919Y1374311D01*
G01X4864943Y1371421D01*
G01X4869977Y1370315D01*
G01X4869977Y1368115D01*
G01X4873220Y1368115D01*
G01X4874031Y1365017D01*
G01X4878484Y1365017D01*
G01X4880419Y1361918D01*
G01X4883144Y1361918D01*
G01X4883144Y1358820D01*
G01X4888711Y1358820D01*
G01X4889484Y1355865D01*
G01X4892439Y1355093D01*
G01X4892439Y1350252D01*
G01X4889728Y1349241D01*
G01X4887704Y1346428D01*
G01X4883144Y1346428D01*
G01X4883144Y1343330D01*
G01X4880419Y1343330D01*
G01X4878484Y1340232D01*
G01X4873850Y1340232D01*
G01X4873850Y1337133D01*
G01X4871124Y1337133D01*
G01X4869190Y1334035D01*
G01X4863781Y1334035D01*
G01X4863781Y1331712D01*
G37*
G04 Image End*

G04 Text Start*
G54D10*
G01X3634740Y1084580D02*
G01X3634740Y855980D01*
G01X3619500Y810260D01*
G01X3589020Y779780D01*
G01X3543300Y764540D01*
G01X3512820Y764540D01*
G01X3467100Y779780D01*
G01X3436620Y810260D01*
G01X3421380Y855980D01*
G01X3421380Y1084580D01*
G01X3114548Y1038860D02*
G01X3145028Y1069340D01*
G01X3190748Y1084580D01*
G01X3251708Y1084580D01*
G01X3297428Y1069340D01*
G01X3327908Y1038860D01*
G01X3327908Y1008380D01*
G01X3312668Y977900D01*
G01X3297428Y962660D01*
G01X3266948Y947420D01*
G01X3175508Y916940D01*
G01X3145028Y901700D01*
G01X3129788Y886460D01*
G01X3114548Y855980D01*
G01X3114548Y810260D01*
G01X3145028Y779780D01*
G01X3190748Y764540D01*
G01X3251708Y764540D01*
G01X3297428Y779780D01*
G01X3327908Y810260D01*
G01X3021076Y1084580D02*
G01X3021076Y764540D01*
G01X3021076Y1084580D02*
G01X2883916Y1084580D01*
G01X2838196Y1069340D01*
G01X2822956Y1054100D01*
G01X2807716Y1023620D01*
G01X2807716Y993140D01*
G01X2822956Y962660D01*
G01X2838196Y947420D01*
G01X2883916Y932180D01*
G01X3021076Y932180D02*
G01X2883916Y932180D01*
G01X2838196Y916940D01*
G01X2822956Y901700D01*
G01X2807716Y871220D01*
G01X2807716Y825500D01*
G01X2822956Y795020D01*
G01X2838196Y779780D01*
G01X2883916Y764540D01*
G01X3021076Y764540D01*
G01X2372868Y1084580D02*
G01X2372868Y764540D01*
G01X2372868Y1084580D02*
G01X2250948Y764540D01*
G01X2129028Y1084580D02*
G01X2250948Y764540D01*
G01X2129028Y1084580D02*
G01X2129028Y764540D01*
G01X1852676Y977900D02*
G01X1852676Y764540D01*
G01X1852676Y932180D02*
G01X1883156Y962660D01*
G01X1913636Y977900D01*
G01X1959356Y977900D01*
G01X1989836Y962660D01*
G01X2020316Y932180D01*
G01X2035556Y886460D01*
G01X2035556Y855980D01*
G01X2020316Y810260D01*
G01X1989836Y779780D01*
G01X1959356Y764540D01*
G01X1913636Y764540D01*
G01X1883156Y779780D01*
G01X1852676Y810260D01*
G01X1576324Y932180D02*
G01X1606804Y962660D01*
G01X1637284Y977900D01*
G01X1683004Y977900D01*
G01X1713484Y962660D01*
G01X1743964Y932180D01*
G01X1759204Y886460D01*
G01X1759204Y855980D01*
G01X1743964Y810260D01*
G01X1713484Y779780D01*
G01X1683004Y764540D01*
G01X1637284Y764540D01*
G01X1606804Y779780D01*
G01X1576324Y810260D01*
G01X1141476Y1084580D02*
G01X1141476Y764540D01*
G01X1141476Y1084580D02*
G01X1034796Y1084580D01*
G01X989076Y1069340D01*
G01X958596Y1038860D01*
G01X943356Y1008380D01*
G01X928116Y962660D01*
G01X928116Y886460D01*
G01X943356Y840740D01*
G01X958596Y810260D01*
G01X989076Y779780D01*
G01X1034796Y764540D01*
G01X1141476Y764540D01*
G01X758444Y977900D02*
G01X788924Y962660D01*
G01X819404Y932180D01*
G01X834644Y886460D01*
G01X834644Y855980D01*
G01X819404Y810260D01*
G01X788924Y779780D01*
G01X758444Y764540D01*
G01X712724Y764540D01*
G01X682244Y779780D01*
G01X651764Y810260D01*
G01X636524Y855980D01*
G01X636524Y886460D01*
G01X651764Y932180D01*
G01X682244Y962660D01*
G01X712724Y977900D01*
G01X758444Y977900D01*
G01X360172Y932180D02*
G01X390652Y962660D01*
G01X421132Y977900D01*
G01X466852Y977900D01*
G01X497332Y962660D01*
G01X527812Y932180D01*
G01X543052Y886460D01*
G01X543052Y855980D01*
G01X527812Y810260D01*
G01X497332Y779780D01*
G01X466852Y764540D01*
G01X421132Y764540D01*
G01X390652Y779780D01*
G01X360172Y810260D01*
G01X266700Y1084580D02*
G01X266700Y764540D01*
G01X114300Y977900D02*
G01X266700Y825500D01*
G01X205740Y886460D02*
G01X99060Y764540D01*
G04 Text End*

M02*

