G04 Layer: TopPasteMaskLayer*
G04 EasyEDA Pro v2.2.47.7, 2026-04-30 16:02:43*
G04 Gerber Generator version 0.3*
G04 Scale: 100 percent, Rotated: No, Reflected: No*
G04 Dimensions in millimeters*
G04 Leading zeros omitted, absolute positions, 4 integers and 5 decimals*
G04 Generated by one-click*
G04 Object Configs: Pad,Via,Track,Text,Image,Dimension,BoardOutline,BoardCutout,CopperFilled,SolidRegion,FPCStiffener,Line,PlaneZone,ComponentProperty,ComponentSilkscreen,TearDrop*
G04 Layer Configs: 1,2,3,4,5,6,7,8,9,10,11,13,14,56*
G04 Copper Areas: 0*
%FSLAX45Y45*%
%MOMM*%
%ADD10R,0.9X0.8*%
%ADD11R,0.8X0.9*%
%ADD12R,1.2X0.25001*%
%ADD13C,0.3603*%
G75*


G04 PolygonModel Start*
G36*
G01X525902Y298999D02*
G01X445902Y298999D01*
G01X440901Y293997D01*
G01X440901Y271201D01*
G01X477901Y271201D01*
G01X477901Y238201D01*
G01X440901Y238201D01*
G01X440901Y213998D01*
G01X445902Y208999D01*
G01X525902Y208999D01*
G01X530901Y213998D01*
G01X530901Y293997D01*
G01X525902Y298999D01*
G37*
G36*
G01X286898Y209001D02*
G01X366898Y209001D01*
G01X371899Y214003D01*
G01X371899Y236799D01*
G01X334899Y236799D01*
G01X334899Y269799D01*
G01X371899Y269799D01*
G01X371899Y294002D01*
G01X366898Y299001D01*
G01X286898Y299001D01*
G01X281899Y294002D01*
G01X281899Y214003D01*
G01X286898Y209001D01*
G37*
G36*
G01X428767Y1577284D02*
G01X348767Y1577284D01*
G01X343766Y1572283D01*
G01X343766Y1549486D01*
G01X380766Y1549486D01*
G01X380766Y1516487D01*
G01X343766Y1516487D01*
G01X343766Y1492283D01*
G01X348767Y1487284D01*
G01X428767Y1487284D01*
G01X433766Y1492283D01*
G01X433766Y1572283D01*
G01X428767Y1577284D01*
G37*
G36*
G01X189763Y1487287D02*
G01X269763Y1487287D01*
G01X274765Y1492288D01*
G01X274765Y1515085D01*
G01X237764Y1515085D01*
G01X237764Y1548084D01*
G01X274765Y1548084D01*
G01X274765Y1572288D01*
G01X269763Y1577287D01*
G01X189763Y1577287D01*
G01X184765Y1572288D01*
G01X184765Y1492288D01*
G01X189763Y1487287D01*
G37*
G36*
G01X2380102Y857799D02*
G01X2300102Y857799D01*
G01X2295101Y852797D01*
G01X2295101Y830001D01*
G01X2332101Y830001D01*
G01X2332101Y797001D01*
G01X2295101Y797001D01*
G01X2295101Y772798D01*
G01X2300102Y767799D01*
G01X2380102Y767799D01*
G01X2385101Y772798D01*
G01X2385101Y852797D01*
G01X2380102Y857799D01*
G37*
G36*
G01X2141098Y767801D02*
G01X2221098Y767801D01*
G01X2226099Y772803D01*
G01X2226099Y795599D01*
G01X2189099Y795599D01*
G01X2189099Y828599D01*
G01X2226099Y828599D01*
G01X2226099Y852802D01*
G01X2221098Y857801D01*
G01X2141098Y857801D01*
G01X2136099Y852802D01*
G01X2136099Y772803D01*
G01X2141098Y767801D01*
G37*
G36*
G01X2522098Y767801D02*
G01X2602098Y767801D01*
G01X2607099Y772803D01*
G01X2607099Y795599D01*
G01X2570099Y795599D01*
G01X2570099Y828599D01*
G01X2607099Y828599D01*
G01X2607099Y852802D01*
G01X2602098Y857801D01*
G01X2522098Y857801D01*
G01X2517099Y852802D01*
G01X2517099Y772803D01*
G01X2522098Y767801D01*
G37*
G36*
G01X2761102Y857799D02*
G01X2681102Y857799D01*
G01X2676101Y852797D01*
G01X2676101Y830001D01*
G01X2713101Y830001D01*
G01X2713101Y797001D01*
G01X2676101Y797001D01*
G01X2676101Y772798D01*
G01X2681102Y767799D01*
G01X2761102Y767799D01*
G01X2766101Y772798D01*
G01X2766101Y852797D01*
G01X2761102Y857799D01*
G37*
G36*
G01X1237102Y857799D02*
G01X1157102Y857799D01*
G01X1152101Y852797D01*
G01X1152101Y830001D01*
G01X1189101Y830001D01*
G01X1189101Y797001D01*
G01X1152101Y797001D01*
G01X1152101Y772798D01*
G01X1157102Y767799D01*
G01X1237102Y767799D01*
G01X1242101Y772798D01*
G01X1242101Y852797D01*
G01X1237102Y857799D01*
G37*
G36*
G01X998098Y767801D02*
G01X1078098Y767801D01*
G01X1083099Y772803D01*
G01X1083099Y795599D01*
G01X1046099Y795599D01*
G01X1046099Y828599D01*
G01X1083099Y828599D01*
G01X1083099Y852802D01*
G01X1078098Y857801D01*
G01X998098Y857801D01*
G01X993099Y852802D01*
G01X993099Y772803D01*
G01X998098Y767801D01*
G37*
G36*
G01X1349665Y779963D02*
G01X1429664Y779963D01*
G01X1434666Y784964D01*
G01X1434666Y807761D01*
G01X1397665Y807761D01*
G01X1397665Y840760D01*
G01X1434666Y840760D01*
G01X1434666Y864964D01*
G01X1429664Y869963D01*
G01X1349665Y869963D01*
G01X1344666Y864964D01*
G01X1344666Y784964D01*
G01X1349665Y779963D01*
G37*
G36*
G01X1588668Y869960D02*
G01X1508669Y869960D01*
G01X1503667Y864959D01*
G01X1503667Y842162D01*
G01X1540667Y842162D01*
G01X1540667Y809163D01*
G01X1503667Y809163D01*
G01X1503667Y784959D01*
G01X1508669Y779960D01*
G01X1588668Y779960D01*
G01X1593667Y784959D01*
G01X1593667Y864959D01*
G01X1588668Y869960D01*
G37*
G36*
G01X550804Y774393D02*
G01X660804Y774393D01*
G01X660804Y804395D01*
G01X550804Y804395D01*
G01X550804Y774393D01*
G37*
G36*
G01X660804Y754383D02*
G01X550804Y754383D01*
G01X550804Y724380D01*
G01X660804Y724380D01*
G01X660804Y754383D01*
G37*
G36*
G01X660804Y1264402D02*
G01X550804Y1264402D01*
G01X550804Y1204402D01*
G01X660804Y1204402D01*
G01X660804Y1264402D01*
G37*
G36*
G01X550804Y824405D02*
G01X660804Y824405D01*
G01X660804Y854408D01*
G01X550804Y854408D01*
G01X550804Y824405D01*
G37*
G36*
G01X660804Y704383D02*
G01X550804Y704383D01*
G01X550804Y644383D01*
G01X660804Y644383D01*
G01X660804Y704383D01*
G37*
G36*
G01X550804Y564398D02*
G01X660804Y564398D01*
G01X660804Y624398D01*
G01X550804Y624398D01*
G01X550804Y564398D01*
G37*
G36*
G01X550804Y874392D02*
G01X660804Y874392D01*
G01X660804Y904395D01*
G01X550804Y904395D01*
G01X550804Y874392D01*
G37*
G36*
G01X550804Y924405D02*
G01X660804Y924405D01*
G01X660804Y954408D01*
G01X550804Y954408D01*
G01X550804Y924405D01*
G37*
G36*
G01X660804Y1184392D02*
G01X550804Y1184392D01*
G01X550804Y1124392D01*
G01X660804Y1124392D01*
G01X660804Y1184392D01*
G37*
G36*
G01X550804Y974392D02*
G01X660804Y974392D01*
G01X660804Y1004395D01*
G01X550804Y1004395D01*
G01X550804Y974392D01*
G37*
G36*
G01X550804Y1024379D02*
G01X660804Y1024379D01*
G01X660804Y1054382D01*
G01X550804Y1054382D01*
G01X550804Y1024379D01*
G37*
G36*
G01X550804Y1074392D02*
G01X660804Y1074392D01*
G01X660804Y1104395D01*
G01X550804Y1104395D01*
G01X550804Y1074392D01*
G37*
G36*
G01X650644Y477418D02*
G01X650794Y480405D01*
G01X650794Y483398D01*
G01X650644Y486385D01*
G01X650347Y489361D01*
G01X649900Y492321D01*
G01X649308Y495252D01*
G01X648569Y498152D01*
G01X647687Y501010D01*
G01X646664Y503822D01*
G01X645503Y506578D01*
G01X644205Y509275D01*
G01X642772Y511901D01*
G01X641213Y514454D01*
G01X639529Y516926D01*
G01X637720Y519311D01*
G01X635798Y521602D01*
G01X633763Y523796D01*
G01X631622Y525884D01*
G01X629379Y527865D01*
G01X627040Y529730D01*
G01X624611Y531475D01*
G01X622097Y533098D01*
G01X619506Y534594D01*
G01X616844Y535960D01*
G01X614119Y537190D01*
G01X611332Y538282D01*
G01X608498Y539237D01*
G01X605617Y540047D01*
G01X602701Y540713D01*
G01X599755Y541231D01*
G01X596786Y541604D01*
G01X593801Y541828D01*
G01X590812Y541901D01*
G01X510812Y541901D01*
G01X507822Y541828D01*
G01X504838Y541604D01*
G01X501868Y541231D01*
G01X498922Y540713D01*
G01X496006Y540047D01*
G01X493126Y539237D01*
G01X490291Y538282D01*
G01X487505Y537190D01*
G01X484779Y535960D01*
G01X482117Y534594D01*
G01X479527Y533098D01*
G01X477012Y531475D01*
G01X474584Y529730D01*
G01X472244Y527865D01*
G01X470002Y525884D01*
G01X467860Y523796D01*
G01X465826Y521602D01*
G01X463903Y519311D01*
G01X462095Y516926D01*
G01X460411Y514454D01*
G01X458851Y511901D01*
G01X457418Y509275D01*
G01X456121Y506578D01*
G01X454960Y503822D01*
G01X453936Y501010D01*
G01X453055Y498152D01*
G01X452316Y495252D01*
G01X451724Y492321D01*
G01X451277Y489361D01*
G01X450980Y486385D01*
G01X450830Y483398D01*
G01X450830Y480405D01*
G01X450980Y477418D01*
G01X451277Y474442D01*
G01X451724Y471482D01*
G01X452316Y468551D01*
G01X453055Y465651D01*
G01X453936Y462793D01*
G01X454960Y459981D01*
G01X456121Y457225D01*
G01X457418Y454528D01*
G01X458851Y451902D01*
G01X460411Y449349D01*
G01X462095Y446877D01*
G01X463903Y444492D01*
G01X465826Y442201D01*
G01X467860Y440007D01*
G01X470002Y437919D01*
G01X472244Y435938D01*
G01X474584Y434073D01*
G01X477012Y432328D01*
G01X479527Y430705D01*
G01X482117Y429209D01*
G01X484779Y427843D01*
G01X487505Y426613D01*
G01X490291Y425521D01*
G01X493126Y424566D01*
G01X496006Y423756D01*
G01X498922Y423090D01*
G01X501868Y422572D01*
G01X504838Y422199D01*
G01X507822Y421975D01*
G01X510812Y421902D01*
G01X590812Y421902D01*
G01X593801Y421975D01*
G01X596786Y422199D01*
G01X599755Y422572D01*
G01X602701Y423090D01*
G01X605617Y423756D01*
G01X608498Y424566D01*
G01X611332Y425521D01*
G01X614119Y426613D01*
G01X616844Y427843D01*
G01X619506Y429209D01*
G01X622097Y430705D01*
G01X624611Y432328D01*
G01X627040Y434073D01*
G01X629379Y435938D01*
G01X631622Y437919D01*
G01X633763Y440007D01*
G01X635798Y442201D01*
G01X637720Y444492D01*
G01X639529Y446877D01*
G01X641213Y449349D01*
G01X642772Y451902D01*
G01X644205Y454528D01*
G01X645503Y457225D01*
G01X646664Y459981D01*
G01X647687Y462793D01*
G01X648569Y465651D01*
G01X649308Y468551D01*
G01X649900Y471482D01*
G01X650347Y474442D01*
G01X650644Y477418D01*
G37*
G36*
G01X650794Y1348395D02*
G01X650644Y1351382D01*
G01X650347Y1354358D01*
G01X649900Y1357318D01*
G01X649308Y1360249D01*
G01X648569Y1363149D01*
G01X647687Y1366007D01*
G01X646664Y1368819D01*
G01X645503Y1371575D01*
G01X644205Y1374272D01*
G01X642772Y1376898D01*
G01X641213Y1379451D01*
G01X639529Y1381923D01*
G01X637720Y1384308D01*
G01X635798Y1386599D01*
G01X633763Y1388793D01*
G01X631622Y1390881D01*
G01X629379Y1392862D01*
G01X627040Y1394727D01*
G01X624611Y1396472D01*
G01X622097Y1398095D01*
G01X619506Y1399591D01*
G01X616844Y1400957D01*
G01X614119Y1402187D01*
G01X611332Y1403279D01*
G01X608498Y1404234D01*
G01X605617Y1405044D01*
G01X602701Y1405710D01*
G01X599755Y1406228D01*
G01X596786Y1406601D01*
G01X593801Y1406825D01*
G01X590812Y1406898D01*
G01X510812Y1406898D01*
G01X507822Y1406825D01*
G01X504838Y1406601D01*
G01X501868Y1406228D01*
G01X498922Y1405710D01*
G01X496006Y1405044D01*
G01X493126Y1404234D01*
G01X490291Y1403279D01*
G01X487505Y1402187D01*
G01X484779Y1400957D01*
G01X482117Y1399591D01*
G01X479527Y1398095D01*
G01X477012Y1396472D01*
G01X474584Y1394727D01*
G01X472244Y1392862D01*
G01X470002Y1390881D01*
G01X467860Y1388793D01*
G01X465826Y1386599D01*
G01X463903Y1384308D01*
G01X462095Y1381923D01*
G01X460411Y1379451D01*
G01X458851Y1376898D01*
G01X457418Y1374272D01*
G01X456121Y1371575D01*
G01X454960Y1368819D01*
G01X453936Y1366007D01*
G01X453055Y1363149D01*
G01X452316Y1360249D01*
G01X451724Y1357318D01*
G01X451277Y1354358D01*
G01X450980Y1351382D01*
G01X450830Y1348395D01*
G01X450830Y1345402D01*
G01X450980Y1342415D01*
G01X451277Y1339439D01*
G01X451724Y1336479D01*
G01X452316Y1333548D01*
G01X453055Y1330648D01*
G01X453936Y1327790D01*
G01X454960Y1324978D01*
G01X456121Y1322222D01*
G01X457418Y1319525D01*
G01X458851Y1316899D01*
G01X460411Y1314346D01*
G01X462095Y1311874D01*
G01X463903Y1309489D01*
G01X465826Y1307198D01*
G01X467860Y1305004D01*
G01X470002Y1302916D01*
G01X472244Y1300935D01*
G01X474584Y1299070D01*
G01X477012Y1297325D01*
G01X479527Y1295702D01*
G01X482117Y1294206D01*
G01X484779Y1292840D01*
G01X487505Y1291610D01*
G01X490291Y1290518D01*
G01X493126Y1289563D01*
G01X496006Y1288753D01*
G01X498922Y1288087D01*
G01X501868Y1287569D01*
G01X504838Y1287196D01*
G01X507822Y1286972D01*
G01X510812Y1286899D01*
G01X590812Y1286899D01*
G01X593801Y1286972D01*
G01X596786Y1287196D01*
G01X599755Y1287569D01*
G01X602701Y1288087D01*
G01X605617Y1288753D01*
G01X608498Y1289563D01*
G01X611332Y1290518D01*
G01X614119Y1291610D01*
G01X616844Y1292840D01*
G01X619506Y1294206D01*
G01X622097Y1295702D01*
G01X624611Y1297325D01*
G01X627040Y1299070D01*
G01X629379Y1300935D01*
G01X631622Y1302916D01*
G01X633763Y1305004D01*
G01X635798Y1307198D01*
G01X637720Y1309489D01*
G01X639529Y1311874D01*
G01X641213Y1314346D01*
G01X642772Y1316899D01*
G01X644205Y1319525D01*
G01X645503Y1322222D01*
G01X646664Y1324978D01*
G01X647687Y1327790D01*
G01X648569Y1330648D01*
G01X649308Y1333548D01*
G01X649900Y1336479D01*
G01X650347Y1339439D01*
G01X650644Y1342415D01*
G01X650794Y1345402D01*
G01X650794Y1348395D01*
G37*
G36*
G01X205628Y1342415D02*
G01X205778Y1345402D01*
G01X205778Y1348395D01*
G01X205628Y1351382D01*
G01X205331Y1354358D01*
G01X204884Y1357318D01*
G01X204292Y1360249D01*
G01X203553Y1363149D01*
G01X202672Y1366007D01*
G01X201648Y1368819D01*
G01X200487Y1371575D01*
G01X199189Y1374272D01*
G01X197757Y1376898D01*
G01X196197Y1379451D01*
G01X194513Y1381923D01*
G01X192705Y1384308D01*
G01X190782Y1386599D01*
G01X188747Y1388793D01*
G01X186606Y1390881D01*
G01X184363Y1392862D01*
G01X182024Y1394727D01*
G01X179596Y1396472D01*
G01X177081Y1398095D01*
G01X174490Y1399591D01*
G01X171828Y1400957D01*
G01X169103Y1402187D01*
G01X166317Y1403279D01*
G01X163482Y1404234D01*
G01X160602Y1405044D01*
G01X157686Y1405710D01*
G01X154739Y1406228D01*
G01X151770Y1406601D01*
G01X148786Y1406825D01*
G01X145796Y1406898D01*
G01X115796Y1406898D01*
G01X112806Y1406825D01*
G01X109822Y1406601D01*
G01X106853Y1406228D01*
G01X103906Y1405710D01*
G01X100990Y1405044D01*
G01X98110Y1404234D01*
G01X95275Y1403279D01*
G01X92489Y1402187D01*
G01X89764Y1400957D01*
G01X87102Y1399591D01*
G01X84511Y1398095D01*
G01X81996Y1396472D01*
G01X79568Y1394727D01*
G01X77229Y1392862D01*
G01X74986Y1390881D01*
G01X72845Y1388793D01*
G01X70810Y1386599D01*
G01X68887Y1384308D01*
G01X67079Y1381923D01*
G01X65395Y1379451D01*
G01X63835Y1376898D01*
G01X62403Y1374272D01*
G01X61105Y1371575D01*
G01X59944Y1368819D01*
G01X58920Y1366007D01*
G01X58039Y1363149D01*
G01X57300Y1360249D01*
G01X56708Y1357318D01*
G01X56261Y1354358D01*
G01X55964Y1351382D01*
G01X55814Y1348395D01*
G01X55814Y1345402D01*
G01X55964Y1342415D01*
G01X56261Y1339439D01*
G01X56708Y1336479D01*
G01X57300Y1333548D01*
G01X58039Y1330648D01*
G01X58920Y1327790D01*
G01X59944Y1324978D01*
G01X61105Y1322222D01*
G01X62403Y1319525D01*
G01X63835Y1316899D01*
G01X65395Y1314346D01*
G01X67079Y1311874D01*
G01X68887Y1309489D01*
G01X70810Y1307198D01*
G01X72845Y1305004D01*
G01X74986Y1302916D01*
G01X77229Y1300935D01*
G01X79568Y1299070D01*
G01X81996Y1297325D01*
G01X84511Y1295702D01*
G01X87102Y1294206D01*
G01X89764Y1292840D01*
G01X92489Y1291610D01*
G01X95275Y1290518D01*
G01X98110Y1289563D01*
G01X100990Y1288753D01*
G01X103906Y1288087D01*
G01X106853Y1287569D01*
G01X109822Y1287196D01*
G01X112806Y1286972D01*
G01X115796Y1286899D01*
G01X145796Y1286899D01*
G01X148786Y1286972D01*
G01X151770Y1287196D01*
G01X154739Y1287569D01*
G01X157686Y1288087D01*
G01X160602Y1288753D01*
G01X163482Y1289563D01*
G01X166317Y1290518D01*
G01X169103Y1291610D01*
G01X171828Y1292840D01*
G01X174490Y1294206D01*
G01X177081Y1295702D01*
G01X179596Y1297325D01*
G01X182024Y1299070D01*
G01X184363Y1300935D01*
G01X186606Y1302916D01*
G01X188747Y1305004D01*
G01X190782Y1307198D01*
G01X192705Y1309489D01*
G01X194513Y1311874D01*
G01X196197Y1314346D01*
G01X197757Y1316899D01*
G01X199189Y1319525D01*
G01X200487Y1322222D01*
G01X201648Y1324978D01*
G01X202672Y1327790D01*
G01X203553Y1330648D01*
G01X204292Y1333548D01*
G01X204884Y1336479D01*
G01X205331Y1339439D01*
G01X205628Y1342415D01*
G37*
G36*
G01X205778Y483398D02*
G01X205628Y486385D01*
G01X205331Y489361D01*
G01X204884Y492321D01*
G01X204292Y495252D01*
G01X203553Y498152D01*
G01X202672Y501010D01*
G01X201648Y503822D01*
G01X200487Y506578D01*
G01X199189Y509275D01*
G01X197757Y511901D01*
G01X196197Y514454D01*
G01X194513Y516926D01*
G01X192705Y519311D01*
G01X190782Y521602D01*
G01X188747Y523796D01*
G01X186606Y525884D01*
G01X184363Y527865D01*
G01X182024Y529730D01*
G01X179596Y531475D01*
G01X177081Y533098D01*
G01X174490Y534594D01*
G01X171828Y535960D01*
G01X169103Y537190D01*
G01X166317Y538282D01*
G01X163482Y539237D01*
G01X160602Y540047D01*
G01X157686Y540713D01*
G01X154739Y541231D01*
G01X151770Y541604D01*
G01X148786Y541828D01*
G01X145796Y541901D01*
G01X115796Y541901D01*
G01X112806Y541828D01*
G01X109822Y541604D01*
G01X106853Y541231D01*
G01X103906Y540713D01*
G01X100990Y540047D01*
G01X98110Y539237D01*
G01X95275Y538282D01*
G01X92489Y537190D01*
G01X89764Y535960D01*
G01X87102Y534594D01*
G01X84511Y533098D01*
G01X81996Y531475D01*
G01X79568Y529730D01*
G01X77229Y527865D01*
G01X74986Y525884D01*
G01X72845Y523796D01*
G01X70810Y521602D01*
G01X68887Y519311D01*
G01X67079Y516926D01*
G01X65395Y514454D01*
G01X63835Y511901D01*
G01X62403Y509275D01*
G01X61105Y506578D01*
G01X59944Y503822D01*
G01X58920Y501010D01*
G01X58039Y498152D01*
G01X57300Y495252D01*
G01X56708Y492321D01*
G01X56261Y489361D01*
G01X55964Y486385D01*
G01X55814Y483398D01*
G01X55814Y480405D01*
G01X55964Y477418D01*
G01X56261Y474442D01*
G01X56708Y471482D01*
G01X57300Y468551D01*
G01X58039Y465651D01*
G01X58920Y462793D01*
G01X59944Y459981D01*
G01X61105Y457225D01*
G01X62403Y454528D01*
G01X63835Y451902D01*
G01X65395Y449349D01*
G01X67079Y446877D01*
G01X68887Y444492D01*
G01X70810Y442201D01*
G01X72845Y440007D01*
G01X74986Y437919D01*
G01X77229Y435938D01*
G01X79568Y434073D01*
G01X81996Y432328D01*
G01X84511Y430705D01*
G01X87102Y429209D01*
G01X89764Y427843D01*
G01X92489Y426613D01*
G01X95275Y425521D01*
G01X98110Y424566D01*
G01X100990Y423756D01*
G01X103906Y423090D01*
G01X106853Y422572D01*
G01X109822Y422199D01*
G01X112806Y421975D01*
G01X115796Y421902D01*
G01X145796Y421902D01*
G01X148786Y421975D01*
G01X151770Y422199D01*
G01X154739Y422572D01*
G01X157686Y423090D01*
G01X160602Y423756D01*
G01X163482Y424566D01*
G01X166317Y425521D01*
G01X169103Y426613D01*
G01X171828Y427843D01*
G01X174490Y429209D01*
G01X177081Y430705D01*
G01X179596Y432328D01*
G01X182024Y434073D01*
G01X184363Y435938D01*
G01X186606Y437919D01*
G01X188747Y440007D01*
G01X190782Y442201D01*
G01X192705Y444492D01*
G01X194513Y446877D01*
G01X196197Y449349D01*
G01X197757Y451902D01*
G01X199189Y454528D01*
G01X200487Y457225D01*
G01X201648Y459981D01*
G01X202672Y462793D01*
G01X203553Y465651D01*
G01X204292Y468551D01*
G01X204884Y471482D01*
G01X205331Y474442D01*
G01X205628Y477418D01*
G01X205778Y480405D01*
G01X205778Y483398D01*
G37*
G36*
G01X3066893Y290505D02*
G02X3186892Y290505I60000J0D01*
G01X3186892Y100503D01*
G02X3066893Y100503I-60000J0D01*
G01X3066893Y290505D01*
G37*
G36*
G01X4356908Y290505D02*
G02X4476907Y290505I60000J0D01*
G01X4476907Y100503D01*
G02X4356908Y100503I-60000J0D01*
G01X4356908Y290505D01*
G37*
G36*
G01X4065900Y1218496D02*
G01X4177899Y1218496D01*
G01X4177899Y930496D01*
G01X4065900Y930496D01*
G01X4065900Y1218496D01*
G37*
G36*
G01X3815900Y1218496D02*
G01X3927899Y1218496D01*
G01X3927899Y930496D01*
G01X3815900Y930496D01*
G01X3815900Y1218496D01*
G37*
G36*
G01X3615901Y1218496D02*
G01X3727900Y1218496D01*
G01X3727900Y930496D01*
G01X3615901Y930496D01*
G01X3615901Y1218496D01*
G37*
G36*
G01X3365901Y1218496D02*
G01X3477900Y1218496D01*
G01X3477900Y930496D01*
G01X3365901Y930496D01*
G01X3365901Y1218496D01*
G37*
G36*
G01X1397307Y550804D02*
G01X1397307Y660804D01*
G01X1367305Y660804D01*
G01X1367305Y550804D01*
G01X1397307Y550804D01*
G37*
G36*
G01X1417317Y660804D02*
G01X1417317Y550804D01*
G01X1447320Y550804D01*
G01X1447320Y660804D01*
G01X1417317Y660804D01*
G37*
G36*
G01X907298Y660804D02*
G01X907298Y550804D01*
G01X967298Y550804D01*
G01X967298Y660804D01*
G01X907298Y660804D01*
G37*
G36*
G01X1347295Y550804D02*
G01X1347295Y660804D01*
G01X1317292Y660804D01*
G01X1317292Y550804D01*
G01X1347295Y550804D01*
G37*
G36*
G01X1467317Y660804D02*
G01X1467317Y550804D01*
G01X1527317Y550804D01*
G01X1527317Y660804D01*
G01X1467317Y660804D01*
G37*
G36*
G01X1607302Y550804D02*
G01X1607302Y660804D01*
G01X1547302Y660804D01*
G01X1547302Y550804D01*
G01X1607302Y550804D01*
G37*
G36*
G01X1297308Y550804D02*
G01X1297308Y660804D01*
G01X1267305Y660804D01*
G01X1267305Y550804D01*
G01X1297308Y550804D01*
G37*
G36*
G01X1247295Y550804D02*
G01X1247295Y660804D01*
G01X1217292Y660804D01*
G01X1217292Y550804D01*
G01X1247295Y550804D01*
G37*
G36*
G01X987308Y660804D02*
G01X987308Y550804D01*
G01X1047308Y550804D01*
G01X1047308Y660804D01*
G01X987308Y660804D01*
G37*
G36*
G01X1197308Y550804D02*
G01X1197308Y660804D01*
G01X1167305Y660804D01*
G01X1167305Y550804D01*
G01X1197308Y550804D01*
G37*
G36*
G01X1147321Y550804D02*
G01X1147321Y660804D01*
G01X1117318Y660804D01*
G01X1117318Y550804D01*
G01X1147321Y550804D01*
G37*
G36*
G01X1097308Y550804D02*
G01X1097308Y660804D01*
G01X1067305Y660804D01*
G01X1067305Y550804D01*
G01X1097308Y550804D01*
G37*
G36*
G01X1694282Y650644D02*
G01X1691295Y650794D01*
G01X1688302Y650794D01*
G01X1685315Y650644D01*
G01X1682339Y650347D01*
G01X1679379Y649900D01*
G01X1676448Y649308D01*
G01X1673548Y648569D01*
G01X1670690Y647687D01*
G01X1667878Y646664D01*
G01X1665122Y645503D01*
G01X1662425Y644205D01*
G01X1659799Y642772D01*
G01X1657246Y641213D01*
G01X1654774Y639529D01*
G01X1652389Y637720D01*
G01X1650098Y635798D01*
G01X1647904Y633763D01*
G01X1645816Y631622D01*
G01X1643835Y629379D01*
G01X1641970Y627040D01*
G01X1640225Y624611D01*
G01X1638602Y622097D01*
G01X1637106Y619506D01*
G01X1635740Y616844D01*
G01X1634510Y614119D01*
G01X1633418Y611332D01*
G01X1632463Y608498D01*
G01X1631653Y605617D01*
G01X1630987Y602701D01*
G01X1630469Y599755D01*
G01X1630096Y596786D01*
G01X1629872Y593801D01*
G01X1629799Y590812D01*
G01X1629799Y510812D01*
G01X1629872Y507822D01*
G01X1630096Y504838D01*
G01X1630469Y501868D01*
G01X1630987Y498922D01*
G01X1631653Y496006D01*
G01X1632463Y493126D01*
G01X1633418Y490291D01*
G01X1634510Y487505D01*
G01X1635740Y484779D01*
G01X1637106Y482117D01*
G01X1638602Y479527D01*
G01X1640225Y477012D01*
G01X1641970Y474584D01*
G01X1643835Y472244D01*
G01X1645816Y470002D01*
G01X1647904Y467860D01*
G01X1650098Y465826D01*
G01X1652389Y463903D01*
G01X1654774Y462095D01*
G01X1657246Y460411D01*
G01X1659799Y458851D01*
G01X1662425Y457418D01*
G01X1665122Y456121D01*
G01X1667878Y454960D01*
G01X1670690Y453936D01*
G01X1673548Y453055D01*
G01X1676448Y452316D01*
G01X1679379Y451724D01*
G01X1682339Y451277D01*
G01X1685315Y450980D01*
G01X1688302Y450830D01*
G01X1691295Y450830D01*
G01X1694282Y450980D01*
G01X1697258Y451277D01*
G01X1700218Y451724D01*
G01X1703149Y452316D01*
G01X1706049Y453055D01*
G01X1708907Y453936D01*
G01X1711719Y454960D01*
G01X1714475Y456121D01*
G01X1717172Y457418D01*
G01X1719798Y458851D01*
G01X1722351Y460411D01*
G01X1724823Y462095D01*
G01X1727208Y463903D01*
G01X1729499Y465826D01*
G01X1731693Y467860D01*
G01X1733781Y470002D01*
G01X1735762Y472244D01*
G01X1737627Y474584D01*
G01X1739372Y477012D01*
G01X1740995Y479527D01*
G01X1742491Y482117D01*
G01X1743857Y484779D01*
G01X1745087Y487505D01*
G01X1746179Y490291D01*
G01X1747134Y493126D01*
G01X1747944Y496006D01*
G01X1748610Y498922D01*
G01X1749128Y501868D01*
G01X1749501Y504838D01*
G01X1749725Y507822D01*
G01X1749798Y510812D01*
G01X1749798Y590812D01*
G01X1749725Y593801D01*
G01X1749501Y596786D01*
G01X1749128Y599755D01*
G01X1748610Y602701D01*
G01X1747944Y605617D01*
G01X1747134Y608498D01*
G01X1746179Y611332D01*
G01X1745087Y614119D01*
G01X1743857Y616844D01*
G01X1742491Y619506D01*
G01X1740995Y622097D01*
G01X1739372Y624611D01*
G01X1737627Y627040D01*
G01X1735762Y629379D01*
G01X1733781Y631622D01*
G01X1731693Y633763D01*
G01X1729499Y635798D01*
G01X1727208Y637720D01*
G01X1724823Y639529D01*
G01X1722351Y641213D01*
G01X1719798Y642772D01*
G01X1717172Y644205D01*
G01X1714475Y645503D01*
G01X1711719Y646664D01*
G01X1708907Y647687D01*
G01X1706049Y648569D01*
G01X1703149Y649308D01*
G01X1700218Y649900D01*
G01X1697258Y650347D01*
G01X1694282Y650644D01*
G37*
G36*
G01X823305Y650794D02*
G01X820318Y650644D01*
G01X817342Y650347D01*
G01X814382Y649900D01*
G01X811451Y649308D01*
G01X808551Y648569D01*
G01X805693Y647687D01*
G01X802881Y646664D01*
G01X800125Y645503D01*
G01X797428Y644205D01*
G01X794802Y642772D01*
G01X792249Y641213D01*
G01X789777Y639529D01*
G01X787392Y637720D01*
G01X785101Y635798D01*
G01X782907Y633763D01*
G01X780819Y631622D01*
G01X778838Y629379D01*
G01X776973Y627040D01*
G01X775228Y624611D01*
G01X773605Y622097D01*
G01X772109Y619506D01*
G01X770743Y616844D01*
G01X769513Y614119D01*
G01X768421Y611332D01*
G01X767466Y608498D01*
G01X766656Y605617D01*
G01X765990Y602701D01*
G01X765472Y599755D01*
G01X765099Y596786D01*
G01X764875Y593801D01*
G01X764802Y590812D01*
G01X764802Y510812D01*
G01X764875Y507822D01*
G01X765099Y504838D01*
G01X765472Y501868D01*
G01X765990Y498922D01*
G01X766656Y496006D01*
G01X767466Y493126D01*
G01X768421Y490291D01*
G01X769513Y487505D01*
G01X770743Y484779D01*
G01X772109Y482117D01*
G01X773605Y479527D01*
G01X775228Y477012D01*
G01X776973Y474584D01*
G01X778838Y472244D01*
G01X780819Y470002D01*
G01X782907Y467860D01*
G01X785101Y465826D01*
G01X787392Y463903D01*
G01X789777Y462095D01*
G01X792249Y460411D01*
G01X794802Y458851D01*
G01X797428Y457418D01*
G01X800125Y456121D01*
G01X802881Y454960D01*
G01X805693Y453936D01*
G01X808551Y453055D01*
G01X811451Y452316D01*
G01X814382Y451724D01*
G01X817342Y451277D01*
G01X820318Y450980D01*
G01X823305Y450830D01*
G01X826298Y450830D01*
G01X829285Y450980D01*
G01X832261Y451277D01*
G01X835221Y451724D01*
G01X838152Y452316D01*
G01X841052Y453055D01*
G01X843910Y453936D01*
G01X846722Y454960D01*
G01X849478Y456121D01*
G01X852175Y457418D01*
G01X854801Y458851D01*
G01X857354Y460411D01*
G01X859826Y462095D01*
G01X862211Y463903D01*
G01X864502Y465826D01*
G01X866696Y467860D01*
G01X868784Y470002D01*
G01X870765Y472244D01*
G01X872630Y474584D01*
G01X874375Y477012D01*
G01X875998Y479527D01*
G01X877494Y482117D01*
G01X878860Y484779D01*
G01X880090Y487505D01*
G01X881182Y490291D01*
G01X882137Y493126D01*
G01X882947Y496006D01*
G01X883613Y498922D01*
G01X884131Y501868D01*
G01X884504Y504838D01*
G01X884728Y507822D01*
G01X884801Y510812D01*
G01X884801Y590812D01*
G01X884728Y593801D01*
G01X884504Y596786D01*
G01X884131Y599755D01*
G01X883613Y602701D01*
G01X882947Y605617D01*
G01X882137Y608498D01*
G01X881182Y611332D01*
G01X880090Y614119D01*
G01X878860Y616844D01*
G01X877494Y619506D01*
G01X875998Y622097D01*
G01X874375Y624611D01*
G01X872630Y627040D01*
G01X870765Y629379D01*
G01X868784Y631622D01*
G01X866696Y633763D01*
G01X864502Y635798D01*
G01X862211Y637720D01*
G01X859826Y639529D01*
G01X857354Y641213D01*
G01X854801Y642772D01*
G01X852175Y644205D01*
G01X849478Y645503D01*
G01X846722Y646664D01*
G01X843910Y647687D01*
G01X841052Y648569D01*
G01X838152Y649308D01*
G01X835221Y649900D01*
G01X832261Y650347D01*
G01X829285Y650644D01*
G01X826298Y650794D01*
G01X823305Y650794D01*
G37*
G36*
G01X829285Y205628D02*
G01X826298Y205778D01*
G01X823305Y205778D01*
G01X820318Y205628D01*
G01X817342Y205331D01*
G01X814382Y204884D01*
G01X811451Y204292D01*
G01X808551Y203553D01*
G01X805693Y202672D01*
G01X802881Y201648D01*
G01X800125Y200487D01*
G01X797428Y199189D01*
G01X794802Y197757D01*
G01X792249Y196197D01*
G01X789777Y194513D01*
G01X787392Y192705D01*
G01X785101Y190782D01*
G01X782907Y188747D01*
G01X780819Y186606D01*
G01X778838Y184363D01*
G01X776973Y182024D01*
G01X775228Y179596D01*
G01X773605Y177081D01*
G01X772109Y174490D01*
G01X770743Y171828D01*
G01X769513Y169103D01*
G01X768421Y166317D01*
G01X767466Y163482D01*
G01X766656Y160602D01*
G01X765990Y157686D01*
G01X765472Y154739D01*
G01X765099Y151770D01*
G01X764875Y148786D01*
G01X764802Y145796D01*
G01X764802Y115796D01*
G01X764875Y112806D01*
G01X765099Y109822D01*
G01X765472Y106853D01*
G01X765990Y103906D01*
G01X766656Y100990D01*
G01X767466Y98110D01*
G01X768421Y95275D01*
G01X769513Y92489D01*
G01X770743Y89764D01*
G01X772109Y87102D01*
G01X773605Y84511D01*
G01X775228Y81996D01*
G01X776973Y79568D01*
G01X778838Y77229D01*
G01X780819Y74986D01*
G01X782907Y72845D01*
G01X785101Y70810D01*
G01X787392Y68887D01*
G01X789777Y67079D01*
G01X792249Y65395D01*
G01X794802Y63835D01*
G01X797428Y62403D01*
G01X800125Y61105D01*
G01X802881Y59944D01*
G01X805693Y58920D01*
G01X808551Y58039D01*
G01X811451Y57300D01*
G01X814382Y56708D01*
G01X817342Y56261D01*
G01X820318Y55964D01*
G01X823305Y55814D01*
G01X826298Y55814D01*
G01X829285Y55964D01*
G01X832261Y56261D01*
G01X835221Y56708D01*
G01X838152Y57300D01*
G01X841052Y58039D01*
G01X843910Y58920D01*
G01X846722Y59944D01*
G01X849478Y61105D01*
G01X852175Y62403D01*
G01X854801Y63835D01*
G01X857354Y65395D01*
G01X859826Y67079D01*
G01X862211Y68887D01*
G01X864502Y70810D01*
G01X866696Y72845D01*
G01X868784Y74986D01*
G01X870765Y77229D01*
G01X872630Y79568D01*
G01X874375Y81996D01*
G01X875998Y84511D01*
G01X877494Y87102D01*
G01X878860Y89764D01*
G01X880090Y92489D01*
G01X881182Y95275D01*
G01X882137Y98110D01*
G01X882947Y100990D01*
G01X883613Y103906D01*
G01X884131Y106853D01*
G01X884504Y109822D01*
G01X884728Y112806D01*
G01X884801Y115796D01*
G01X884801Y145796D01*
G01X884728Y148786D01*
G01X884504Y151770D01*
G01X884131Y154739D01*
G01X883613Y157686D01*
G01X882947Y160602D01*
G01X882137Y163482D01*
G01X881182Y166317D01*
G01X880090Y169103D01*
G01X878860Y171828D01*
G01X877494Y174490D01*
G01X875998Y177081D01*
G01X874375Y179596D01*
G01X872630Y182024D01*
G01X870765Y184363D01*
G01X868784Y186606D01*
G01X866696Y188747D01*
G01X864502Y190782D01*
G01X862211Y192705D01*
G01X859826Y194513D01*
G01X857354Y196197D01*
G01X854801Y197757D01*
G01X852175Y199189D01*
G01X849478Y200487D01*
G01X846722Y201648D01*
G01X843910Y202672D01*
G01X841052Y203553D01*
G01X838152Y204292D01*
G01X835221Y204884D01*
G01X832261Y205331D01*
G01X829285Y205628D01*
G37*
G36*
G01X1688302Y205778D02*
G01X1685315Y205628D01*
G01X1682339Y205331D01*
G01X1679379Y204884D01*
G01X1676448Y204292D01*
G01X1673548Y203553D01*
G01X1670690Y202672D01*
G01X1667878Y201648D01*
G01X1665122Y200487D01*
G01X1662425Y199189D01*
G01X1659799Y197757D01*
G01X1657246Y196197D01*
G01X1654774Y194513D01*
G01X1652389Y192705D01*
G01X1650098Y190782D01*
G01X1647904Y188747D01*
G01X1645816Y186606D01*
G01X1643835Y184363D01*
G01X1641970Y182024D01*
G01X1640225Y179596D01*
G01X1638602Y177081D01*
G01X1637106Y174490D01*
G01X1635740Y171828D01*
G01X1634510Y169103D01*
G01X1633418Y166317D01*
G01X1632463Y163482D01*
G01X1631653Y160602D01*
G01X1630987Y157686D01*
G01X1630469Y154739D01*
G01X1630096Y151770D01*
G01X1629872Y148786D01*
G01X1629799Y145796D01*
G01X1629799Y115796D01*
G01X1629872Y112806D01*
G01X1630096Y109822D01*
G01X1630469Y106853D01*
G01X1630987Y103906D01*
G01X1631653Y100990D01*
G01X1632463Y98110D01*
G01X1633418Y95275D01*
G01X1634510Y92489D01*
G01X1635740Y89764D01*
G01X1637106Y87102D01*
G01X1638602Y84511D01*
G01X1640225Y81996D01*
G01X1641970Y79568D01*
G01X1643835Y77229D01*
G01X1645816Y74986D01*
G01X1647904Y72845D01*
G01X1650098Y70810D01*
G01X1652389Y68887D01*
G01X1654774Y67079D01*
G01X1657246Y65395D01*
G01X1659799Y63835D01*
G01X1662425Y62403D01*
G01X1665122Y61105D01*
G01X1667878Y59944D01*
G01X1670690Y58920D01*
G01X1673548Y58039D01*
G01X1676448Y57300D01*
G01X1679379Y56708D01*
G01X1682339Y56261D01*
G01X1685315Y55964D01*
G01X1688302Y55814D01*
G01X1691295Y55814D01*
G01X1694282Y55964D01*
G01X1697258Y56261D01*
G01X1700218Y56708D01*
G01X1703149Y57300D01*
G01X1706049Y58039D01*
G01X1708907Y58920D01*
G01X1711719Y59944D01*
G01X1714475Y61105D01*
G01X1717172Y62403D01*
G01X1719798Y63835D01*
G01X1722351Y65395D01*
G01X1724823Y67079D01*
G01X1727208Y68887D01*
G01X1729499Y70810D01*
G01X1731693Y72845D01*
G01X1733781Y74986D01*
G01X1735762Y77229D01*
G01X1737627Y79568D01*
G01X1739372Y81996D01*
G01X1740995Y84511D01*
G01X1742491Y87102D01*
G01X1743857Y89764D01*
G01X1745087Y92489D01*
G01X1746179Y95275D01*
G01X1747134Y98110D01*
G01X1747944Y100990D01*
G01X1748610Y103906D01*
G01X1749128Y106853D01*
G01X1749501Y109822D01*
G01X1749725Y112806D01*
G01X1749798Y115796D01*
G01X1749798Y145796D01*
G01X1749725Y148786D01*
G01X1749501Y151770D01*
G01X1749128Y154739D01*
G01X1748610Y157686D01*
G01X1747944Y160602D01*
G01X1747134Y163482D01*
G01X1746179Y166317D01*
G01X1745087Y169103D01*
G01X1743857Y171828D01*
G01X1742491Y174490D01*
G01X1740995Y177081D01*
G01X1739372Y179596D01*
G01X1737627Y182024D01*
G01X1735762Y184363D01*
G01X1733781Y186606D01*
G01X1731693Y188747D01*
G01X1729499Y190782D01*
G01X1727208Y192705D01*
G01X1724823Y194513D01*
G01X1722351Y196197D01*
G01X1719798Y197757D01*
G01X1717172Y199189D01*
G01X1714475Y200487D01*
G01X1711719Y201648D01*
G01X1708907Y202672D01*
G01X1706049Y203553D01*
G01X1703149Y204292D01*
G01X1700218Y204884D01*
G01X1697258Y205331D01*
G01X1694282Y205628D01*
G01X1691295Y205778D01*
G01X1688302Y205778D01*
G37*
G36*
G01X2565707Y550804D02*
G01X2565707Y660804D01*
G01X2535705Y660804D01*
G01X2535705Y550804D01*
G01X2565707Y550804D01*
G37*
G36*
G01X2585717Y660804D02*
G01X2585717Y550804D01*
G01X2615720Y550804D01*
G01X2615720Y660804D01*
G01X2585717Y660804D01*
G37*
G36*
G01X2075698Y660804D02*
G01X2075698Y550804D01*
G01X2135698Y550804D01*
G01X2135698Y660804D01*
G01X2075698Y660804D01*
G37*
G36*
G01X2515695Y550804D02*
G01X2515695Y660804D01*
G01X2485692Y660804D01*
G01X2485692Y550804D01*
G01X2515695Y550804D01*
G37*
G36*
G01X2635717Y660804D02*
G01X2635717Y550804D01*
G01X2695717Y550804D01*
G01X2695717Y660804D01*
G01X2635717Y660804D01*
G37*
G36*
G01X2775702Y550804D02*
G01X2775702Y660804D01*
G01X2715702Y660804D01*
G01X2715702Y550804D01*
G01X2775702Y550804D01*
G37*
G36*
G01X2465708Y550804D02*
G01X2465708Y660804D01*
G01X2435705Y660804D01*
G01X2435705Y550804D01*
G01X2465708Y550804D01*
G37*
G36*
G01X2415695Y550804D02*
G01X2415695Y660804D01*
G01X2385692Y660804D01*
G01X2385692Y550804D01*
G01X2415695Y550804D01*
G37*
G36*
G01X2155708Y660804D02*
G01X2155708Y550804D01*
G01X2215708Y550804D01*
G01X2215708Y660804D01*
G01X2155708Y660804D01*
G37*
G36*
G01X2365708Y550804D02*
G01X2365708Y660804D01*
G01X2335705Y660804D01*
G01X2335705Y550804D01*
G01X2365708Y550804D01*
G37*
G36*
G01X2315721Y550804D02*
G01X2315721Y660804D01*
G01X2285718Y660804D01*
G01X2285718Y550804D01*
G01X2315721Y550804D01*
G37*
G36*
G01X2265708Y550804D02*
G01X2265708Y660804D01*
G01X2235705Y660804D01*
G01X2235705Y550804D01*
G01X2265708Y550804D01*
G37*
G36*
G01X2862682Y650644D02*
G01X2859695Y650794D01*
G01X2856702Y650794D01*
G01X2853715Y650644D01*
G01X2850739Y650347D01*
G01X2847779Y649900D01*
G01X2844848Y649308D01*
G01X2841948Y648569D01*
G01X2839090Y647687D01*
G01X2836278Y646664D01*
G01X2833522Y645503D01*
G01X2830825Y644205D01*
G01X2828199Y642772D01*
G01X2825646Y641213D01*
G01X2823174Y639529D01*
G01X2820789Y637720D01*
G01X2818498Y635798D01*
G01X2816304Y633763D01*
G01X2814216Y631622D01*
G01X2812235Y629379D01*
G01X2810370Y627040D01*
G01X2808625Y624611D01*
G01X2807002Y622097D01*
G01X2805506Y619506D01*
G01X2804140Y616844D01*
G01X2802910Y614119D01*
G01X2801818Y611332D01*
G01X2800863Y608498D01*
G01X2800053Y605617D01*
G01X2799387Y602701D01*
G01X2798869Y599755D01*
G01X2798496Y596786D01*
G01X2798272Y593801D01*
G01X2798199Y590812D01*
G01X2798199Y510812D01*
G01X2798272Y507822D01*
G01X2798496Y504838D01*
G01X2798869Y501868D01*
G01X2799387Y498922D01*
G01X2800053Y496006D01*
G01X2800863Y493126D01*
G01X2801818Y490291D01*
G01X2802910Y487505D01*
G01X2804140Y484779D01*
G01X2805506Y482117D01*
G01X2807002Y479527D01*
G01X2808625Y477012D01*
G01X2810370Y474584D01*
G01X2812235Y472244D01*
G01X2814216Y470002D01*
G01X2816304Y467860D01*
G01X2818498Y465826D01*
G01X2820789Y463903D01*
G01X2823174Y462095D01*
G01X2825646Y460411D01*
G01X2828199Y458851D01*
G01X2830825Y457418D01*
G01X2833522Y456121D01*
G01X2836278Y454960D01*
G01X2839090Y453936D01*
G01X2841948Y453055D01*
G01X2844848Y452316D01*
G01X2847779Y451724D01*
G01X2850739Y451277D01*
G01X2853715Y450980D01*
G01X2856702Y450830D01*
G01X2859695Y450830D01*
G01X2862682Y450980D01*
G01X2865658Y451277D01*
G01X2868618Y451724D01*
G01X2871549Y452316D01*
G01X2874449Y453055D01*
G01X2877307Y453936D01*
G01X2880119Y454960D01*
G01X2882875Y456121D01*
G01X2885572Y457418D01*
G01X2888198Y458851D01*
G01X2890751Y460411D01*
G01X2893223Y462095D01*
G01X2895608Y463903D01*
G01X2897899Y465826D01*
G01X2900093Y467860D01*
G01X2902181Y470002D01*
G01X2904162Y472244D01*
G01X2906027Y474584D01*
G01X2907772Y477012D01*
G01X2909395Y479527D01*
G01X2910891Y482117D01*
G01X2912257Y484779D01*
G01X2913487Y487505D01*
G01X2914579Y490291D01*
G01X2915534Y493126D01*
G01X2916344Y496006D01*
G01X2917010Y498922D01*
G01X2917528Y501868D01*
G01X2917901Y504838D01*
G01X2918125Y507822D01*
G01X2918198Y510812D01*
G01X2918198Y590812D01*
G01X2918125Y593801D01*
G01X2917901Y596786D01*
G01X2917528Y599755D01*
G01X2917010Y602701D01*
G01X2916344Y605617D01*
G01X2915534Y608498D01*
G01X2914579Y611332D01*
G01X2913487Y614119D01*
G01X2912257Y616844D01*
G01X2910891Y619506D01*
G01X2909395Y622097D01*
G01X2907772Y624611D01*
G01X2906027Y627040D01*
G01X2904162Y629379D01*
G01X2902181Y631622D01*
G01X2900093Y633763D01*
G01X2897899Y635798D01*
G01X2895608Y637720D01*
G01X2893223Y639529D01*
G01X2890751Y641213D01*
G01X2888198Y642772D01*
G01X2885572Y644205D01*
G01X2882875Y645503D01*
G01X2880119Y646664D01*
G01X2877307Y647687D01*
G01X2874449Y648569D01*
G01X2871549Y649308D01*
G01X2868618Y649900D01*
G01X2865658Y650347D01*
G01X2862682Y650644D01*
G37*
G36*
G01X1991705Y650794D02*
G01X1988718Y650644D01*
G01X1985742Y650347D01*
G01X1982782Y649900D01*
G01X1979851Y649308D01*
G01X1976951Y648569D01*
G01X1974093Y647687D01*
G01X1971281Y646664D01*
G01X1968525Y645503D01*
G01X1965828Y644205D01*
G01X1963202Y642772D01*
G01X1960649Y641213D01*
G01X1958177Y639529D01*
G01X1955792Y637720D01*
G01X1953501Y635798D01*
G01X1951307Y633763D01*
G01X1949219Y631622D01*
G01X1947238Y629379D01*
G01X1945373Y627040D01*
G01X1943628Y624611D01*
G01X1942005Y622097D01*
G01X1940509Y619506D01*
G01X1939143Y616844D01*
G01X1937913Y614119D01*
G01X1936821Y611332D01*
G01X1935866Y608498D01*
G01X1935056Y605617D01*
G01X1934390Y602701D01*
G01X1933872Y599755D01*
G01X1933499Y596786D01*
G01X1933275Y593801D01*
G01X1933202Y590812D01*
G01X1933202Y510812D01*
G01X1933275Y507822D01*
G01X1933499Y504838D01*
G01X1933872Y501868D01*
G01X1934390Y498922D01*
G01X1935056Y496006D01*
G01X1935866Y493126D01*
G01X1936821Y490291D01*
G01X1937913Y487505D01*
G01X1939143Y484779D01*
G01X1940509Y482117D01*
G01X1942005Y479527D01*
G01X1943628Y477012D01*
G01X1945373Y474584D01*
G01X1947238Y472244D01*
G01X1949219Y470002D01*
G01X1951307Y467860D01*
G01X1953501Y465826D01*
G01X1955792Y463903D01*
G01X1958177Y462095D01*
G01X1960649Y460411D01*
G01X1963202Y458851D01*
G01X1965828Y457418D01*
G01X1968525Y456121D01*
G01X1971281Y454960D01*
G01X1974093Y453936D01*
G01X1976951Y453055D01*
G01X1979851Y452316D01*
G01X1982782Y451724D01*
G01X1985742Y451277D01*
G01X1988718Y450980D01*
G01X1991705Y450830D01*
G01X1994698Y450830D01*
G01X1997685Y450980D01*
G01X2000661Y451277D01*
G01X2003621Y451724D01*
G01X2006552Y452316D01*
G01X2009452Y453055D01*
G01X2012310Y453936D01*
G01X2015122Y454960D01*
G01X2017878Y456121D01*
G01X2020575Y457418D01*
G01X2023201Y458851D01*
G01X2025754Y460411D01*
G01X2028226Y462095D01*
G01X2030611Y463903D01*
G01X2032902Y465826D01*
G01X2035096Y467860D01*
G01X2037184Y470002D01*
G01X2039165Y472244D01*
G01X2041030Y474584D01*
G01X2042775Y477012D01*
G01X2044398Y479527D01*
G01X2045894Y482117D01*
G01X2047260Y484779D01*
G01X2048490Y487505D01*
G01X2049582Y490291D01*
G01X2050537Y493126D01*
G01X2051347Y496006D01*
G01X2052013Y498922D01*
G01X2052531Y501868D01*
G01X2052904Y504838D01*
G01X2053128Y507822D01*
G01X2053201Y510812D01*
G01X2053201Y590812D01*
G01X2053128Y593801D01*
G01X2052904Y596786D01*
G01X2052531Y599755D01*
G01X2052013Y602701D01*
G01X2051347Y605617D01*
G01X2050537Y608498D01*
G01X2049582Y611332D01*
G01X2048490Y614119D01*
G01X2047260Y616844D01*
G01X2045894Y619506D01*
G01X2044398Y622097D01*
G01X2042775Y624611D01*
G01X2041030Y627040D01*
G01X2039165Y629379D01*
G01X2037184Y631622D01*
G01X2035096Y633763D01*
G01X2032902Y635798D01*
G01X2030611Y637720D01*
G01X2028226Y639529D01*
G01X2025754Y641213D01*
G01X2023201Y642772D01*
G01X2020575Y644205D01*
G01X2017878Y645503D01*
G01X2015122Y646664D01*
G01X2012310Y647687D01*
G01X2009452Y648569D01*
G01X2006552Y649308D01*
G01X2003621Y649900D01*
G01X2000661Y650347D01*
G01X1997685Y650644D01*
G01X1994698Y650794D01*
G01X1991705Y650794D01*
G37*
G36*
G01X1997685Y205628D02*
G01X1994698Y205778D01*
G01X1991705Y205778D01*
G01X1988718Y205628D01*
G01X1985742Y205331D01*
G01X1982782Y204884D01*
G01X1979851Y204292D01*
G01X1976951Y203553D01*
G01X1974093Y202672D01*
G01X1971281Y201648D01*
G01X1968525Y200487D01*
G01X1965828Y199189D01*
G01X1963202Y197757D01*
G01X1960649Y196197D01*
G01X1958177Y194513D01*
G01X1955792Y192705D01*
G01X1953501Y190782D01*
G01X1951307Y188747D01*
G01X1949219Y186606D01*
G01X1947238Y184363D01*
G01X1945373Y182024D01*
G01X1943628Y179596D01*
G01X1942005Y177081D01*
G01X1940509Y174490D01*
G01X1939143Y171828D01*
G01X1937913Y169103D01*
G01X1936821Y166317D01*
G01X1935866Y163482D01*
G01X1935056Y160602D01*
G01X1934390Y157686D01*
G01X1933872Y154739D01*
G01X1933499Y151770D01*
G01X1933275Y148786D01*
G01X1933202Y145796D01*
G01X1933202Y115796D01*
G01X1933275Y112806D01*
G01X1933499Y109822D01*
G01X1933872Y106853D01*
G01X1934390Y103906D01*
G01X1935056Y100990D01*
G01X1935866Y98110D01*
G01X1936821Y95275D01*
G01X1937913Y92489D01*
G01X1939143Y89764D01*
G01X1940509Y87102D01*
G01X1942005Y84511D01*
G01X1943628Y81996D01*
G01X1945373Y79568D01*
G01X1947238Y77229D01*
G01X1949219Y74986D01*
G01X1951307Y72845D01*
G01X1953501Y70810D01*
G01X1955792Y68887D01*
G01X1958177Y67079D01*
G01X1960649Y65395D01*
G01X1963202Y63835D01*
G01X1965828Y62403D01*
G01X1968525Y61105D01*
G01X1971281Y59944D01*
G01X1974093Y58920D01*
G01X1976951Y58039D01*
G01X1979851Y57300D01*
G01X1982782Y56708D01*
G01X1985742Y56261D01*
G01X1988718Y55964D01*
G01X1991705Y55814D01*
G01X1994698Y55814D01*
G01X1997685Y55964D01*
G01X2000661Y56261D01*
G01X2003621Y56708D01*
G01X2006552Y57300D01*
G01X2009452Y58039D01*
G01X2012310Y58920D01*
G01X2015122Y59944D01*
G01X2017878Y61105D01*
G01X2020575Y62403D01*
G01X2023201Y63835D01*
G01X2025754Y65395D01*
G01X2028226Y67079D01*
G01X2030611Y68887D01*
G01X2032902Y70810D01*
G01X2035096Y72845D01*
G01X2037184Y74986D01*
G01X2039165Y77229D01*
G01X2041030Y79568D01*
G01X2042775Y81996D01*
G01X2044398Y84511D01*
G01X2045894Y87102D01*
G01X2047260Y89764D01*
G01X2048490Y92489D01*
G01X2049582Y95275D01*
G01X2050537Y98110D01*
G01X2051347Y100990D01*
G01X2052013Y103906D01*
G01X2052531Y106853D01*
G01X2052904Y109822D01*
G01X2053128Y112806D01*
G01X2053201Y115796D01*
G01X2053201Y145796D01*
G01X2053128Y148786D01*
G01X2052904Y151770D01*
G01X2052531Y154739D01*
G01X2052013Y157686D01*
G01X2051347Y160602D01*
G01X2050537Y163482D01*
G01X2049582Y166317D01*
G01X2048490Y169103D01*
G01X2047260Y171828D01*
G01X2045894Y174490D01*
G01X2044398Y177081D01*
G01X2042775Y179596D01*
G01X2041030Y182024D01*
G01X2039165Y184363D01*
G01X2037184Y186606D01*
G01X2035096Y188747D01*
G01X2032902Y190782D01*
G01X2030611Y192705D01*
G01X2028226Y194513D01*
G01X2025754Y196197D01*
G01X2023201Y197757D01*
G01X2020575Y199189D01*
G01X2017878Y200487D01*
G01X2015122Y201648D01*
G01X2012310Y202672D01*
G01X2009452Y203553D01*
G01X2006552Y204292D01*
G01X2003621Y204884D01*
G01X2000661Y205331D01*
G01X1997685Y205628D01*
G37*
G36*
G01X2856702Y205778D02*
G01X2853715Y205628D01*
G01X2850739Y205331D01*
G01X2847779Y204884D01*
G01X2844848Y204292D01*
G01X2841948Y203553D01*
G01X2839090Y202672D01*
G01X2836278Y201648D01*
G01X2833522Y200487D01*
G01X2830825Y199189D01*
G01X2828199Y197757D01*
G01X2825646Y196197D01*
G01X2823174Y194513D01*
G01X2820789Y192705D01*
G01X2818498Y190782D01*
G01X2816304Y188747D01*
G01X2814216Y186606D01*
G01X2812235Y184363D01*
G01X2810370Y182024D01*
G01X2808625Y179596D01*
G01X2807002Y177081D01*
G01X2805506Y174490D01*
G01X2804140Y171828D01*
G01X2802910Y169103D01*
G01X2801818Y166317D01*
G01X2800863Y163482D01*
G01X2800053Y160602D01*
G01X2799387Y157686D01*
G01X2798869Y154739D01*
G01X2798496Y151770D01*
G01X2798272Y148786D01*
G01X2798199Y145796D01*
G01X2798199Y115796D01*
G01X2798272Y112806D01*
G01X2798496Y109822D01*
G01X2798869Y106853D01*
G01X2799387Y103906D01*
G01X2800053Y100990D01*
G01X2800863Y98110D01*
G01X2801818Y95275D01*
G01X2802910Y92489D01*
G01X2804140Y89764D01*
G01X2805506Y87102D01*
G01X2807002Y84511D01*
G01X2808625Y81996D01*
G01X2810370Y79568D01*
G01X2812235Y77229D01*
G01X2814216Y74986D01*
G01X2816304Y72845D01*
G01X2818498Y70810D01*
G01X2820789Y68887D01*
G01X2823174Y67079D01*
G01X2825646Y65395D01*
G01X2828199Y63835D01*
G01X2830825Y62403D01*
G01X2833522Y61105D01*
G01X2836278Y59944D01*
G01X2839090Y58920D01*
G01X2841948Y58039D01*
G01X2844848Y57300D01*
G01X2847779Y56708D01*
G01X2850739Y56261D01*
G01X2853715Y55964D01*
G01X2856702Y55814D01*
G01X2859695Y55814D01*
G01X2862682Y55964D01*
G01X2865658Y56261D01*
G01X2868618Y56708D01*
G01X2871549Y57300D01*
G01X2874449Y58039D01*
G01X2877307Y58920D01*
G01X2880119Y59944D01*
G01X2882875Y61105D01*
G01X2885572Y62403D01*
G01X2888198Y63835D01*
G01X2890751Y65395D01*
G01X2893223Y67079D01*
G01X2895608Y68887D01*
G01X2897899Y70810D01*
G01X2900093Y72845D01*
G01X2902181Y74986D01*
G01X2904162Y77229D01*
G01X2906027Y79568D01*
G01X2907772Y81996D01*
G01X2909395Y84511D01*
G01X2910891Y87102D01*
G01X2912257Y89764D01*
G01X2913487Y92489D01*
G01X2914579Y95275D01*
G01X2915534Y98110D01*
G01X2916344Y100990D01*
G01X2917010Y103906D01*
G01X2917528Y106853D01*
G01X2917901Y109822D01*
G01X2918125Y112806D01*
G01X2918198Y115796D01*
G01X2918198Y145796D01*
G01X2918125Y148786D01*
G01X2917901Y151770D01*
G01X2917528Y154739D01*
G01X2917010Y157686D01*
G01X2916344Y160602D01*
G01X2915534Y163482D01*
G01X2914579Y166317D01*
G01X2913487Y169103D01*
G01X2912257Y171828D01*
G01X2910891Y174490D01*
G01X2909395Y177081D01*
G01X2907772Y179596D01*
G01X2906027Y182024D01*
G01X2904162Y184363D01*
G01X2902181Y186606D01*
G01X2900093Y188747D01*
G01X2897899Y190782D01*
G01X2895608Y192705D01*
G01X2893223Y194513D01*
G01X2890751Y196197D01*
G01X2888198Y197757D01*
G01X2885572Y199189D01*
G01X2882875Y200487D01*
G01X2880119Y201648D01*
G01X2877307Y202672D01*
G01X2874449Y203553D01*
G01X2871549Y204292D01*
G01X2868618Y204884D01*
G01X2865658Y205331D01*
G01X2862682Y205628D01*
G01X2859695Y205778D01*
G01X2856702Y205778D01*
G37*
G36*
G01X4590893Y290505D02*
G02X4710892Y290505I60000J0D01*
G01X4710892Y100503D01*
G02X4590893Y100503I-60000J0D01*
G01X4590893Y290505D01*
G37*
G36*
G01X5880908Y290505D02*
G02X6000907Y290505I60000J0D01*
G01X6000907Y100503D01*
G02X5880908Y100503I-60000J0D01*
G01X5880908Y290505D01*
G37*
G36*
G01X5589900Y1218496D02*
G01X5701899Y1218496D01*
G01X5701899Y930496D01*
G01X5589900Y930496D01*
G01X5589900Y1218496D01*
G37*
G36*
G01X5339900Y1218496D02*
G01X5451899Y1218496D01*
G01X5451899Y930496D01*
G01X5339900Y930496D01*
G01X5339900Y1218496D01*
G37*
G36*
G01X5139901Y1218496D02*
G01X5251900Y1218496D01*
G01X5251900Y930496D01*
G01X5139901Y930496D01*
G01X5139901Y1218496D01*
G37*
G36*
G01X4889901Y1218496D02*
G01X5001900Y1218496D01*
G01X5001900Y930496D01*
G01X4889901Y930496D01*
G01X4889901Y1218496D01*
G37*

G04 Pad Start*
G54D10*
G01X927100Y1238103D03*
G01X927100Y1378107D03*
G54D11*
G01X1911502Y812800D03*
G01X1771498Y812800D03*
G01X6076798Y1092200D03*
G01X6216802Y1092200D03*
G01X4425798Y1079500D03*
G01X4565802Y1079500D03*
G01X3676498Y1473200D03*
G01X3816502Y1473200D03*
G01X1733702Y1714500D03*
G01X1593698Y1714500D03*
G01X2978302Y1016000D03*
G01X2838298Y1016000D03*
G54D10*
G01X2952741Y1346049D03*
G01X2952741Y1486054D03*
G01X2749541Y1346049D03*
G01X2749541Y1486054D03*
G01X2552700Y1339698D03*
G01X2552700Y1479702D03*
G54D11*
G01X2152498Y1714500D03*
G01X2292502Y1714500D03*
G54D12*
G01X1610690Y1506296D03*
G01X1610690Y1453286D03*
G01X1610690Y1400302D03*
G01X1610690Y1347292D03*
G01X1610690Y1294308D03*
G01X1610690Y1241298D03*
G01X1610690Y1188288D03*
G01X1610690Y1135304D03*
G01X1970710Y1135304D03*
G01X1970710Y1188288D03*
G01X1970710Y1241298D03*
G01X1970710Y1294308D03*
G01X1970710Y1347292D03*
G01X1970710Y1400302D03*
G01X1970710Y1453286D03*
G01X1970710Y1506296D03*
G04 Pad End*

M02*

