G04 Layer: DrillDrawingLayer*
G04 EasyEDA Pro v2.2.47.7, 2026-04-30 16:02:43*
G04 Gerber Generator version 0.3*
G04 Scale: 100 percent, Rotated: No, Reflected: No*
G04 Dimensions in millimeters*
G04 Leading zeros omitted, absolute positions, 4 integers and 5 decimals*
G04 Generated by one-click*
G04 Object Configs: Pad,Via,Track,Text,Image,Dimension,BoardOutline,BoardCutout,CopperFilled,SolidRegion,FPCStiffener,Line,PlaneZone,ComponentProperty,ComponentSilkscreen,TearDrop*
G04 Layer Configs: 1,2,3,4,5,6,7,8,9,10,11,13,14,56*
G04 Copper Areas: 0*
%FSLAX45Y45*%
%MOMM*%
%AMIconRect*4,1,4,0.28,-0.28,-0.28,-0.28,-0.28,0.28,0.28,0.28,0.28,-0.28,0*4,0,4,0.233333,-0.233333,0.233333,0.233333,-0.233333,0.233333,-0.233333,-0.233333,0.233333,-0.233333,0*%
%AMIconTriangle*4,1,3,-0.339593,0.240473,0.339593,0.240473,0,-0.37884,-0.339593,0.240473,0*4,0,3,-0.265673,0.19404,0,-0.27342,0.266233,0.19404,-0.265673,0.19404,0*%
%AMIconStar6*4,1,12,0.12068,0.20888,0.298527,0.172713,0.241313,0,0.298527,-0.17206,0.12068,-0.208227,0,-0.344073,-0.120073,-0.208227,-0.298573,-0.17206,-0.240707,0,-0.298573,0.17206,-0.120073,0.20888,0,0.344073,0.12068,0.20888,0*4,0,12,-0.000467,0.273467,-0.090067,0.171733,-0.237533,0.136733,-0.193667,-0.007467,-0.237533,-0.1372,-0.090067,-0.171733,-0.000467,-0.273933,0.090067,-0.171733,0.237533,-0.1372,0.194133,0.007,0.237533,0.1372,0.090067,0.171267,-0.000467,0.273467,0*%
%AMIconStar4*4,1,8,-0.311733,0.311733,0,0.202533,0.311733,0.311733,0.202533,0,0.311733,-0.311733,0,-0.202533,-0.304407,-0.311733,-0.202533,0,-0.311733,0.311733,0*4,0,8,0.233333,-0.233333,0.1512,0,0.233333,0.233333,0,0.1512,-0.233333,0.233333,-0.1512,0,-0.233333,-0.233333,0,-0.1512,0.233333,-0.233333,0*%
%AMIconPlus*4,1,12,0.1736,-0.28,-0.1736,-0.28,-0.1736,-0.1736,-0.28,-0.1736,-0.28,0.1736,-0.1736,0.1736,-0.1736,0.28,0.1736,0.28,0.1736,0.1736,0.28,0.1736,0.28,-0.1736,0.1736,-0.1736,0.1736,-0.28,0*4,0,12,0.126933,-0.233333,0.126933,-0.126933,0.233333,-0.126933,0.233333,0.126933,0.126933,0.126933,0.126933,0.233333,-0.126933,0.233333,-0.126933,0.126933,-0.233333,0.126933,-0.233333,-0.126933,-0.126933,-0.126933,-0.126933,-0.233333,0.126933,-0.233333,0*%
%ADD10IconRect*%
%ADD11C,0.616X0.522667*%
%ADD12IconTriangle*%
%ADD13IconStar6*%
%ADD14IconStar4*%
%ADD15IconPlus*%
G75*


G04 Drill Drawing Start*
G54D10*
G01X736600Y1612900D03*
G01X5943600Y1536700D03*
G01X6159500Y457200D03*
G54D11*
G01X3126892Y195504D03*
G01X4416908Y195504D03*
G01X4650892Y195504D03*
G01X5940908Y195504D03*
G54D12*
G01X550812Y481902D03*
G01X550812Y1346899D03*
G01X824802Y550812D03*
G01X1689799Y550812D03*
G01X1993202Y550812D03*
G01X2858199Y550812D03*
G54D13*
G01X130797Y481902D03*
G01X130797Y1346899D03*
G01X824802Y130797D03*
G01X1689799Y130797D03*
G01X1993202Y130797D03*
G01X2858199Y130797D03*
G54D14*
G01X498793Y625386D03*
G01X498793Y1203389D03*
G01X968312Y498793D03*
G01X1546314Y498793D03*
G01X2136712Y498793D03*
G01X2714714Y498793D03*
G54D15*
G01X520700Y1651000D03*
G01X647700Y292100D03*
G01X977900Y1562100D03*
G01X1210995Y1179205D03*
G01X1228580Y1103004D03*
G01X1280790Y1414209D03*
G01X1334672Y1360327D03*
G01X1440949Y1190195D03*
G01X1447800Y1701800D03*
G01X1475844Y1263063D03*
G01X1752600Y1155700D03*
G01X1828800Y1294308D03*
G01X1841500Y660400D03*
G01X2095500Y1206500D03*
G01X2133600Y1130300D03*
G01X2311400Y1479702D03*
G01X2337600Y383520D03*
G01X2413800Y383520D03*
G01X2425700Y1333500D03*
G01X2425700Y1612900D03*
G01X2438400Y1739900D03*
G01X2743200Y1231900D03*
G01X2895600Y825500D03*
G01X3924300Y1638300D03*
G01X4279900Y1206500D03*
G01X4546600Y1219200D03*
G01X5803900Y1282700D03*
G01X6223000Y939800D03*
G04 Drill Drawing End*

M02*

