G04 Layer: BottomLayer*
G04 EasyEDA Pro v2.2.47.7, 2026-04-30 16:02:43*
G04 Gerber Generator version 0.3*
G04 Scale: 100 percent, Rotated: No, Reflected: No*
G04 Dimensions in millimeters*
G04 Leading zeros omitted, absolute positions, 4 integers and 5 decimals*
G04 Generated by one-click*
G04 Object Configs: Pad,Via,Track,Text,Image,Dimension,BoardOutline,BoardCutout,CopperFilled,SolidRegion,FPCStiffener,Line,PlaneZone,ComponentProperty,ComponentSilkscreen,TearDrop*
G04 Layer Configs: 1,2,3,4,5,6,7,8,9,10,11,13,14,56*
G04 Copper Areas: 55*
%FSLAX45Y45*%
%MOMM*%
%ADD10C,0.2032*%
%ADD11C,0.254*%
%ADD12O,2.0X1.1*%
%ADD13O,1.8X1.2*%
%ADD14O,1.2X3.09999*%
%ADD15O,1.1020X2.0*%
%ADD16O,1.1X2.0*%
%ADD17O,1.2X1.8*%
%ADD18C,0.61*%
G75*


G04 Copper Start*
G36*
G01X508000Y23114D02*
G01X464722Y25101D01*
G01X421809Y31047D01*
G01X379621Y40901D01*
G01X338514Y54580D01*
G01X298834Y71969D01*
G01X260914Y92922D01*
G01X225075Y117262D01*
G01X191617Y144784D01*
G01X160823Y175257D01*
G01X132951Y208424D01*
G01X108236Y244007D01*
G01X86887Y281704D01*
G01X69082Y321200D01*
G01X54973Y362161D01*
G01X44677Y404243D01*
G01X57462Y396448D01*
G01X71305Y390739D01*
G01X85869Y387258D01*
G01X100797Y386088D01*
G01X160797Y386088D01*
G01X179490Y387929D01*
G01X197464Y393381D01*
G01X214029Y402235D01*
G01X228548Y414151D01*
G01X240464Y428670D01*
G01X249318Y445235D01*
G01X254770Y463209D01*
G01X256611Y481902D01*
G01X255927Y488849D01*
G01X415264Y488849D01*
G01X415757Y470188D01*
G01X420054Y452022D01*
G01X427975Y435118D01*
G01X439186Y420192D01*
G01X453211Y407872D01*
G01X469459Y398681D01*
G01X487243Y393006D01*
G01X505812Y391088D01*
G01X505812Y391088D01*
G01X595812Y391088D01*
G01X614693Y393072D01*
G01X632749Y398939D01*
G01X649191Y408432D01*
G01X663299Y421135D01*
G01X674459Y436495D01*
G01X682181Y453838D01*
G01X686128Y472409D01*
G01X686128Y491394D01*
G01X682181Y509965D01*
G01X674459Y527308D01*
G01X663299Y542668D01*
G01X649191Y555371D01*
G01X632749Y564864D01*
G01X614693Y570731D01*
G01X595812Y572715D01*
G01X546127Y572715D01*
G01X556880Y584882D01*
G01X562767Y595812D01*
G01X733988Y595812D01*
G01X733988Y505812D01*
G01X735907Y487241D01*
G01X741583Y469455D01*
G01X750776Y453206D01*
G01X763098Y439180D01*
G01X778027Y427970D01*
G01X794934Y420050D01*
G01X813102Y415755D01*
G01X831766Y415265D01*
G01X850134Y418603D01*
G01X867433Y425626D01*
G01X882929Y436038D01*
G01X895969Y449399D01*
G01X906001Y465145D01*
G01X915305Y451834D01*
G01X927397Y440993D01*
G01X941641Y433191D01*
G01X957288Y428841D01*
G01X973515Y428169D01*
G01X989468Y431211D01*
G01X1004308Y437808D01*
G01X1017255Y447613D01*
G01X1027627Y460109D01*
G01X1034881Y474640D01*
G01X1038633Y490441D01*
G01X1038686Y506673D01*
G01X1475939Y506673D01*
G01X1475994Y490436D01*
G01X1475994Y490436D01*
G01X1479746Y474638D01*
G01X1486997Y460110D01*
G01X1497368Y447615D01*
G01X1510312Y437812D01*
G01X1525148Y431214D01*
G01X1541098Y428170D01*
G01X1557322Y428838D01*
G01X1572967Y433184D01*
G01X1587210Y440980D01*
G01X1599304Y451815D01*
G01X1608611Y465120D01*
G01X1618647Y449380D01*
G01X1631689Y436024D01*
G01X1647186Y425616D01*
G01X1664484Y418598D01*
G01X1682851Y415264D01*
G01X1701512Y415757D01*
G01X1719678Y420054D01*
G01X1736582Y427975D01*
G01X1751508Y439186D01*
G01X1763828Y453211D01*
G01X1773019Y469459D01*
G01X1778694Y487243D01*
G01X1780612Y505812D01*
G01X1780612Y595812D01*
G01X1902388Y595812D01*
G01X1902388Y505812D01*
G01X1904307Y487241D01*
G01X1909983Y469455D01*
G01X1919176Y453206D01*
G01X1931498Y439180D01*
G01X1946427Y427970D01*
G01X1963334Y420050D01*
G01X1981502Y415755D01*
G01X2000166Y415265D01*
G01X2018534Y418603D01*
G01X2035833Y425626D01*
G01X2051329Y436038D01*
G01X2064369Y449399D01*
G01X2074401Y465145D01*
G01X2083705Y451834D01*
G01X2095797Y440993D01*
G01X2110041Y433191D01*
G01X2125688Y428841D01*
G01X2141915Y428169D01*
G01X2157868Y431211D01*
G01X2172708Y437808D01*
G01X2185655Y447613D01*
G01X2196027Y460109D01*
G01X2203281Y474640D01*
G01X2207033Y490441D01*
G01X2207086Y506681D01*
G01X2203438Y522507D01*
G01X2196281Y537085D01*
G01X2185990Y549649D01*
G01X2173108Y559538D01*
G01X2158312Y566233D01*
G01X2142379Y569381D01*
G01X2126149Y568816D01*
G01X2110474Y564568D01*
G01X2096179Y556860D01*
G01X2084015Y546099D01*
G01X2084015Y595812D01*
G01X2084015Y595812D01*
G01X2082031Y614693D01*
G01X2076164Y632749D01*
G01X2066671Y649191D01*
G01X2053968Y663299D01*
G01X2038608Y674459D01*
G01X2021265Y682181D01*
G01X2002694Y686128D01*
G01X1983709Y686128D01*
G01X1965138Y682181D01*
G01X1947795Y674459D01*
G01X1932435Y663299D01*
G01X1919732Y649191D01*
G01X1910239Y632749D01*
G01X1904372Y614693D01*
G01X1902388Y595812D01*
G01X1780612Y595812D01*
G01X1778628Y614693D01*
G01X1772761Y632749D01*
G01X1763268Y649191D01*
G01X1750565Y663299D01*
G01X1735205Y674459D01*
G01X1717862Y682181D01*
G01X1699291Y686128D01*
G01X1680306Y686128D01*
G01X1661735Y682181D01*
G01X1644392Y674459D01*
G01X1629032Y663299D01*
G01X1616329Y649191D01*
G01X1606836Y632749D01*
G01X1600969Y614693D01*
G01X1598985Y595812D01*
G01X1598985Y546127D01*
G01X1586818Y556880D01*
G01X1572522Y564580D01*
G01X1556848Y568820D01*
G01X1540620Y569378D01*
G01X1524692Y566226D01*
G01X1509900Y559528D01*
G01X1497023Y549637D01*
G01X1486737Y537073D01*
G01X1479584Y522496D01*
G01X1475939Y506673D01*
G01X1038686Y506673D01*
G01X1038686Y506681D01*
G01X1035038Y522507D01*
G01X1027881Y537085D01*
G01X1017590Y549649D01*
G01X1004708Y559538D01*
G01X989912Y566233D01*
G01X973979Y569381D01*
G01X957749Y568816D01*
G01X942074Y564568D01*
G01X927779Y556860D01*
G01X915615Y546099D01*
G01X915615Y595812D01*
G01X915615Y595812D01*
G01X913631Y614693D01*
G01X907764Y632749D01*
G01X898271Y649191D01*
G01X885568Y663299D01*
G01X870208Y674459D01*
G01X852865Y682181D01*
G01X834294Y686128D01*
G01X815309Y686128D01*
G01X796738Y682181D01*
G01X779395Y674459D01*
G01X764035Y663299D01*
G01X751332Y649191D01*
G01X741839Y632749D01*
G01X735972Y614693D01*
G01X733988Y595812D01*
G01X562767Y595812D01*
G01X564580Y599178D01*
G01X568820Y614852D01*
G01X569378Y631080D01*
G01X566226Y647008D01*
G01X559528Y661800D01*
G01X549637Y674677D01*
G01X537073Y684963D01*
G01X522496Y692116D01*
G01X506673Y695761D01*
G01X490436Y695706D01*
G01X474638Y691954D01*
G01X460110Y684703D01*
G01X447615Y674332D01*
G01X437812Y661388D01*
G01X431214Y646552D01*
G01X428170Y630602D01*
G01X428838Y614378D01*
G01X433184Y598733D01*
G01X440980Y584490D01*
G01X451815Y572396D01*
G01X465120Y563089D01*
G01X449380Y553053D01*
G01X436024Y540011D01*
G01X425616Y524514D01*
G01X418598Y507216D01*
G01X415264Y488849D01*
G01X255927Y488849D01*
G01X254770Y500594D01*
G01X249318Y518568D01*
G01X240464Y535133D01*
G01X228548Y549652D01*
G01X214029Y561568D01*
G01X197464Y570422D01*
G01X179490Y575874D01*
G01X160797Y577715D01*
G01X100797Y577715D01*
G01X83047Y576057D01*
G01X65911Y571138D01*
G01X49983Y563131D01*
G01X35814Y552311D01*
G01X35814Y1276489D01*
G01X49983Y1265669D01*
G01X65911Y1257662D01*
G01X83047Y1252743D01*
G01X100797Y1251085D01*
G01X160797Y1251085D01*
G01X179490Y1252926D01*
G01X197464Y1258378D01*
G01X214029Y1267232D01*
G01X228548Y1279148D01*
G01X240464Y1293667D01*
G01X249318Y1310232D01*
G01X254770Y1328206D01*
G01X255925Y1339934D01*
G01X415265Y1339934D01*
G01X418603Y1321566D01*
G01X425626Y1304267D01*
G01X436038Y1288771D01*
G01X449399Y1275731D01*
G01X465145Y1265699D01*
G01X451834Y1256395D01*
G01X440993Y1244303D01*
G01X433191Y1230059D01*
G01X428841Y1214412D01*
G01X428169Y1198185D01*
G01X431211Y1182232D01*
G01X437808Y1167392D01*
G01X447613Y1154445D01*
G01X460109Y1144073D01*
G01X474640Y1136819D01*
G01X490441Y1133067D01*
G01X490441Y1133067D01*
G01X506681Y1133014D01*
G01X522507Y1136662D01*
G01X537085Y1143819D01*
G01X549649Y1154110D01*
G01X554043Y1159834D01*
G01X1003046Y1159834D01*
G01X1003046Y1100766D01*
G01X1004699Y1088210D01*
G01X1009546Y1076509D01*
G01X1017255Y1066462D01*
G01X1142662Y941055D01*
G01X1152709Y933346D01*
G01X1164410Y928499D01*
G01X1176966Y926846D01*
G01X1842525Y926846D01*
G01X2299685Y469686D01*
G01X2299685Y469686D01*
G01X2293897Y460483D01*
G01X2290304Y450223D01*
G01X2289086Y439420D01*
G01X2289086Y428730D01*
G01X2279587Y415646D01*
G01X2273537Y400653D01*
G01X2271295Y384641D01*
G01X2272995Y368563D01*
G01X2278534Y353373D01*
G01X2287585Y339976D01*
G01X2299609Y329167D01*
G01X2313891Y321589D01*
G01X2329582Y317692D01*
G01X2345750Y317708D01*
G01X2361433Y321637D01*
G01X2375700Y329243D01*
G01X2389967Y321637D01*
G01X2405650Y317708D01*
G01X2421818Y317692D01*
G01X2437510Y321589D01*
G01X2451792Y329167D01*
G01X2463815Y339976D01*
G01X2472866Y353373D01*
G01X2478406Y368563D01*
G01X2480105Y384641D01*
G01X2477863Y400653D01*
G01X2471813Y415646D01*
G01X2462314Y428730D01*
G01X2462314Y439420D01*
G01X2460661Y451976D01*
G01X2455815Y463677D01*
G01X2448105Y473724D01*
G01X2444534Y477295D01*
G01X2444534Y499434D01*
G01X2443581Y506673D01*
G01X2644339Y506673D01*
G01X2644394Y490436D01*
G01X2644394Y490436D01*
G01X2648146Y474638D01*
G01X2655397Y460110D01*
G01X2665768Y447615D01*
G01X2678712Y437812D01*
G01X2693548Y431214D01*
G01X2709498Y428170D01*
G01X2725722Y428838D01*
G01X2741367Y433184D01*
G01X2755610Y440980D01*
G01X2767704Y451815D01*
G01X2777011Y465120D01*
G01X2787047Y449380D01*
G01X2800089Y436024D01*
G01X2815586Y425616D01*
G01X2832884Y418598D01*
G01X2851251Y415264D01*
G01X2869912Y415757D01*
G01X2888078Y420054D01*
G01X2904982Y427975D01*
G01X2919908Y439186D01*
G01X2932228Y453211D01*
G01X2934484Y457200D01*
G01X6013686Y457200D01*
G01X6015675Y433200D01*
G01X6021587Y409854D01*
G01X6031260Y387800D01*
G01X6044432Y367639D01*
G01X6060743Y349921D01*
G01X6079747Y335129D01*
G01X6100927Y323667D01*
G01X6123705Y315848D01*
G01X6147459Y311884D01*
G01X6171541Y311884D01*
G01X6195295Y315848D01*
G01X6218073Y323667D01*
G01X6239253Y335129D01*
G01X6258257Y349921D01*
G01X6274568Y367639D01*
G01X6287740Y387800D01*
G01X6297413Y409854D01*
G01X6303325Y433200D01*
G01X6305314Y457200D01*
G01X6303325Y481200D01*
G01X6297413Y504546D01*
G01X6287740Y526600D01*
G01X6274568Y546761D01*
G01X6258257Y564479D01*
G01X6239253Y579271D01*
G01X6218073Y590733D01*
G01X6195295Y598552D01*
G01X6171541Y602516D01*
G01X6147459Y602516D01*
G01X6123705Y598552D01*
G01X6100927Y590733D01*
G01X6079747Y579271D01*
G01X6060743Y564479D01*
G01X6044432Y546761D01*
G01X6031260Y526600D01*
G01X6021587Y504546D01*
G01X6015675Y481200D01*
G01X6013686Y457200D01*
G01X6013686Y457200D01*
G01X2934484Y457200D01*
G01X2941419Y469459D01*
G01X2947094Y487243D01*
G01X2949012Y505812D01*
G01X2949012Y595812D01*
G01X2947028Y614693D01*
G01X2941161Y632749D01*
G01X2931668Y649191D01*
G01X2918965Y663299D01*
G01X2903605Y674459D01*
G01X2886262Y682181D01*
G01X2867691Y686128D01*
G01X2848706Y686128D01*
G01X2830135Y682181D01*
G01X2812792Y674459D01*
G01X2797432Y663299D01*
G01X2784729Y649191D01*
G01X2775236Y632749D01*
G01X2769369Y614693D01*
G01X2767385Y595812D01*
G01X2767385Y546127D01*
G01X2755218Y556880D01*
G01X2740922Y564580D01*
G01X2725248Y568820D01*
G01X2709020Y569378D01*
G01X2693092Y566226D01*
G01X2678300Y559528D01*
G01X2665423Y549637D01*
G01X2655137Y537073D01*
G01X2647984Y522496D01*
G01X2644339Y506673D01*
G01X2443581Y506673D01*
G01X2442881Y511990D01*
G01X2438034Y523691D01*
G01X2430325Y533738D01*
G01X1913758Y1050305D01*
G01X1903711Y1058014D01*
G01X1892010Y1062861D01*
G01X1879454Y1064514D01*
G01X1282580Y1064514D01*
G01X1289006Y1075687D01*
G01X1293149Y1087892D01*
G01X1294853Y1100668D01*
G01X1302412Y1108227D01*
G01X1309787Y1117705D01*
G01X1314609Y1128705D01*
G01X1316581Y1140552D01*
G01X1335470Y1159442D01*
G01X1382197Y1159442D01*
G01X1391146Y1146408D01*
G01X1402927Y1135864D01*
G01X1416868Y1128408D01*
G01X1432178Y1124464D01*
G01X1447987Y1124256D01*
G01X1463395Y1127796D01*
G01X1477528Y1134883D01*
G01X1489581Y1145113D01*
G01X1498871Y1157906D01*
G01X1504868Y1172535D01*
G01X1507232Y1188167D01*
G01X1506029Y1201661D01*
G01X2029363Y1201661D01*
G01X2031968Y1187495D01*
G01X2037570Y1174225D01*
G01X2045905Y1162478D01*
G01X2056581Y1152808D01*
G01X2069092Y1145671D01*
G01X2067301Y1131693D01*
G01X2068503Y1117653D01*
G01X2072645Y1104183D01*
G01X2079540Y1091893D01*
G01X2088876Y1081337D01*
G01X2100232Y1072993D01*
G01X2113095Y1067236D01*
G01X2126883Y1064327D01*
G01X2140975Y1064397D01*
G01X2154734Y1067444D01*
G01X2167538Y1073328D01*
G01X2178810Y1081786D01*
G01X2641600Y1081786D01*
G01X2654156Y1083439D01*
G01X2665857Y1088286D01*
G01X2675905Y1095995D01*
G01X2745536Y1165627D01*
G01X2760718Y1167941D01*
G01X2774959Y1173686D01*
G01X2787498Y1182552D01*
G01X2797661Y1194064D01*
G01X2804904Y1207606D01*
G01X2808837Y1222450D01*
G01X2809251Y1237801D01*
G01X2806122Y1252836D01*
G01X2799620Y1266748D01*
G01X2790091Y1278791D01*
G01X2778048Y1288320D01*
G01X2764136Y1294822D01*
G01X2749101Y1297951D01*
G01X2733750Y1297537D01*
G01X2718906Y1293604D01*
G01X2705364Y1286361D01*
G01X2693852Y1276198D01*
G01X2684986Y1263659D01*
G01X2679241Y1249418D01*
G01X2676927Y1234236D01*
G01X2621505Y1178814D01*
G01X2339623Y1178814D01*
G01X2428036Y1267227D01*
G01X2442992Y1269480D01*
G01X2457048Y1275063D01*
G01X2469474Y1283686D01*
G01X2479623Y1294901D01*
G01X2486966Y1308123D01*
G01X2491123Y1322665D01*
G01X2491876Y1337771D01*
G01X2489188Y1352654D01*
G01X2483196Y1366542D01*
G01X2474214Y1378710D01*
G01X2474214Y1536700D01*
G01X5797786Y1536700D01*
G01X5799775Y1512700D01*
G01X5805687Y1489354D01*
G01X5815360Y1467300D01*
G01X5828532Y1447139D01*
G01X5844843Y1429421D01*
G01X5863847Y1414629D01*
G01X5885027Y1403167D01*
G01X5907805Y1395348D01*
G01X5931559Y1391384D01*
G01X5955641Y1391384D01*
G01X5979395Y1395348D01*
G01X6002173Y1403167D01*
G01X6023353Y1414629D01*
G01X6042357Y1429421D01*
G01X6058668Y1447139D01*
G01X6071840Y1467300D01*
G01X6081513Y1489354D01*
G01X6087425Y1512700D01*
G01X6089414Y1536700D01*
G01X6087425Y1560700D01*
G01X6081513Y1584046D01*
G01X6071840Y1606100D01*
G01X6058668Y1626261D01*
G01X6042357Y1643979D01*
G01X6023353Y1658771D01*
G01X6002173Y1670233D01*
G01X5979395Y1678052D01*
G01X5955641Y1682016D01*
G01X5931559Y1682016D01*
G01X5907805Y1678052D01*
G01X5885027Y1670233D01*
G01X5863847Y1658771D01*
G01X5844843Y1643979D01*
G01X5828532Y1626261D01*
G01X5815360Y1606100D01*
G01X5805687Y1584046D01*
G01X5799775Y1560700D01*
G01X5797786Y1536700D01*
G01X5797786Y1536700D01*
G01X2474214Y1536700D01*
G01X2474214Y1567690D01*
G01X2483312Y1580061D01*
G01X2489321Y1594194D01*
G01X2491918Y1609329D01*
G01X2490964Y1624656D01*
G01X2486510Y1639353D01*
G01X2478794Y1652631D01*
G01X2468232Y1663778D01*
G01X2455389Y1672197D01*
G01X2440953Y1677436D01*
G01X2425700Y1679214D01*
G01X2410447Y1677436D01*
G01X2396011Y1672197D01*
G01X2383168Y1663778D01*
G01X2372606Y1652631D01*
G01X2364890Y1639353D01*
G01X2360436Y1624656D01*
G01X2359482Y1609329D01*
G01X2362079Y1594194D01*
G01X2368088Y1580061D01*
G01X2377186Y1567690D01*
G01X2377186Y1378710D01*
G01X2367885Y1365980D01*
G01X2361852Y1351415D01*
G01X2359427Y1335836D01*
G01X2278605Y1255014D01*
G01X2278605Y1255014D01*
G01X2140710Y1255014D01*
G01X2129168Y1263631D01*
G01X2116038Y1269553D01*
G01X2101939Y1272501D01*
G01X2087536Y1272334D01*
G01X2073509Y1269062D01*
G01X2060519Y1262838D01*
G01X2049180Y1253955D01*
G01X2040026Y1242835D01*
G01X2033489Y1229999D01*
G01X2029878Y1216056D01*
G01X2029363Y1201661D01*
G01X1506029Y1201661D01*
G01X1505828Y1203915D01*
G01X1518187Y1212028D01*
G01X1528442Y1222677D01*
G01X1536083Y1235334D01*
G01X1540729Y1249369D01*
G01X1542150Y1264085D01*
G01X1540276Y1278750D01*
G01X1535200Y1292635D01*
G01X1527173Y1305050D01*
G01X1516595Y1315379D01*
G01X1503992Y1323107D01*
G01X1489989Y1327851D01*
G01X1475284Y1329375D01*
G01X1460606Y1327603D01*
G01X1446686Y1322623D01*
G01X1434215Y1314683D01*
G01X1423813Y1304177D01*
G01X1415263Y1297368D01*
G01X1415005Y1297110D01*
G01X1354699Y1297110D01*
G01X1368115Y1303063D01*
G01X1379892Y1311823D01*
G01X1389454Y1322958D01*
G01X1396333Y1335924D01*
G01X1400191Y1350085D01*
G01X1400839Y1364748D01*
G01X1398246Y1379195D01*
G01X1392538Y1392717D01*
G01X1383996Y1404653D01*
G01X1373037Y1414417D01*
G01X1360199Y1421531D01*
G01X1346111Y1425647D01*
G01X1341401Y1441114D01*
G01X1333089Y1454982D01*
G01X1321668Y1466426D01*
G01X1307817Y1474766D01*
G01X1292360Y1479506D01*
G01X1276215Y1480365D01*
G01X1260341Y1477291D01*
G01X1245684Y1470468D01*
G01X1233113Y1460301D01*
G01X1223376Y1447393D01*
G01X1217053Y1432513D01*
G01X1214518Y1416545D01*
G01X1206959Y1408986D01*
G01X1199249Y1398939D01*
G01X1194402Y1387238D01*
G01X1192749Y1374682D01*
G01X1192749Y1369632D01*
G01X1017255Y1194138D01*
G01X1009546Y1184091D01*
G01X1004699Y1172390D01*
G01X1003046Y1159834D01*
G01X554043Y1159834D01*
G01X559538Y1166992D01*
G01X566233Y1181788D01*
G01X569381Y1197721D01*
G01X568816Y1213951D01*
G01X564568Y1229626D01*
G01X556860Y1243921D01*
G01X546099Y1256085D01*
G01X595812Y1256085D01*
G01X614693Y1258069D01*
G01X632749Y1263936D01*
G01X649191Y1273429D01*
G01X663299Y1286132D01*
G01X674459Y1301492D01*
G01X682181Y1318835D01*
G01X686128Y1337406D01*
G01X686128Y1356391D01*
G01X682181Y1374962D01*
G01X674459Y1392305D01*
G01X663299Y1407665D01*
G01X649191Y1420368D01*
G01X632749Y1429861D01*
G01X614693Y1435728D01*
G01X595812Y1437712D01*
G01X505812Y1437712D01*
G01X487241Y1435793D01*
G01X469455Y1430117D01*
G01X453206Y1420924D01*
G01X439180Y1408602D01*
G01X427970Y1393673D01*
G01X420050Y1376766D01*
G01X415755Y1358598D01*
G01X415265Y1339934D01*
G01X255925Y1339934D01*
G01X256611Y1346899D01*
G01X254770Y1365591D01*
G01X249318Y1383565D01*
G01X240464Y1400130D01*
G01X228548Y1414649D01*
G01X214029Y1426565D01*
G01X197464Y1435419D01*
G01X179490Y1440871D01*
G01X160797Y1442712D01*
G01X100797Y1442712D01*
G01X83662Y1441168D01*
G01X67078Y1436583D01*
G01X51582Y1429107D01*
G01X63894Y1468504D01*
G01X79599Y1506675D01*
G01X98577Y1543329D01*
G01X120684Y1578186D01*
G01X145751Y1610978D01*
G01X147506Y1612900D01*
G01X590786Y1612900D01*
G01X592775Y1588900D01*
G01X598687Y1565554D01*
G01X608360Y1543500D01*
G01X621532Y1523339D01*
G01X637843Y1505621D01*
G01X656847Y1490829D01*
G01X678027Y1479367D01*
G01X700805Y1471548D01*
G01X724559Y1467584D01*
G01X748641Y1467584D01*
G01X772395Y1471548D01*
G01X795173Y1479367D01*
G01X816353Y1490829D01*
G01X835357Y1505621D01*
G01X851668Y1523339D01*
G01X864840Y1543500D01*
G01X874513Y1565554D01*
G01X880425Y1588900D01*
G01X882414Y1612900D01*
G01X880425Y1636900D01*
G01X874513Y1660246D01*
G01X864840Y1682300D01*
G01X851668Y1702461D01*
G01X835357Y1720179D01*
G01X816353Y1734971D01*
G01X795173Y1746433D01*
G01X772395Y1754252D01*
G01X748641Y1758216D01*
G01X724559Y1758216D01*
G01X700805Y1754252D01*
G01X678027Y1746433D01*
G01X656847Y1734971D01*
G01X637843Y1720179D01*
G01X621532Y1702461D01*
G01X608360Y1682300D01*
G01X598687Y1660246D01*
G01X592775Y1636900D01*
G01X590786Y1612900D01*
G01X590786Y1612900D01*
G01X147506Y1612900D01*
G01X173586Y1641457D01*
G01X203976Y1669388D01*
G01X236689Y1694558D01*
G01X271475Y1716776D01*
G01X308069Y1735870D01*
G01X346191Y1751696D01*
G01X385549Y1764132D01*
G01X425842Y1773084D01*
G01X466764Y1778482D01*
G01X508000Y1780286D01*
G01X5880100Y1780286D01*
G01X5923668Y1778272D01*
G01X5966864Y1772246D01*
G01X6009320Y1762261D01*
G01X6050673Y1748400D01*
G01X6090571Y1730784D01*
G01X6128674Y1709561D01*
G01X6164656Y1684913D01*
G01X6198210Y1657050D01*
G01X6229050Y1626210D01*
G01X6256913Y1592656D01*
G01X6281561Y1556674D01*
G01X6302784Y1518571D01*
G01X6320400Y1478673D01*
G01X6334261Y1437320D01*
G01X6344246Y1394864D01*
G01X6350272Y1351668D01*
G01X6352286Y1308100D01*
G01X6352286Y495300D01*
G01X6350332Y452382D01*
G01X6344484Y409820D01*
G01X6334793Y367965D01*
G01X6321337Y327164D01*
G01X6304228Y287756D01*
G01X6283609Y250065D01*
G01X6259649Y214405D01*
G01X6232547Y181069D01*
G01X6202527Y150336D01*
G01X6169838Y122458D01*
G01X6134751Y97666D01*
G01X6097555Y76166D01*
G01X6058559Y58136D01*
G01X6018086Y43726D01*
G01X6026083Y56625D01*
G01X6031943Y70625D01*
G01X6035519Y85375D01*
G01X6036721Y100504D01*
G01X6036721Y290504D01*
G01X6034880Y309196D01*
G01X6029428Y327170D01*
G01X6020574Y343735D01*
G01X6008658Y358254D01*
G01X5994139Y370170D01*
G01X5977574Y379024D01*
G01X5959600Y384476D01*
G01X5940908Y386317D01*
G01X5922215Y384476D01*
G01X5904241Y379024D01*
G01X5887676Y370170D01*
G01X5873157Y358254D01*
G01X5861241Y343735D01*
G01X5852387Y327170D01*
G01X5846935Y309196D01*
G01X5845094Y290504D01*
G01X5845094Y100504D01*
G01X5846782Y82598D01*
G01X5851786Y65324D01*
G01X5859930Y49289D01*
G01X5870928Y35058D01*
G01X5884391Y23133D01*
G01X5880100Y23114D01*
G01X4707382Y23114D01*
G01X4720854Y35039D01*
G01X4731859Y49272D01*
G01X4740009Y65312D01*
G01X4745017Y82592D01*
G01X4746706Y100504D01*
G01X4746706Y290504D01*
G01X4744865Y309196D01*
G01X4739413Y327170D01*
G01X4730559Y343735D01*
G01X4718643Y358254D01*
G01X4704124Y370170D01*
G01X4687559Y379024D01*
G01X4669585Y384476D01*
G01X4650892Y386317D01*
G01X4632200Y384476D01*
G01X4614226Y379024D01*
G01X4597661Y370170D01*
G01X4583142Y358254D01*
G01X4571226Y343735D01*
G01X4562372Y327170D01*
G01X4556920Y309196D01*
G01X4555079Y290504D01*
G01X4555079Y100504D01*
G01X4556768Y82592D01*
G01X4561776Y65312D01*
G01X4569926Y49272D01*
G01X4580931Y35039D01*
G01X4594403Y23114D01*
G01X4473397Y23114D01*
G01X4486869Y35039D01*
G01X4497874Y49272D01*
G01X4506024Y65312D01*
G01X4511032Y82592D01*
G01X4512721Y100504D01*
G01X4512721Y290504D01*
G01X4510880Y309196D01*
G01X4505428Y327170D01*
G01X4496574Y343735D01*
G01X4484658Y358254D01*
G01X4470139Y370170D01*
G01X4453574Y379024D01*
G01X4435600Y384476D01*
G01X4416908Y386317D01*
G01X4398215Y384476D01*
G01X4380241Y379024D01*
G01X4363676Y370170D01*
G01X4349157Y358254D01*
G01X4337241Y343735D01*
G01X4328387Y327170D01*
G01X4322935Y309196D01*
G01X4321094Y290504D01*
G01X4321094Y100504D01*
G01X4322783Y82592D01*
G01X4327791Y65312D01*
G01X4335941Y49272D01*
G01X4346946Y35039D01*
G01X4360418Y23114D01*
G01X3183382Y23114D01*
G01X3196854Y35039D01*
G01X3207859Y49272D01*
G01X3216009Y65312D01*
G01X3221017Y82592D01*
G01X3222706Y100504D01*
G01X3222706Y290504D01*
G01X3220865Y309196D01*
G01X3215413Y327170D01*
G01X3206559Y343735D01*
G01X3194643Y358254D01*
G01X3180124Y370170D01*
G01X3163559Y379024D01*
G01X3145585Y384476D01*
G01X3126892Y386317D01*
G01X3108200Y384476D01*
G01X3090226Y379024D01*
G01X3073661Y370170D01*
G01X3059142Y358254D01*
G01X3047226Y343735D01*
G01X3038372Y327170D01*
G01X3032920Y309196D01*
G01X3031079Y290504D01*
G01X3031079Y100504D01*
G01X3032768Y82592D01*
G01X3037776Y65312D01*
G01X3045926Y49272D01*
G01X3056931Y35039D01*
G01X3070403Y23114D01*
G01X2914284Y23114D01*
G01X2927886Y35041D01*
G01X2939004Y49312D01*
G01X2947242Y65419D01*
G01X2952304Y82787D01*
G01X2954012Y100797D01*
G01X2954012Y160797D01*
G01X2952171Y179490D01*
G01X2946719Y197464D01*
G01X2937865Y214029D01*
G01X2925949Y228548D01*
G01X2911430Y240464D01*
G01X2894865Y249318D01*
G01X2876891Y254770D01*
G01X2858199Y256611D01*
G01X2839506Y254770D01*
G01X2821532Y249318D01*
G01X2804967Y240464D01*
G01X2790448Y228548D01*
G01X2778532Y214029D01*
G01X2769678Y197464D01*
G01X2764226Y179490D01*
G01X2762385Y160797D01*
G01X2762385Y100797D01*
G01X2764093Y82787D01*
G01X2769155Y65419D01*
G01X2777393Y49312D01*
G01X2788511Y35041D01*
G01X2802113Y23114D01*
G01X2049287Y23114D01*
G01X2062889Y35041D01*
G01X2074007Y49312D01*
G01X2082245Y65419D01*
G01X2087307Y82787D01*
G01X2089015Y100797D01*
G01X2089015Y160797D01*
G01X2087174Y179490D01*
G01X2081722Y197464D01*
G01X2072868Y214029D01*
G01X2060952Y228548D01*
G01X2046433Y240464D01*
G01X2029868Y249318D01*
G01X2011894Y254770D01*
G01X1993202Y256611D01*
G01X1974509Y254770D01*
G01X1956535Y249318D01*
G01X1939970Y240464D01*
G01X1925451Y228548D01*
G01X1913535Y214029D01*
G01X1904681Y197464D01*
G01X1899229Y179490D01*
G01X1897388Y160797D01*
G01X1897388Y100797D01*
G01X1899096Y82787D01*
G01X1904158Y65419D01*
G01X1912396Y49312D01*
G01X1923514Y35041D01*
G01X1937116Y23114D01*
G01X1745884Y23114D01*
G01X1759486Y35041D01*
G01X1770604Y49312D01*
G01X1778842Y65419D01*
G01X1783904Y82787D01*
G01X1785612Y100797D01*
G01X1785612Y160797D01*
G01X1783771Y179490D01*
G01X1778319Y197464D01*
G01X1769465Y214029D01*
G01X1757549Y228548D01*
G01X1743030Y240464D01*
G01X1726465Y249318D01*
G01X1708491Y254770D01*
G01X1689799Y256611D01*
G01X1671106Y254770D01*
G01X1653132Y249318D01*
G01X1636567Y240464D01*
G01X1622048Y228548D01*
G01X1610132Y214029D01*
G01X1601278Y197464D01*
G01X1595826Y179490D01*
G01X1593985Y160797D01*
G01X1593985Y100797D01*
G01X1595693Y82787D01*
G01X1600755Y65419D01*
G01X1608993Y49312D01*
G01X1620111Y35041D01*
G01X1633713Y23114D01*
G01X880887Y23114D01*
G01X894489Y35041D01*
G01X905607Y49312D01*
G01X913845Y65419D01*
G01X918907Y82787D01*
G01X920615Y100797D01*
G01X920615Y160797D01*
G01X918774Y179490D01*
G01X913322Y197464D01*
G01X904468Y214029D01*
G01X892552Y228548D01*
G01X878033Y240464D01*
G01X861468Y249318D01*
G01X843494Y254770D01*
G01X824802Y256611D01*
G01X806109Y254770D01*
G01X788135Y249318D01*
G01X771570Y240464D01*
G01X757051Y228548D01*
G01X745135Y214029D01*
G01X736281Y197464D01*
G01X730829Y179490D01*
G01X728988Y160797D01*
G01X728988Y100797D01*
G01X730696Y82787D01*
G01X735758Y65419D01*
G01X743996Y49312D01*
G01X755114Y35041D01*
G01X768716Y23114D01*
G01X508000Y23114D01*
G37*
G54D10*
G01X508000Y23114D02*
G02X44677Y404243I0J472186D01*
G03X100797Y386088I56120J77658D01*
G01X160797Y386088D01*
G03X160797Y577715I0J95814D01*
G01X100797Y577715D01*
G03X35814Y552311I0J-95814D01*
G01X35814Y1276489D01*
G03X100797Y1251085I64983J70409D01*
G01X160797Y1251085D01*
G03X160797Y1442712I0J95814D01*
G01X100797Y1442712D01*
G03X51582Y1429107I0J-95814D01*
G02X508000Y1780286I456418J-121007D01*
G01X5880100Y1780286D01*
G02X6352286Y1308100I0J-472186D01*
G01X6352286Y495300D01*
G02X6018086Y43726I-472186J0D01*
G03X6036721Y100504I-77178J56778D01*
G01X6036721Y290504D01*
G03X5845094Y290504I-95814J0D01*
G01X5845094Y100504D01*
G03X5884391Y23133I95814J0D01*
G02X5880100Y23114I-4291J472167D01*
G01X4707382Y23114D01*
G03X4746706Y100504I-56490J77390D01*
G01X4746706Y290504D01*
G03X4555079Y290504I-95814J0D01*
G01X4555079Y100504D01*
G03X4594403Y23114I95814J0D01*
G01X4473397Y23114D01*
G03X4512721Y100504I-56490J77390D01*
G01X4512721Y290504D01*
G03X4321094Y290504I-95814J0D01*
G01X4321094Y100504D01*
G03X4360418Y23114I95814J0D01*
G01X3183382Y23114D01*
G03X3222706Y100504I-56490J77390D01*
G01X3222706Y290504D01*
G03X3031079Y290504I-95814J0D01*
G01X3031079Y100504D01*
G03X3070403Y23114I95814J0D01*
G01X2914284Y23114D01*
G03X2954012Y100797I-56086J77683D01*
G01X2954012Y160797D01*
G03X2762385Y160797I-95814J0D01*
G01X2762385Y100797D01*
G03X2802113Y23114I95814J0D01*
G01X2049287Y23114D01*
G03X2089015Y100797I-56086J77683D01*
G01X2089015Y160797D01*
G03X1897388Y160797I-95814J0D01*
G01X1897388Y100797D01*
G03X1937116Y23114I95814J0D01*
G01X1745884Y23114D01*
G03X1785612Y100797I-56086J77683D01*
G01X1785612Y160797D01*
G03X1593985Y160797I-95814J0D01*
G01X1593985Y100797D01*
G03X1633713Y23114I95814J0D01*
G01X880887Y23114D01*
G03X920615Y100797I-56086J77683D01*
G01X920615Y160797D01*
G03X728988Y160797I-95814J0D01*
G01X728988Y100797D01*
G03X768716Y23114I95814J0D01*
G01X508000Y23114D01*
G01X505812Y391088D02*
G01X595812Y391088D01*
G03X595812Y572715I0J90814D01*
G01X546127Y572715D01*
G03X490436Y695706I-47335J52671D01*
G03X465120Y563089I8357J-70320D01*
G03X505812Y391088I40692J-81187D01*
G01X490441Y1133067D02*
G03X546099Y1256085I8352J70321D01*
G01X595812Y1256085D01*
G03X595812Y1437712I0J90814D01*
G01X505812Y1437712D01*
G03X465145Y1265699I0J-90814D01*
G03X490441Y1133067I33648J-62311D01*
G01X590786Y1612900D02*
G03X882414Y1612900I145814J0D01*
G03X590786Y1612900I-145814J0D01*
G01X915615Y595812D02*
G03X733988Y595812I-90814J0D01*
G01X733988Y505812D01*
G03X906001Y465145I90814J0D01*
G03X1038633Y490441I62311J33648D01*
G03X915615Y546099I-70321J8352D01*
G01X915615Y595812D01*
G01X2299685Y469686D02*
G03X2289086Y439420I37915J-30266D01*
G01X2289086Y428730D01*
G03X2287585Y339976I48514J-45210D01*
G03X2375700Y329243I50015J43544D01*
G03X2463815Y339976I38100J54276D01*
G03X2462314Y428730I-50015J43544D01*
G01X2462314Y439420D01*
G03X2448105Y473724I-48514J0D01*
G01X2444534Y477295D01*
G01X2444534Y499434D01*
G03X2430325Y533738I-48514J0D01*
G01X1913758Y1050305D01*
G03X1879454Y1064514I-34305J-34305D01*
G01X1282580Y1064514D01*
G03X1294853Y1100668I-54000J38490D01*
G01X1302412Y1108227D01*
G03X1316581Y1140552I-34305J34305D01*
G01X1335470Y1159442D01*
G01X1382197Y1159442D01*
G03X1463395Y1127796I58752J30754D01*
G03X1505828Y1203915I-22447J62400D01*
G03X1527173Y1305050I-29984J59148D01*
G03X1423813Y1304177I-51329J-41987D01*
G03X1415263Y1297368I25754J-41114D01*
G01X1415005Y1297110D01*
G01X1354699Y1297110D01*
G03X1400839Y1364748I-20027J63218D01*
G03X1346111Y1425647I-66167J-4421D01*
G03X1276215Y1480365I-65320J-11438D01*
G03X1214518Y1416545I4576J-66156D01*
G01X1206959Y1408986D01*
G03X1192749Y1374682I34305J-34305D01*
G01X1192749Y1369632D01*
G01X1017255Y1194138D01*
G03X1003046Y1159834I34305J-34305D01*
G01X1003046Y1100766D01*
G03X1017255Y1066462I48514J0D01*
G01X1142662Y941055D01*
G03X1176966Y926846I34305J34305D01*
G01X1842525Y926846D01*
G01X2299685Y469686D01*
G01X1475994Y490436D02*
G03X1608611Y465120I70320J8357D01*
G03X1780612Y505812I81187J40692D01*
G01X1780612Y595812D01*
G03X1598985Y595812I-90814J0D01*
G01X1598985Y546127D01*
G03X1475994Y490436I-52671J-47335D01*
G01X2084015Y595812D02*
G03X1902388Y595812I-90814J0D01*
G01X1902388Y505812D01*
G03X2074401Y465145I90814J0D01*
G03X2207033Y490441I62311J33648D01*
G03X2084015Y546099I-70321J8352D01*
G01X2084015Y595812D01*
G01X2278605Y1255014D02*
G01X2140710Y1255014D01*
G03X2040026Y1242835I-45210J-48514D01*
G03X2069092Y1145671I55474J-36335D01*
G03X2100232Y1072993I64508J-15371D01*
G03X2178810Y1081786I33368J57307D01*
G01X2641600Y1081786D01*
G03X2675905Y1095995I0J48514D01*
G01X2745536Y1165627D01*
G03X2790091Y1278791I-2336J66273D01*
G03X2676927Y1234236I-46891J-46891D01*
G01X2621505Y1178814D01*
G01X2339623Y1178814D01*
G01X2428036Y1267227D01*
G03X2474214Y1378710I-2336J66273D01*
G01X2474214Y1567690D01*
G03X2425700Y1679214I-48514J45210D01*
G03X2377186Y1567690I0J-66314D01*
G01X2377186Y1378710D01*
G03X2359427Y1335836I48514J-45210D01*
G01X2278605Y1255014D01*
G01X2644394Y490436D02*
G03X2777011Y465120I70320J8357D01*
G03X2949012Y505812I81187J40692D01*
G01X2949012Y595812D01*
G03X2767385Y595812I-90814J0D01*
G01X2767385Y546127D01*
G03X2644394Y490436I-52671J-47335D01*
G01X5797786Y1536700D02*
G03X6089414Y1536700I145814J0D01*
G03X5797786Y1536700I-145814J0D01*
G01X6013686Y457200D02*
G03X6305314Y457200I145814J0D01*
G03X6013686Y457200I-145814J0D01*
G54D11*
G01X130797Y541647D02*
G01X130797Y567555D01*
G01X130797Y422156D02*
G01X130797Y396248D01*
G01X220543Y481902D02*
G01X246451Y481902D01*
G01X130797Y1406644D02*
G01X130797Y1432552D01*
G01X130797Y1287153D02*
G01X130797Y1261245D01*
G01X220543Y1346899D02*
G01X246451Y1346899D01*
G01X550812Y536647D02*
G01X550812Y562555D01*
G01X550812Y427156D02*
G01X550812Y401248D01*
G01X650558Y481902D02*
G01X676466Y481902D01*
G01X451066Y481902D02*
G01X425158Y481902D01*
G01X550812Y1401644D02*
G01X550812Y1427552D01*
G01X550812Y1292153D02*
G01X550812Y1266245D01*
G01X650558Y1346899D02*
G01X676466Y1346899D01*
G01X451066Y1346899D02*
G01X425158Y1346899D01*
G01X770056Y550812D02*
G01X744148Y550812D01*
G01X879547Y550812D02*
G01X905455Y550812D01*
G01X824802Y650558D02*
G01X824802Y676466D01*
G01X824802Y451066D02*
G01X824802Y425158D01*
G01X765056Y130797D02*
G01X739148Y130797D01*
G01X884547Y130797D02*
G01X910455Y130797D01*
G01X824802Y220543D02*
G01X824802Y246451D01*
G01X1630053Y130797D02*
G01X1604145Y130797D01*
G01X1749544Y130797D02*
G01X1775452Y130797D01*
G01X1689799Y220543D02*
G01X1689799Y246451D01*
G01X1635053Y550812D02*
G01X1609145Y550812D01*
G01X1744544Y550812D02*
G01X1770452Y550812D01*
G01X1689799Y650558D02*
G01X1689799Y676466D01*
G01X1689799Y451066D02*
G01X1689799Y425158D01*
G01X1933456Y130797D02*
G01X1907548Y130797D01*
G01X2052947Y130797D02*
G01X2078855Y130797D01*
G01X1993202Y220543D02*
G01X1993202Y246451D01*
G01X1938456Y550812D02*
G01X1912548Y550812D01*
G01X2047947Y550812D02*
G01X2073855Y550812D01*
G01X1993202Y650558D02*
G01X1993202Y676466D01*
G01X1993202Y451066D02*
G01X1993202Y425158D01*
G01X2798453Y130797D02*
G01X2772545Y130797D01*
G01X2917944Y130797D02*
G01X2943852Y130797D01*
G01X2858199Y220543D02*
G01X2858199Y246451D01*
G01X2803453Y550812D02*
G01X2777545Y550812D01*
G01X2912944Y550812D02*
G01X2938852Y550812D01*
G01X2858199Y650558D02*
G01X2858199Y676466D01*
G01X2858199Y451066D02*
G01X2858199Y425158D01*
G01X3067147Y195504D02*
G01X3041239Y195504D01*
G01X3186638Y195504D02*
G01X3212546Y195504D01*
G01X3126892Y350249D02*
G01X3126892Y376157D01*
G01X4357162Y195504D02*
G01X4331254Y195504D01*
G01X4476653Y195504D02*
G01X4502561Y195504D01*
G01X4416908Y350249D02*
G01X4416908Y376157D01*
G01X4591147Y195504D02*
G01X4565239Y195504D01*
G01X4710638Y195504D02*
G01X4736546Y195504D01*
G01X4650892Y350249D02*
G01X4650892Y376157D01*
G01X5881162Y195504D02*
G01X5855254Y195504D01*
G01X6000653Y195504D02*
G01X6026561Y195504D01*
G01X5940908Y350249D02*
G01X5940908Y376157D01*
G04 Copper End*

G04 Pad Start*
G54D12*
G01X550812Y1346899D03*
G01X550812Y481902D03*
G54D13*
G01X130797Y1346899D03*
G01X130797Y481902D03*
G54D14*
G01X4416908Y195504D03*
G01X3126892Y195504D03*
G54D16*
G01X824802Y550812D03*
G01X1689799Y550812D03*
G54D17*
G01X824802Y130797D03*
G01X1689799Y130797D03*
G54D16*
G01X1993202Y550812D03*
G01X2858199Y550812D03*
G54D17*
G01X1993202Y130797D03*
G01X2858199Y130797D03*
G54D14*
G01X5940908Y195504D03*
G01X4650892Y195504D03*
G04 Pad End*

G04 Via Start*
G54D18*
G01X2413800Y383520D03*
G01X2337600Y383520D03*
G01X1280790Y1414209D03*
G01X1334672Y1360327D03*
G01X1210995Y1179205D03*
G01X1228580Y1103004D03*
G01X1440949Y1190195D03*
G01X1475844Y1263063D03*
G01X2743200Y1231900D03*
G01X2133600Y1130300D03*
G01X2425700Y1333500D03*
G01X2425700Y1612900D03*
G01X2095500Y1206500D03*
G01X520700Y1651000D03*
G01X977900Y1562100D03*
G01X1447800Y1701800D03*
G01X1828800Y1294308D03*
G01X1752600Y1155700D03*
G01X2438400Y1739900D03*
G01X2311400Y1479702D03*
G01X3924300Y1638300D03*
G01X4279900Y1206500D03*
G01X4546600Y1219200D03*
G01X6223000Y939800D03*
G01X5803900Y1282700D03*
G01X2895600Y825500D03*
G01X647700Y292100D03*
G01X1841500Y660400D03*
G04 Via End*

G04 Track Start*
G54D11*
G01X2337600Y383520D02*
G01X2337600Y439420D01*
G01X2355380Y482600D02*
G01X1862620Y975360D01*
G01X2413800Y383520D02*
G01X2413800Y439420D01*
G01X2396020Y499434D02*
G01X1879454Y1016000D01*
G01X2337600Y439420D02*
G01X2355380Y457200D01*
G01X2355380Y482600D01*
G01X2413800Y439420D02*
G01X2396020Y457200D01*
G01X2396020Y499434D01*
G01X1193800Y1016000D02*
G01X1092200Y1117600D01*
G01X1051560Y1100766D02*
G01X1051560Y1159834D01*
G01X1241263Y1349537D01*
G01X1092200Y1117600D02*
G01X1092200Y1143000D01*
G01X1270000Y1320800D01*
G01X1241263Y1374682D02*
G01X1280790Y1414209D01*
G01X1295145Y1320800D02*
G01X1334672Y1360327D01*
G01X1241263Y1349537D02*
G01X1241263Y1374682D01*
G01X1270000Y1320800D02*
G01X1295145Y1320800D01*
G01X1862620Y975360D02*
G01X1176966Y975360D01*
G01X1879454Y1016000D02*
G01X1193800Y1016000D01*
G01X1176966Y975360D02*
G01X1051560Y1100766D01*
G01X1210995Y1179205D02*
G01X1250522Y1218732D01*
G01X1298542Y1248596D02*
G01X1435100Y1248596D01*
G01X1228580Y1103004D02*
G01X1268107Y1142532D01*
G01X1315375Y1207956D02*
G01X1435100Y1207956D01*
G01X1250522Y1218732D02*
G01X1268678Y1218732D01*
G01X1298542Y1248596D01*
G01X1268107Y1142532D02*
G01X1268107Y1153726D01*
G01X1269395Y1155014D01*
G01X1269395Y1161975D01*
G01X1315375Y1207956D01*
G01X1435100Y1207956D02*
G01X1440949Y1202107D01*
G01X1440949Y1190195D01*
G01X2743200Y1231900D02*
G01X2641600Y1130300D01*
G01X2133600Y1130300D01*
G01X2425700Y1333500D02*
G01X2425700Y1612900D01*
G01X2425700Y1333500D02*
G01X2298700Y1206500D01*
G01X2095500Y1206500D01*
G01X1435100Y1248596D02*
G01X1449568Y1263063D01*
G01X1475844Y1263063D01*
G04 Track End*

M02*

